<svg width="18" height="15" viewBox="0 0 18 15" fill="none" xmlns="http://www.w3.org/2000/svg">
<path d="M1.72764 4.9387C1.95534 5.09045 2.64171 5.54115 3.78677 6.29056C4.93188 7.03997 5.8091 7.61699 6.41849 8.02167C6.48544 8.06603 6.62768 8.16245 6.84528 8.31108C7.06292 8.45981 7.24375 8.57999 7.38765 8.67166C7.53165 8.76331 7.70573 8.86611 7.91006 8.97991C8.11433 9.09362 8.30688 9.17915 8.48768 9.23577C8.66852 9.29285 8.83591 9.32113 8.9899 9.32113H9H9.01013C9.16412 9.32113 9.33159 9.29282 9.51242 9.23577C9.69315 9.17915 9.88588 9.09352 10.09 8.97991C10.2942 8.86598 10.4682 8.76327 10.6122 8.67166C10.7562 8.57999 10.9369 8.45981 11.1546 8.31108C11.3722 8.16232 11.5146 8.06603 11.5816 8.02167C12.1975 7.61699 13.7647 6.58924 16.2824 4.9385C16.7712 4.61609 17.1796 4.22707 17.5077 3.77169C17.836 3.3165 18 2.83899 18 2.33942C18 1.92195 17.8409 1.56459 17.5228 1.26737C17.2047 0.970085 16.8279 0.821526 16.3928 0.821526H1.60708C1.09148 0.821526 0.694703 0.985935 0.416801 1.31475C0.138934 1.64364 0 2.05473 0 2.54799C0 2.94642 0.184213 3.37817 0.552462 3.84299C0.920676 4.30784 1.31253 4.67311 1.72764 4.9387Z" fill="white"/>
<path d="M16.9954 5.95366C14.7992 7.35755 13.1316 8.44861 11.9934 9.2266C11.6117 9.49212 11.302 9.69939 11.0642 9.84791C10.8264 9.99654 10.5102 10.1483 10.115 10.3032C9.72 10.4583 9.35186 10.5356 9.01027 10.5356H9.00004H8.98994C8.64843 10.5356 8.28007 10.4583 7.88505 10.3032C7.49003 10.1483 7.17356 9.99654 6.93584 9.84791C6.69819 9.69939 6.38844 9.49212 6.00679 9.2266C5.10272 8.60052 3.43868 7.5094 1.01461 5.95366C0.632818 5.7135 0.294649 5.43821 0 5.12836V12.6605C0 13.0782 0.157299 13.4353 0.472071 13.7326C0.786774 14.0299 1.16519 14.1786 1.60718 14.1786H16.393C16.8348 14.1786 17.2132 14.0299 17.528 13.7326C17.8428 13.4352 18 13.0782 18 12.6605V5.12836C17.712 5.43179 17.3773 5.70708 16.9954 5.95366Z" fill="white"/>
</svg>
