<svg width="17" height="17" viewBox="0 0 17 17" fill="none" xmlns="http://www.w3.org/2000/svg">
<path d="M16.3322 12.15C16.2861 12.1134 12.9375 9.69975 12.0184 9.873C11.5796 9.95063 11.3288 10.2499 10.8253 10.8489C10.7443 10.9457 10.5497 11.1774 10.3984 11.3422C10.0802 11.2385 9.76987 11.1122 9.46969 10.9643C7.92029 10.2099 6.66843 8.95808 5.91412 7.40869C5.76611 7.10855 5.63979 6.79819 5.53613 6.48C5.7015 6.32813 5.93325 6.1335 6.03225 6.05025C6.6285 5.54962 6.92831 5.29875 7.00594 4.85887C7.16512 3.94762 4.75312 0.576 4.72781 0.545625C4.61838 0.38929 4.47556 0.259235 4.30969 0.16487C4.14382 0.0705058 3.95905 0.0141908 3.76875 0C2.79112 0 0 3.62081 0 4.23056C0 4.266 0.0511875 7.86825 4.49325 12.3868C9.00731 16.8238 12.609 16.875 12.6444 16.875C13.2548 16.875 16.875 14.0839 16.875 13.1062C16.861 12.9166 16.805 12.7325 16.7111 12.5671C16.6172 12.4017 16.4878 12.2593 16.3322 12.15Z" fill="white"/>
</svg>
