<svg width="19" height="19" viewBox="0 0 19 19" fill="none" xmlns="http://www.w3.org/2000/svg">
<g clip-path="url(#clip0_2016_5120)">
<path d="M9.17499 6.10352e-05H9.17041C4.11308 6.10352e-05 0.000488281 4.1138 0.000488281 9.17227C0.000488281 11.1787 0.647129 13.0384 1.74665 14.5483L0.603561 17.9558L4.12913 16.8288C5.57949 17.7896 7.3096 18.3445 9.17499 18.3445C14.2323 18.3445 18.3449 14.2296 18.3449 9.17227C18.3449 4.11495 14.2323 6.10352e-05 9.17499 6.10352e-05ZM14.5121 12.9524C14.2908 13.5772 13.4126 14.0955 12.712 14.2468C12.2328 14.3488 11.6068 14.4302 9.49946 13.5566C6.80398 12.4399 5.06814 9.70082 4.93285 9.52311C4.80329 9.3454 3.84365 8.07275 3.84365 6.75654C3.84365 5.44033 4.51207 4.79942 4.7815 4.52426C5.00278 4.29839 5.36853 4.1952 5.71936 4.1952C5.83287 4.1952 5.93491 4.20093 6.02663 4.20552C6.29607 4.21699 6.43136 4.23304 6.60907 4.6584C6.83035 5.19153 7.36921 6.50775 7.43342 6.64304C7.49877 6.77833 7.56412 6.96177 7.4724 7.13948C7.38641 7.32293 7.31074 7.40433 7.17545 7.56026C7.04016 7.71618 6.91175 7.83542 6.77646 8.00282C6.65264 8.14843 6.51276 8.30435 6.66869 8.57379C6.82461 8.83749 7.36348 9.71687 8.15688 10.4231C9.18073 11.3346 10.0108 11.6258 10.3078 11.7497C10.529 11.8414 10.7927 11.8196 10.9544 11.6476C11.1596 11.4263 11.413 11.0595 11.671 10.6983C11.8544 10.4392 12.086 10.4071 12.3291 10.4988C12.5767 10.5848 13.8872 11.2326 14.1567 11.3667C14.4261 11.502 14.6038 11.5662 14.6691 11.6797C14.7334 11.7932 14.7334 12.3264 14.5121 12.9524Z" fill="white"/>
</g>
<defs>
<clipPath id="clip0_2016_5120">
<rect width="18.3444" height="18.3444" fill="white"/>
</clipPath>
</defs>
</svg>
