<svg width="19" height="16" viewBox="0 0 19 16" fill="none" xmlns="http://www.w3.org/2000/svg">
<path d="M0.322543 7.62362L4.53024 9.19407L6.15888 14.4317C6.26308 14.7672 6.67329 14.8912 6.94556 14.6686L9.291 12.7565C9.53685 12.5562 9.88704 12.5462 10.144 12.7327L14.3743 15.8041C14.6656 16.0158 15.0782 15.8562 15.1513 15.5042L18.2502 0.59771C18.3299 0.213256 17.9522 -0.107468 17.5861 0.0341154L0.317612 6.69578C-0.108538 6.86013 -0.104825 7.46348 0.322543 7.62362ZM5.8964 8.35808L14.1198 3.29327C14.2676 3.20252 14.4197 3.40235 14.2927 3.52008L7.50605 9.82864C7.2675 10.0507 7.11362 10.3479 7.07004 10.6704L6.83885 12.3837C6.80824 12.6124 6.4869 12.6351 6.42378 12.4137L5.53465 9.28957C5.43282 8.93324 5.58122 8.55262 5.8964 8.35808Z" fill="white"/>
</svg>
