<svg width="13" height="18" viewBox="0 0 13 18" fill="none" xmlns="http://www.w3.org/2000/svg">
<path d="M6.2463 0C2.80205 0 0 2.80246 0 6.2468C0 9.56228 5.66738 17.3084 5.90869 17.6364L6.1339 17.9429C6.14683 17.9606 6.16375 17.975 6.18328 17.9849C6.20281 17.9948 6.2244 18 6.2463 18C6.26831 18 6.29002 17.9949 6.30966 17.985C6.32931 17.975 6.34634 17.9606 6.35939 17.9429L6.58446 17.6364C6.82591 17.3084 12.4931 9.56228 12.4931 6.2468C12.4931 2.80246 9.69064 0 6.2463 0ZM6.2463 4.00921C7.48039 4.00921 8.4839 5.01276 8.4839 6.2468C8.4839 7.48021 7.48034 8.4844 6.2463 8.4844C5.01294 8.4844 4.00871 7.48021 4.00871 6.2468C4.00871 5.01276 5.0129 4.00921 6.2463 4.00921Z" fill="white"/>
</svg>
