<svg width="12" height="10" viewBox="0 0 12 10" fill="none" xmlns="http://www.w3.org/2000/svg">
<path d="M0.513693 4.7373L2.99979 5.66519L3.96207 8.75985C4.02364 8.95805 4.26601 9.03131 4.42688 8.89979L5.81267 7.77006C5.95793 7.6517 6.16484 7.6458 6.31664 7.756L8.81612 9.57067C8.98822 9.69576 9.23202 9.60146 9.27518 9.39351L11.1062 0.586065C11.1533 0.358911 10.9301 0.169413 10.7138 0.253067L0.51078 4.18909C0.258991 4.28619 0.261185 4.64267 0.513693 4.7373ZM3.80699 5.17125L8.66575 2.17873C8.75308 2.1251 8.84292 2.24318 8.76793 2.31273L4.75804 6.04012C4.61709 6.17132 4.52617 6.3469 4.50042 6.53748L4.36383 7.54974C4.34574 7.6849 4.15588 7.69831 4.11859 7.56751L3.59325 5.72162C3.53308 5.51108 3.62076 5.28619 3.80699 5.17125Z" fill="#151414"/>
</svg>
