<svg width="14" height="17" viewBox="0 0 14 17" fill="none" xmlns="http://www.w3.org/2000/svg">
<g clip-path="url(#clip0_2261_990)">
<path d="M7.06638 8.08226C8.11012 8.08226 9.01392 7.69352 9.75238 6.92653C10.4908 6.15967 10.8652 5.22136 10.8652 4.13735C10.8652 3.05372 10.4908 2.11529 9.75226 1.34817C9.01368 0.581431 8.11 0.192688 7.06638 0.192688C6.02252 0.192688 5.11897 0.581431 4.38051 1.3483C3.64204 2.11516 3.26758 3.05359 3.26758 4.13735C3.26758 5.22136 3.64204 6.15979 4.38063 6.92666C5.11921 7.6934 6.02288 8.08226 7.06638 8.08226Z" fill="white"/>
<path d="M13.7125 12.7868C13.6912 12.4677 13.6481 12.1196 13.5847 11.7519C13.5207 11.3816 13.4383 11.0314 13.3396 10.7114C13.2377 10.3807 13.0991 10.054 12.9277 9.741C12.7499 9.41612 12.541 9.13321 12.3066 8.90042C12.0615 8.65688 11.7614 8.46107 11.4144 8.31824C11.0685 8.17617 10.6853 8.10419 10.2753 8.10419C10.1143 8.10419 9.95861 8.17279 9.65791 8.3761C9.47284 8.50143 9.25637 8.64638 9.01475 8.8067C8.80815 8.9434 8.52826 9.07148 8.18255 9.18744C7.84527 9.30078 7.50282 9.35826 7.16481 9.35826C6.82681 9.35826 6.48447 9.30078 6.14683 9.18744C5.80148 9.07161 5.5216 8.94353 5.31523 8.80682C5.0759 8.648 4.85931 8.50305 4.67147 8.37597C4.37113 8.17267 4.2153 8.10406 4.0543 8.10406C3.64422 8.10406 3.26109 8.17617 2.91539 8.31837C2.5686 8.46094 2.26838 8.65675 2.02303 8.90054C1.78875 9.13346 1.57974 9.41624 1.40213 9.741C1.2309 10.054 1.09228 10.3805 0.990243 10.7115C0.891694 11.0316 0.809268 11.3816 0.745253 11.7519C0.68184 12.1191 0.638762 12.4673 0.617464 12.7872C0.596526 13.1006 0.585938 13.4259 0.585938 13.7544C0.585938 14.6093 0.847653 15.3015 1.36374 15.8119C1.87346 16.3156 2.5479 16.5712 3.36807 16.5712H10.9623C11.7824 16.5712 12.4566 16.3158 12.9665 15.8119C13.4827 15.3018 13.7444 14.6096 13.7444 13.7543C13.7443 13.4242 13.7336 13.0987 13.7125 12.7868Z" fill="white"/>
</g>
<defs>
<clipPath id="clip0_2261_990">
<rect width="13.3075" height="16.3784" fill="white" transform="translate(0.493164 0.192688)"/>
</clipPath>
</defs>
</svg>
