<svg width="14" height="14" viewBox="0 0 14 14" fill="none" xmlns="http://www.w3.org/2000/svg">
<g clip-path="url(#clip0_2261_995)">
<path d="M1.54925 13.0001H12.5323V5.00006H1.54925V13.0001ZM4.54464 3.50006V1.25006C4.54464 1.17714 4.52124 1.11725 4.47443 1.07037C4.42763 1.0235 4.36783 1.00006 4.29502 1.00006H3.79579C3.72298 1.00006 3.66318 1.0235 3.61638 1.07037C3.56957 1.11725 3.54617 1.17714 3.54617 1.25006V3.50006C3.54617 3.57298 3.56957 3.63287 3.61638 3.67975C3.66318 3.72662 3.72298 3.75006 3.79579 3.75006H4.29502C4.36783 3.75006 4.42763 3.72662 4.47443 3.67975C4.52124 3.63287 4.54464 3.57298 4.54464 3.50006ZM10.5354 3.50006V1.25006C10.5354 1.17714 10.512 1.11725 10.4652 1.07037C10.4184 1.0235 10.3586 1.00006 10.2858 1.00006H9.78657C9.71377 1.00006 9.65396 1.0235 9.60716 1.07037C9.56036 1.11725 9.53696 1.17714 9.53696 1.25006V3.50006C9.53696 3.57298 9.56036 3.63287 9.60716 3.67975C9.65396 3.72662 9.71377 3.75006 9.78657 3.75006H10.2858C10.3586 3.75006 10.4184 3.72662 10.4652 3.67975C10.512 3.63287 10.5354 3.57298 10.5354 3.50006ZM13.5308 3.00006V13.0001C13.5308 13.2709 13.432 13.5053 13.2344 13.7032C13.0368 13.9011 12.8028 14.0001 12.5323 14.0001H1.54925C1.27883 14.0001 1.04481 13.9011 0.8472 13.7032C0.649588 13.5053 0.550781 13.2709 0.550781 13.0001V3.00006C0.550781 2.72923 0.649588 2.49485 0.8472 2.29694C1.04481 2.09902 1.27883 2.00006 1.54925 2.00006H2.54771V1.25006C2.54771 0.906311 2.66992 0.61204 2.91433 0.367249C3.15875 0.122457 3.45257 6.10352e-05 3.79579 6.10352e-05H4.29502C4.63824 6.10352e-05 4.93206 0.122457 5.17648 0.367249C5.42089 0.61204 5.5431 0.906311 5.5431 1.25006V2.00006H8.53849V1.25006C8.53849 0.906311 8.6607 0.61204 8.90512 0.367249C9.14953 0.122457 9.44335 6.10352e-05 9.78657 6.10352e-05H10.2858C10.629 6.10352e-05 10.9228 0.122457 11.1673 0.367249C11.4117 0.61204 11.5339 0.906311 11.5339 1.25006V2.00006H12.5323C12.8028 2.00006 13.0368 2.09902 13.2344 2.29694C13.432 2.49485 13.5308 2.72923 13.5308 3.00006Z" fill="white"/>
</g>
<defs>
<clipPath id="clip0_2261_995">
<rect width="13" height="14" fill="white" transform="translate(0.541016 6.10352e-05)"/>
</clipPath>
</defs>
</svg>
