<svg width="21" height="22" viewBox="0 0 21 22" fill="none" xmlns="http://www.w3.org/2000/svg">
<g clip-path="url(#clip0_41_5363)" filter="url(#filter0_d_41_5363)">
<path d="M5.00823 13.0001H15.9913V5.00012H5.00823V13.0001ZM8.00362 3.50012V1.25012C8.00362 1.17721 7.98022 1.11731 7.93342 1.07043C7.88661 1.02356 7.82681 1.00012 7.75401 1.00012H7.25477C7.18197 1.00012 7.12216 1.02356 7.07536 1.07043C7.02856 1.11731 7.00516 1.17721 7.00516 1.25012V3.50012C7.00516 3.57304 7.02856 3.63293 7.07536 3.67981C7.12216 3.72668 7.18197 3.75012 7.25477 3.75012H7.75401C7.82681 3.75012 7.88661 3.72668 7.93342 3.67981C7.98022 3.63293 8.00362 3.57304 8.00362 3.50012ZM13.9944 3.50012V1.25012C13.9944 1.17721 13.971 1.11731 13.9242 1.07043C13.8774 1.02356 13.8176 1.00012 13.7448 1.00012H13.2456C13.1728 1.00012 13.1129 1.02356 13.0661 1.07043C13.0193 1.11731 12.9959 1.17721 12.9959 1.25012V3.50012C12.9959 3.57304 13.0193 3.63293 13.0661 3.67981C13.1129 3.72668 13.1728 3.75012 13.2456 3.75012H13.7448C13.8176 3.75012 13.8774 3.72668 13.9242 3.67981C13.971 3.63293 13.9944 3.57304 13.9944 3.50012ZM16.9898 3.00012V13.0001C16.9898 13.271 16.891 13.5053 16.6934 13.7032C16.4958 13.9012 16.2618 14.0001 15.9913 14.0001H5.00823C4.73781 14.0001 4.5038 13.9012 4.30618 13.7032C4.10857 13.5053 4.00977 13.271 4.00977 13.0001V3.00012C4.00977 2.72929 4.10857 2.49491 4.30618 2.297C4.5038 2.09908 4.73781 2.00012 5.00823 2.00012H6.00669V1.25012C6.00669 0.906372 6.1289 0.612101 6.37332 0.36731C6.61773 0.122518 6.91155 0.00012207 7.25477 0.00012207H7.75401C8.09723 0.00012207 8.39105 0.122518 8.63546 0.36731C8.87988 0.612101 9.00209 0.906372 9.00209 1.25012V2.00012H11.9975V1.25012C11.9975 0.906372 12.1197 0.612101 12.3641 0.36731C12.6085 0.122518 12.9023 0.00012207 13.2456 0.00012207H13.7448C14.088 0.00012207 14.3818 0.122518 14.6262 0.36731C14.8707 0.612101 14.9929 0.906372 14.9929 1.25012V2.00012H15.9913C16.2618 2.00012 16.4958 2.09908 16.6934 2.297C16.891 2.49491 16.9898 2.72929 16.9898 3.00012Z" fill="#596772"/>
</g>
<defs>
<filter id="filter0_d_41_5363" x="0" y="0.00012207" width="21" height="22" filterUnits="userSpaceOnUse" color-interpolation-filters="sRGB">
<feFlood flood-opacity="0" result="BackgroundImageFix"/>
<feColorMatrix in="SourceAlpha" type="matrix" values="0 0 0 0 0 0 0 0 0 0 0 0 0 0 0 0 0 0 127 0" result="hardAlpha"/>
<feOffset dy="4"/>
<feGaussianBlur stdDeviation="2"/>
<feComposite in2="hardAlpha" operator="out"/>
<feColorMatrix type="matrix" values="0 0 0 0 0 0 0 0 0 0 0 0 0 0 0 0 0 0 0.25 0"/>
<feBlend mode="normal" in2="BackgroundImageFix" result="effect1_dropShadow_41_5363"/>
<feBlend mode="normal" in="SourceGraphic" in2="effect1_dropShadow_41_5363" result="shape"/>
</filter>
<clipPath id="clip0_41_5363">
<rect width="13" height="14" fill="white" transform="translate(4 0.00012207)"/>
</clipPath>
</defs>
</svg>
