<svg width="38" height="38" viewBox="0 0 38 38" fill="none" xmlns="http://www.w3.org/2000/svg">
<path fill-rule="evenodd" clip-rule="evenodd" d="M34.4385 13.0627H3.56348V28.5109C3.56348 30.0855 4.18929 31.596 5.30198 32.7087C6.41585 33.8225 7.92635 34.4484 9.50098 34.4484C14.7723 34.4484 23.2297 34.4484 28.501 34.4484C30.0756 34.4484 31.5861 33.8225 32.7 32.7087C33.8127 31.596 34.4385 30.0855 34.4385 28.5109V13.0627ZM10.6885 28.5002H13.0635C13.719 28.5002 14.251 27.9682 14.251 27.3127C14.251 26.6572 13.719 26.1252 13.0635 26.1252H10.6885C10.033 26.1252 9.50098 26.6572 9.50098 27.3127C9.50098 27.9682 10.033 28.5002 10.6885 28.5002ZM17.8135 28.5002H20.1885C20.844 28.5002 21.376 27.9682 21.376 27.3127C21.376 26.6572 20.844 26.1252 20.1885 26.1252H17.8135C17.158 26.1252 16.626 26.6572 16.626 27.3127C16.626 27.9682 17.158 28.5002 17.8135 28.5002ZM24.9385 28.5002H27.3135C27.969 28.5002 28.501 27.9682 28.501 27.3127C28.501 26.6572 27.969 26.1252 27.3135 26.1252H24.9385C24.283 26.1252 23.751 26.6572 23.751 27.3127C23.751 27.9682 24.283 28.5002 24.9385 28.5002ZM10.6885 23.7502H13.0635C13.719 23.7502 14.251 23.2182 14.251 22.5627C14.251 21.9072 13.719 21.3752 13.0635 21.3752H10.6885C10.033 21.3752 9.50098 21.9072 9.50098 22.5627C9.50098 23.2182 10.033 23.7502 10.6885 23.7502ZM17.8135 23.7502H20.1885C20.844 23.7502 21.376 23.2182 21.376 22.5627C21.376 21.9072 20.844 21.3752 20.1885 21.3752H17.8135C17.158 21.3752 16.626 21.9072 16.626 22.5627C16.626 23.2182 17.158 23.7502 17.8135 23.7502ZM24.9385 23.7502H27.3135C27.969 23.7502 28.501 23.2182 28.501 22.5627C28.501 21.9072 27.969 21.3752 27.3135 21.3752H24.9385C24.283 21.3752 23.751 21.9072 23.751 22.5627C23.751 23.2182 24.283 23.7502 24.9385 23.7502ZM10.6885 19.0002H13.0635C13.719 19.0002 14.251 18.4682 14.251 17.8127C14.251 17.1572 13.719 16.6252 13.0635 16.6252H10.6885C10.033 16.6252 9.50098 17.1572 9.50098 17.8127C9.50098 18.4682 10.033 19.0002 10.6885 19.0002ZM17.8135 19.0002H20.1885C20.844 19.0002 21.376 18.4682 21.376 17.8127C21.376 17.1572 20.844 16.6252 20.1885 16.6252H17.8135C17.158 16.6252 16.626 17.1572 16.626 17.8127C16.626 18.4682 17.158 19.0002 17.8135 19.0002ZM24.9385 19.0002H27.3135C27.969 19.0002 28.501 18.4682 28.501 17.8127C28.501 17.1572 27.969 16.6252 27.3135 16.6252H24.9385C24.283 16.6252 23.751 17.1572 23.751 17.8127C23.751 18.4682 24.283 19.0002 24.9385 19.0002ZM11.876 3.57336V7.12518C11.876 7.78068 11.344 8.31268 10.6885 8.31268C10.033 8.31268 9.50098 7.78068 9.50098 7.12518V3.57336C7.92635 3.57336 6.41585 4.19918 5.30198 5.31186C4.18929 6.42574 3.56348 7.93624 3.56348 9.51086V10.6877H34.4385V9.51086C34.4385 7.93624 33.8127 6.42574 32.7 5.31186C31.5861 4.19918 30.0756 3.57336 28.501 3.57336V7.12518C28.501 7.78068 27.969 8.31268 27.3135 8.31268C26.658 8.31268 26.126 7.78068 26.126 7.12518V3.57336H11.876Z" fill="#2581D9"/>
</svg>
