<svg width="18" height="30" viewBox="0 0 18 30" fill="none" xmlns="http://www.w3.org/2000/svg">
<path d="M10.771 20.5259H5.91504C5.92773 19.3833 6.0166 18.3994 6.18164 17.5742C6.35938 16.7363 6.65771 15.981 7.07666 15.3081C7.5083 14.6353 8.07959 13.9688 8.79053 13.3086C9.38721 12.7754 9.90771 12.2676 10.3521 11.7852C10.7964 11.3027 11.1455 10.8076 11.3994 10.2998C11.6533 9.7793 11.7803 9.20166 11.7803 8.56689C11.7803 7.83057 11.666 7.22119 11.4375 6.73877C11.2217 6.24365 10.8916 5.86914 10.4473 5.61523C10.0156 5.36133 9.46973 5.23438 8.80957 5.23438C8.26367 5.23438 7.75586 5.35498 7.28613 5.59619C6.81641 5.82471 6.4292 6.18018 6.12451 6.6626C5.83252 7.14502 5.68018 7.77979 5.66748 8.56689H0.14502C0.183105 6.82764 0.583008 5.39307 1.34473 4.26318C2.11914 3.12061 3.15381 2.27637 4.44873 1.73047C5.74365 1.17188 7.19727 0.892578 8.80957 0.892578C10.5869 0.892578 12.1104 1.18457 13.3799 1.76855C14.6494 2.33984 15.6206 3.18408 16.2935 4.30127C16.9663 5.40576 17.3027 6.75146 17.3027 8.33838C17.3027 9.44287 17.0869 10.4268 16.6553 11.29C16.2236 12.1406 15.6587 12.9341 14.9604 13.6704C14.2622 14.4067 13.4941 15.1685 12.6562 15.9556C11.9326 16.603 11.4375 17.2822 11.1709 17.9932C10.917 18.7041 10.7837 19.5483 10.771 20.5259ZM5.34375 26.4102C5.34375 25.5977 5.62305 24.9248 6.18164 24.3916C6.74023 23.8457 7.48926 23.5728 8.42871 23.5728C9.35547 23.5728 10.0981 23.8457 10.6567 24.3916C11.228 24.9248 11.5137 25.5977 11.5137 26.4102C11.5137 27.1973 11.228 27.8638 10.6567 28.4097C10.0981 28.9556 9.35547 29.2285 8.42871 29.2285C7.48926 29.2285 6.74023 28.9556 6.18164 28.4097C5.62305 27.8638 5.34375 27.1973 5.34375 26.4102Z" fill="white"/>
</svg>
