<svg width="19" height="19" viewBox="0 0 19 19" fill="none" xmlns="http://www.w3.org/2000/svg">
<g clip-path="url(#clip0_2152_9363)">
<path d="M1.80447 6.56761C2.04229 6.73543 2.75917 7.23386 3.95516 8.06264C5.15118 8.89141 6.06741 9.52955 6.7039 9.97708C6.77382 10.0261 6.92239 10.1328 7.14967 10.2971C7.37698 10.4616 7.56586 10.5945 7.71615 10.6959C7.86655 10.7973 8.04837 10.911 8.2618 11.0368C8.47514 11.1626 8.67626 11.2571 8.8651 11.3198C9.05397 11.3829 9.22881 11.4142 9.38965 11.4142H9.4002H9.41078C9.57162 11.4142 9.74653 11.3829 9.93541 11.3198C10.1242 11.2571 10.3255 11.1624 10.5386 11.0368C10.7519 10.9108 10.9337 10.7972 11.0841 10.6959C11.2345 10.5945 11.4233 10.4616 11.6507 10.2971C11.8779 10.1326 12.0266 10.0261 12.0966 9.97708C12.7399 9.52955 14.3767 8.39295 17.0064 6.56739C17.517 6.21084 17.9435 5.78061 18.2862 5.277C18.6291 4.77362 18.8004 4.24553 18.8004 3.69305C18.8004 3.23137 18.6342 2.83616 18.3019 2.50747C17.9697 2.1787 17.5762 2.0144 17.1217 2.0144H1.67854C1.14002 2.0144 0.725594 2.19623 0.435334 2.55987C0.145111 2.92358 0 3.37821 0 3.92371C0 4.36433 0.192404 4.84182 0.577028 5.35586C0.961616 5.86994 1.3709 6.2739 1.80447 6.56761Z" fill="#024260"/>
<path d="M17.7511 7.69005C15.4573 9.24262 13.7155 10.4492 12.5267 11.3096C12.128 11.6032 11.8046 11.8325 11.5562 11.9967C11.3078 12.1611 10.9775 12.3289 10.5648 12.5002C10.1522 12.6718 9.7677 12.7573 9.41093 12.7573H9.40024H9.38969C9.03299 12.7573 8.64826 12.6718 8.23567 12.5002C7.82308 12.3289 7.49255 12.1611 7.24425 11.9967C6.99603 11.8325 6.67252 11.6032 6.27389 11.3096C5.32962 10.6172 3.59159 9.41055 1.05973 7.69005C0.660957 7.42445 0.307751 7.12 0 6.77734V15.1072C0 15.5691 0.164293 15.9641 0.493063 16.2928C0.821759 16.6217 1.217 16.786 1.67865 16.786H17.1219C17.5834 16.786 17.9786 16.6217 18.3074 16.2928C18.6362 15.964 18.8004 15.5691 18.8004 15.1072V6.77734C18.4996 7.11291 18.15 7.41736 17.7511 7.69005Z" fill="#024260"/>
</g>
<defs>
<clipPath id="clip0_2152_9363">
<rect width="18.8004" height="18.8004" fill="white"/>
</clipPath>
</defs>
</svg>
