<svg width="14" height="21" viewBox="0 0 14 21" fill="none" xmlns="http://www.w3.org/2000/svg">
<path d="M6.82731 9.15527e-05C3.06636 9.15527e-05 0.00665283 3.17794 0.00665283 7.08365C0.00665283 10.8432 6.19515 19.6269 6.45865 19.9989L6.70457 20.3464C6.7187 20.3665 6.73717 20.3828 6.75849 20.394C6.77982 20.4053 6.80339 20.4112 6.82731 20.4112C6.85134 20.4112 6.87504 20.4054 6.8965 20.3941C6.91795 20.3829 6.93655 20.3665 6.95079 20.3464L7.19656 19.9989C7.46021 19.6269 13.6486 10.8432 13.6486 7.08365C13.6486 3.17794 10.5884 9.15527e-05 6.82731 9.15527e-05ZM6.82731 4.54633C8.17487 4.54633 9.27065 5.68431 9.27065 7.08365C9.27065 8.48226 8.17482 9.62097 6.82731 9.62097C5.48054 9.62097 4.38397 8.48226 4.38397 7.08365C4.38397 5.68431 5.48049 4.54633 6.82731 4.54633Z" fill="#024260"/>
</svg>
