<svg width="19" height="19" viewBox="0 0 19 19" fill="none" xmlns="http://www.w3.org/2000/svg">
<g clip-path="url(#clip0_2152_9229)">
<path d="M17.6462 13.2779C17.598 13.2398 14.1006 10.7187 13.1406 10.8997C12.6823 10.9808 12.4203 11.2933 11.8944 11.919C11.8098 12.0201 11.6066 12.2621 11.4485 12.4343C11.1162 12.3259 10.7921 12.194 10.4785 12.0395C8.86025 11.2516 7.55272 9.94409 6.76487 8.3258C6.61028 8.01232 6.47834 7.68816 6.37007 7.35582C6.54279 7.19719 6.78485 6.99391 6.88825 6.90696C7.51101 6.38407 7.82416 6.12204 7.90524 5.66261C8.0715 4.71084 5.55225 1.18929 5.52581 1.15756C5.41151 0.994277 5.26234 0.858439 5.0891 0.759879C4.91585 0.661318 4.72287 0.602499 4.5241 0.587677C3.503 0.587677 0.587769 4.36949 0.587769 5.00636C0.587769 5.04337 0.641232 8.8058 5.28082 13.5253C9.9956 18.1596 13.7574 18.213 13.7945 18.213C14.4319 18.213 18.2131 15.2978 18.2131 14.2767C18.1985 14.0786 18.14 13.8863 18.042 13.7136C17.9439 13.5409 17.8087 13.3921 17.6462 13.2779Z" fill="#024260"/>
</g>
<defs>
<clipPath id="clip0_2152_9229">
<rect width="18.8004" height="18.8004" fill="white"/>
</clipPath>
</defs>
</svg>
