<svg width="129" height="118" viewBox="0 0 129 118" fill="none" xmlns="http://www.w3.org/2000/svg">
<path d="M2.59804 92C2.36951 92 2.17706 91.9399 2.0207 91.8196C1.87636 91.6873 1.8042 91.5129 1.8042 91.2964V78.6129C1.8042 78.4084 1.87035 78.24 2.00266 78.1077C2.13497 77.9754 2.30336 77.9092 2.50783 77.9092H6.89203C7.61371 77.9092 8.26322 78.0656 8.84056 78.3783C9.42993 78.679 9.89301 79.094 10.2298 79.6232C10.5786 80.1524 10.753 80.7659 10.753 81.4635C10.753 82.113 10.5786 82.6903 10.2298 83.1955C9.88098 83.7007 9.42392 84.0856 8.8586 84.3502C9.66448 84.5667 10.314 84.9757 10.8071 85.5771C11.3003 86.1664 11.5469 86.9182 11.5469 87.8323C11.5469 88.6502 11.3604 89.3719 10.9876 89.9973C10.6147 90.6228 10.0975 91.1159 9.43594 91.4768C8.78643 91.8256 8.0407 92 7.19874 92H2.59804ZM3.21147 90.6468H7.19874C7.77608 90.6468 8.28727 90.5326 8.73231 90.304C9.17734 90.0755 9.52615 89.7508 9.77874 89.3298C10.0313 88.9088 10.1576 88.4096 10.1576 87.8323C10.1576 87.291 10.0313 86.822 9.77874 86.425C9.52615 86.0161 9.17734 85.7033 8.73231 85.4868C8.28727 85.2583 7.77608 85.144 7.19874 85.144H3.21147V90.6468ZM3.21147 83.7909H6.89203C7.61371 83.7909 8.20909 83.5864 8.67818 83.1775C9.14727 82.7685 9.38182 82.1972 9.38182 81.4635C9.38182 80.7418 9.14727 80.1945 8.67818 79.8217C8.20909 79.4488 7.61371 79.2624 6.89203 79.2624H3.21147V83.7909ZM15.648 85.9199C15.6841 85.1741 15.8765 84.5066 16.2254 83.9172C16.5862 83.3278 17.0493 82.8647 17.6146 82.528C18.1919 82.1912 18.8294 82.0228 19.527 82.0228C20.0803 82.0228 20.5073 82.101 20.808 82.2573C21.1087 82.4137 21.223 82.6422 21.1508 82.9429C21.1027 83.1233 21.0185 83.2436 20.8982 83.3038C20.79 83.3639 20.6517 83.388 20.4833 83.3759C20.3269 83.3639 20.1465 83.3519 19.942 83.3399C19.2684 83.2797 18.667 83.3519 18.1378 83.5564C17.6206 83.7488 17.2056 84.0495 16.8929 84.4585C16.5922 84.8674 16.4419 85.3545 16.4419 85.9199H15.648ZM15.7563 92C15.5398 92 15.3714 91.9399 15.2511 91.8196C15.1308 91.6993 15.0707 91.5309 15.0707 91.3144V82.8166C15.0707 82.6001 15.1308 82.4317 15.2511 82.3115C15.3714 82.1912 15.5398 82.131 15.7563 82.131C15.9728 82.131 16.1412 82.1912 16.2614 82.3115C16.3817 82.4317 16.4419 82.6001 16.4419 82.8166V91.3144C16.4419 91.5309 16.3817 91.6993 16.2614 91.8196C16.1412 91.9399 15.9728 92 15.7563 92ZM25.2284 92C25.0119 92 24.8375 91.9399 24.7052 91.8196C24.5849 91.6873 24.5248 91.5129 24.5248 91.2964V82.8347C24.5248 82.6182 24.5849 82.4498 24.7052 82.3295C24.8375 82.1972 25.0119 82.131 25.2284 82.131C25.4329 82.131 25.5953 82.1972 25.7156 82.3295C25.8479 82.4498 25.914 82.6182 25.914 82.8347V91.2964C25.914 91.5129 25.8479 91.6873 25.7156 91.8196C25.5953 91.9399 25.4329 92 25.2284 92ZM25.2104 80.2547C24.9458 80.2547 24.7172 80.1585 24.5248 79.966C24.3324 79.7736 24.2361 79.539 24.2361 79.2624C24.2361 78.9617 24.3324 78.7271 24.5248 78.5587C24.7293 78.3783 24.9638 78.2881 25.2284 78.2881C25.481 78.2881 25.7035 78.3783 25.896 78.5587C26.1005 78.7271 26.2027 78.9617 26.2027 79.2624C26.2027 79.539 26.1065 79.7736 25.914 79.966C25.7216 80.1585 25.487 80.2547 25.2104 80.2547ZM34.7016 92.0902C33.7514 92.0902 32.9094 91.8797 32.1757 91.4587C31.442 91.0257 30.8647 90.4303 30.4437 89.6726C30.0347 88.9148 29.8303 88.0488 29.8303 87.0745C29.8303 86.0882 30.0468 85.2162 30.4798 84.4585C30.9128 83.7007 31.5082 83.1113 32.2659 82.6903C33.0237 82.2573 33.8837 82.0408 34.8459 82.0408C35.8202 82.0408 36.6802 82.2573 37.4259 82.6903C38.1837 83.1113 38.7731 83.7007 39.194 84.4585C39.627 85.2162 39.8496 86.0882 39.8616 87.0745L39.0497 87.5075C39.0497 88.3976 38.8633 89.1915 38.4904 89.8891C38.1175 90.5747 37.6003 91.1159 36.9388 91.5129C36.2893 91.8978 35.5436 92.0902 34.7016 92.0902ZM34.882 95.8971C33.9318 95.8971 33.0959 95.7166 32.3742 95.3558C31.6525 95.007 31.0571 94.5259 30.588 93.9124C30.4557 93.7681 30.3956 93.6117 30.4076 93.4433C30.4317 93.275 30.5219 93.1366 30.6782 93.0284C30.8346 92.9201 31.009 92.884 31.2015 92.9201C31.3939 92.9562 31.5442 93.0464 31.6525 93.1908C32.0013 93.6238 32.4463 93.9726 32.9876 94.2372C33.5409 94.5018 34.1784 94.6341 34.9001 94.6341C35.5736 94.6341 36.181 94.4717 36.7223 94.147C37.2636 93.8222 37.6905 93.3652 38.0033 92.7758C38.328 92.1864 38.4904 91.4948 38.4904 90.701V87.9586L39.0136 86.9122L39.8616 87.0745V90.7551C39.8616 91.7294 39.6451 92.6014 39.2121 93.3712C38.7791 94.153 38.1897 94.7664 37.444 95.2115C36.6982 95.6685 35.8442 95.8971 34.882 95.8971ZM34.8459 90.8273C35.5556 90.8273 36.181 90.6709 36.7223 90.3582C37.2756 90.0334 37.7086 89.5884 38.0213 89.0231C38.334 88.4578 38.4904 87.8082 38.4904 87.0745C38.4904 86.3408 38.334 85.6913 38.0213 85.126C37.7086 84.5487 37.2756 84.1036 36.7223 83.7909C36.181 83.4661 35.5556 83.3038 34.8459 83.3038C34.1363 83.3038 33.5048 83.4661 32.9515 83.7909C32.3982 84.1036 31.9652 84.5487 31.6525 85.126C31.3398 85.6913 31.1834 86.3408 31.1834 87.0745C31.1834 87.8082 31.3398 88.4578 31.6525 89.0231C31.9652 89.5884 32.3982 90.0334 32.9515 90.3582C33.5048 90.6709 34.1363 90.8273 34.8459 90.8273ZM44.1693 87.9766C43.9527 87.9766 43.7783 87.9105 43.646 87.7782C43.5258 87.6459 43.4656 87.4775 43.4656 87.273V78.6129C43.4656 78.3964 43.5258 78.228 43.646 78.1077C43.7783 77.9754 43.9527 77.9092 44.1693 77.9092C44.3737 77.9092 44.5361 77.9754 44.6564 78.1077C44.7887 78.228 44.8548 78.3964 44.8548 78.6129V87.273C44.8548 87.4775 44.7887 87.6459 44.6564 87.7782C44.5361 87.9105 44.3737 87.9766 44.1693 87.9766ZM51.9273 92C51.7228 92 51.5544 91.9338 51.4221 91.8015C51.2898 91.6692 51.2237 91.5068 51.2237 91.3144V86.6235C51.2237 85.8778 51.0793 85.2643 50.7907 84.7832C50.514 84.3021 50.1291 83.9413 49.636 83.7007C49.1548 83.4601 48.6076 83.3399 47.9941 83.3399C47.4048 83.3399 46.8695 83.4541 46.3884 83.6826C45.9193 83.9112 45.5465 84.2239 45.2698 84.6208C44.9932 85.0178 44.8548 85.4688 44.8548 85.974H43.8625C43.8866 85.2162 44.0911 84.5426 44.476 83.9533C44.8609 83.3519 45.372 82.8828 46.0095 82.546C46.647 82.1972 47.3567 82.0228 48.1385 82.0228C48.9925 82.0228 49.7562 82.2032 50.4298 82.564C51.1034 82.9129 51.6326 83.4301 52.0175 84.1157C52.4144 84.8013 52.6129 85.6372 52.6129 86.6235V91.3144C52.6129 91.5068 52.5467 91.6692 52.4144 91.8015C52.2821 91.9338 52.1197 92 51.9273 92ZM44.1693 92C43.9527 92 43.7783 91.9399 43.646 91.8196C43.5258 91.6873 43.4656 91.5189 43.4656 91.3144V82.8347C43.4656 82.6182 43.5258 82.4498 43.646 82.3295C43.7783 82.1972 43.9527 82.131 44.1693 82.131C44.3737 82.131 44.5361 82.1972 44.6564 82.3295C44.7887 82.4498 44.8548 82.6182 44.8548 82.8347V91.3144C44.8548 91.5189 44.7887 91.6873 44.6564 91.8196C44.5361 91.9399 44.3737 92 44.1693 92ZM60.4387 92C59.8012 92 59.2299 91.8496 58.7247 91.5489C58.2316 91.2482 57.8407 90.8393 57.552 90.3221C57.2633 89.7929 57.119 89.1915 57.119 88.5179V79.6954C57.119 79.4909 57.1791 79.3225 57.2994 79.1902C57.4317 79.0579 57.6001 78.9917 57.8046 78.9917C58.0091 78.9917 58.1775 79.0579 58.3098 79.1902C58.4421 79.3225 58.5082 79.4909 58.5082 79.6954V88.5179C58.5082 89.1313 58.6887 89.6365 59.0495 90.0334C59.4103 90.4183 59.8734 90.6108 60.4387 90.6108H60.9259C61.1183 90.6108 61.2747 90.6769 61.395 90.8092C61.5152 90.9415 61.5754 91.1099 61.5754 91.3144C61.5754 91.5189 61.5032 91.6873 61.3589 91.8196C61.2145 91.9399 61.0341 92 60.8176 92H60.4387ZM55.9463 83.7007C55.7659 83.7007 55.6155 83.6466 55.4952 83.5383C55.375 83.418 55.3148 83.2737 55.3148 83.1053C55.3148 82.9249 55.375 82.7806 55.4952 82.6723C55.6155 82.552 55.7659 82.4919 55.9463 82.4919H60.547C60.7274 82.4919 60.8777 82.552 60.998 82.6723C61.1183 82.7806 61.1784 82.9249 61.1784 83.1053C61.1784 83.2737 61.1183 83.418 60.998 83.5383C60.8777 83.6466 60.7274 83.7007 60.547 83.7007H55.9463ZM81.6251 92.1804C80.8553 92.1804 80.1396 92.0722 79.4781 91.8557C78.8286 91.6271 78.2632 91.3084 77.7821 90.8994C77.301 90.4905 76.9341 90.0154 76.6816 89.4741C76.5853 89.2817 76.5793 89.1073 76.6635 88.9509C76.7597 88.7825 76.9161 88.6682 77.1326 88.6081C77.301 88.56 77.4634 88.578 77.6197 88.6622C77.7881 88.7464 77.9144 88.8727 77.9986 89.0411C78.179 89.3899 78.4437 89.7026 78.7925 89.9793C79.1413 90.2559 79.5562 90.4724 80.0374 90.6288C80.5185 90.7731 81.0477 90.8453 81.6251 90.8453C82.2625 90.8453 82.8279 90.7431 83.321 90.5386C83.8141 90.3221 84.199 90.0154 84.4757 89.6185C84.7644 89.2095 84.9087 88.7164 84.9087 88.139C84.9087 87.4053 84.6381 86.7738 84.0968 86.2446C83.5555 85.7154 82.7076 85.3786 81.5529 85.2343C80.1456 85.0659 79.0451 84.6329 78.2512 83.9352C77.4574 83.2256 77.0604 82.3596 77.0604 81.3372C77.0604 80.6035 77.2529 79.966 77.6378 79.4247C78.0347 78.8835 78.576 78.4685 79.2616 78.1799C79.9472 77.8792 80.735 77.7288 81.6251 77.7288C82.2866 77.7288 82.888 77.8371 83.4293 78.0536C83.9705 78.258 84.4396 78.5347 84.8365 78.8835C85.2455 79.2203 85.5762 79.5931 85.8288 80.0021C85.9491 80.1945 85.9852 80.381 85.9371 80.5614C85.901 80.7418 85.7988 80.8801 85.6304 80.9764C85.45 81.0606 85.2635 81.0726 85.0711 81.0124C84.8907 80.9523 84.7523 80.838 84.6561 80.6696C84.4757 80.393 84.2472 80.1344 83.9705 79.8938C83.7059 79.6413 83.3811 79.4428 82.9962 79.2985C82.6114 79.1541 82.1483 79.0759 81.607 79.0639C80.6568 79.0639 79.893 79.2684 79.3157 79.6773C78.7383 80.0743 78.4497 80.6576 78.4497 81.4274C78.4497 81.8364 78.5579 82.2152 78.7744 82.564C78.9909 82.9008 79.3458 83.1955 79.8389 83.4481C80.3441 83.6887 81.0176 83.8691 81.8596 83.9894C83.3631 84.2059 84.4757 84.6689 85.1974 85.3786C85.9311 86.0762 86.2979 86.9903 86.2979 88.121C86.2979 88.7705 86.1776 89.3478 85.9371 89.853C85.7086 90.3582 85.3778 90.7852 84.9448 91.134C84.5238 91.4708 84.0246 91.7294 83.4473 91.9098C82.882 92.0902 82.2746 92.1804 81.6251 92.1804ZM103.295 92C103.091 92 102.923 91.9399 102.79 91.8196C102.658 91.6873 102.592 91.5189 102.592 91.3144V86.1183C102.592 85.2643 102.369 84.5908 101.924 84.0976C101.479 83.5924 100.908 83.3399 100.21 83.3399C99.4645 83.3399 98.8511 83.5924 98.37 84.0976C97.9009 84.5908 97.6723 85.2523 97.6844 86.0822H96.4395C96.4515 85.2764 96.6259 84.5667 96.9627 83.9533C97.2995 83.3399 97.7626 82.8647 98.3519 82.528C98.9413 82.1912 99.6088 82.0228 100.355 82.0228C101.064 82.0228 101.69 82.1912 102.231 82.528C102.784 82.8647 103.211 83.3399 103.512 83.9533C103.825 84.5667 103.981 85.2884 103.981 86.1183V91.3144C103.981 91.5189 103.915 91.6873 103.783 91.8196C103.662 91.9399 103.5 92 103.295 92ZM90.6661 92C90.4495 92 90.2751 91.9399 90.1428 91.8196C90.0226 91.6873 89.9624 91.5189 89.9624 91.3144V82.8347C89.9624 82.6302 90.0226 82.4618 90.1428 82.3295C90.2751 82.1972 90.4495 82.131 90.6661 82.131C90.8705 82.131 91.0329 82.1972 91.1532 82.3295C91.2855 82.4618 91.3516 82.6302 91.3516 82.8347V91.3144C91.3516 91.5189 91.2855 91.6873 91.1532 91.8196C91.0329 91.9399 90.8705 92 90.6661 92ZM96.9988 92C96.7943 92 96.6259 91.9399 96.4936 91.8196C96.3613 91.6873 96.2951 91.5189 96.2951 91.3144V86.1183C96.2951 85.2643 96.0726 84.5908 95.6276 84.0976C95.1826 83.5924 94.6112 83.3399 93.9136 83.3399C93.1679 83.3399 92.5544 83.5864 92.0733 84.0796C91.5922 84.5607 91.3516 85.1922 91.3516 85.974H90.3593C90.3834 85.2042 90.5518 84.5246 90.8645 83.9352C91.1893 83.3338 91.6283 82.8647 92.1816 82.528C92.7349 82.1912 93.3603 82.0228 94.0579 82.0228C94.7676 82.0228 95.393 82.1912 95.9343 82.528C96.4876 82.8647 96.9146 83.3399 97.2153 83.9533C97.528 84.5667 97.6844 85.2884 97.6844 86.1183V91.3144C97.6844 91.5189 97.6182 91.6873 97.4859 91.8196C97.3656 91.9399 97.2033 92 96.9988 92ZM108.947 92C108.731 92 108.556 91.9399 108.424 91.8196C108.304 91.6873 108.244 91.5129 108.244 91.2964V82.8347C108.244 82.6182 108.304 82.4498 108.424 82.3295C108.556 82.1972 108.731 82.131 108.947 82.131C109.152 82.131 109.314 82.1972 109.434 82.3295C109.567 82.4498 109.633 82.6182 109.633 82.8347V91.2964C109.633 91.5129 109.567 91.6873 109.434 91.8196C109.314 91.9399 109.152 92 108.947 92ZM108.929 80.2547C108.665 80.2547 108.436 80.1585 108.244 79.966C108.051 79.7736 107.955 79.539 107.955 79.2624C107.955 78.9617 108.051 78.7271 108.244 78.5587C108.448 78.3783 108.683 78.2881 108.947 78.2881C109.2 78.2881 109.422 78.3783 109.615 78.5587C109.819 78.7271 109.922 78.9617 109.922 79.2624C109.922 79.539 109.825 79.7736 109.633 79.966C109.44 80.1585 109.206 80.2547 108.929 80.2547ZM116.201 92C115.72 92 115.287 91.8677 114.902 91.6031C114.529 91.3385 114.235 90.9716 114.018 90.5025C113.814 90.0334 113.712 89.4922 113.712 88.8787V78.5948C113.712 78.3903 113.772 78.228 113.892 78.1077C114.024 77.9754 114.193 77.9092 114.397 77.9092C114.602 77.9092 114.764 77.9754 114.884 78.1077C115.017 78.228 115.083 78.3903 115.083 78.5948V88.8787C115.083 89.3959 115.185 89.8169 115.389 90.1417C115.606 90.4664 115.877 90.6288 116.201 90.6288H116.652C116.833 90.6288 116.977 90.695 117.085 90.8273C117.194 90.9475 117.248 91.1099 117.248 91.3144C117.248 91.5189 117.17 91.6873 117.013 91.8196C116.869 91.9399 116.676 92 116.436 92H116.201ZM123.995 92.0902C123.02 92.0902 122.154 91.8797 121.397 91.4587C120.651 91.0257 120.061 90.4303 119.628 89.6726C119.207 88.9148 118.997 88.0488 118.997 87.0745C118.997 86.0882 119.195 85.2222 119.592 84.4765C120.001 83.7187 120.561 83.1233 121.27 82.6903C121.98 82.2573 122.798 82.0408 123.724 82.0408C124.638 82.0408 125.432 82.2513 126.106 82.6723C126.791 83.0813 127.32 83.6526 127.693 84.3863C128.066 85.12 128.253 85.9559 128.253 86.8941C128.253 87.0866 128.192 87.2429 128.072 87.3632C127.952 87.4715 127.795 87.5256 127.603 87.5256H119.935V86.3709H127.747L126.972 86.9302C126.984 86.2326 126.857 85.6071 126.593 85.0538C126.328 84.5006 125.949 84.0675 125.456 83.7548C124.975 83.4421 124.398 83.2857 123.724 83.2857C123.038 83.2857 122.437 83.4481 121.92 83.7729C121.403 84.0976 121 84.5487 120.711 85.126C120.434 85.6913 120.296 86.3408 120.296 87.0745C120.296 87.8082 120.452 88.4578 120.765 89.0231C121.09 89.5884 121.529 90.0334 122.082 90.3582C122.635 90.6829 123.273 90.8453 123.995 90.8453C124.428 90.8453 124.861 90.7731 125.294 90.6288C125.739 90.4724 126.094 90.28 126.358 90.0515C126.49 89.9432 126.641 89.8891 126.809 89.8891C126.978 89.8771 127.122 89.9192 127.242 90.0154C127.399 90.1597 127.477 90.3161 127.477 90.4845C127.489 90.6529 127.423 90.7972 127.278 90.9175C126.881 91.2543 126.376 91.5369 125.763 91.7654C125.149 91.982 124.56 92.0902 123.995 92.0902Z" fill="white"/>
<path d="M79.0734 111.82C79.1726 111.82 79.2606 111.859 79.3373 111.935L80.0544 112.713C79.6575 113.205 79.1681 113.582 78.5863 113.843C78.0089 114.105 77.3143 114.236 76.5024 114.236C75.7762 114.236 75.1222 114.112 74.5404 113.864C73.963 113.615 73.4691 113.27 73.0587 112.828C72.6482 112.386 72.3325 111.859 72.1115 111.245C71.895 110.632 71.7867 109.962 71.7867 109.236C71.7867 108.501 71.904 107.829 72.1385 107.22C72.3731 106.606 72.7023 106.078 73.1263 105.636C73.5548 105.194 74.0645 104.852 74.6554 104.608C75.2463 104.36 75.9003 104.236 76.6174 104.236C77.3301 104.236 77.9616 104.353 78.5118 104.588C79.0666 104.822 79.538 105.129 79.9259 105.508L79.317 106.354C79.2809 106.408 79.2335 106.455 79.1749 106.496C79.1208 106.536 79.0441 106.557 78.9449 106.557C78.8772 106.557 78.8073 106.539 78.7351 106.502C78.663 106.462 78.584 106.414 78.4983 106.36C78.4126 106.302 78.3134 106.239 78.2006 106.171C78.0879 106.103 77.9571 106.042 77.8082 105.988C77.6594 105.93 77.4857 105.882 77.2873 105.846C77.0933 105.806 76.8678 105.785 76.6107 105.785C76.1732 105.785 75.7717 105.864 75.4064 106.022C75.0455 106.175 74.7343 106.401 74.4727 106.699C74.2111 106.992 74.0081 107.353 73.8638 107.781C73.7195 108.205 73.6473 108.69 73.6473 109.236C73.6473 109.786 73.724 110.275 73.8773 110.704C74.0352 111.132 74.2472 111.493 74.5133 111.786C74.7794 112.08 75.0929 112.305 75.4537 112.463C75.8146 112.616 76.2025 112.693 76.6174 112.693C76.8655 112.693 77.0888 112.68 77.2873 112.652C77.4902 112.625 77.6752 112.583 77.842 112.524C78.0134 112.465 78.1736 112.391 78.3224 112.301C78.4758 112.206 78.6269 112.091 78.7757 111.956C78.8208 111.915 78.8682 111.883 78.9178 111.861C78.9674 111.834 79.0193 111.82 79.0734 111.82ZM89.6027 112.625V114.127H83.8721V104.344H85.6921V112.625H89.6027ZM95.2999 114.127H93.4731V104.344H95.2999V114.127ZM108.309 104.344V114.127H107.375C107.231 114.127 107.109 114.105 107.01 114.06C106.915 114.01 106.822 113.929 106.732 113.816L101.624 107.294C101.651 107.592 101.665 107.867 101.665 108.119V114.127H100.061V104.344H101.015C101.092 104.344 101.157 104.349 101.211 104.358C101.27 104.362 101.32 104.376 101.36 104.398C101.405 104.416 101.448 104.446 101.489 104.486C101.529 104.522 101.575 104.572 101.624 104.635L106.753 111.184C106.739 111.026 106.728 110.871 106.719 110.717C106.71 110.564 106.705 110.422 106.705 110.291V104.344H108.309ZM114.885 114.127H113.058V104.344H114.885V114.127ZM126.365 111.82C126.464 111.82 126.552 111.859 126.629 111.935L127.346 112.713C126.949 113.205 126.46 113.582 125.878 113.843C125.3 114.105 124.606 114.236 123.794 114.236C123.068 114.236 122.414 114.112 121.832 113.864C121.254 113.615 120.761 113.27 120.35 112.828C119.94 112.386 119.624 111.859 119.403 111.245C119.186 110.632 119.078 109.962 119.078 109.236C119.078 108.501 119.195 107.829 119.43 107.22C119.664 106.606 119.994 106.078 120.418 105.636C120.846 105.194 121.356 104.852 121.947 104.608C122.538 104.36 123.192 104.236 123.909 104.236C124.622 104.236 125.253 104.353 125.803 104.588C126.358 104.822 126.829 105.129 127.217 105.508L126.608 106.354C126.572 106.408 126.525 106.455 126.466 106.496C126.412 106.536 126.336 106.557 126.236 106.557C126.169 106.557 126.099 106.539 126.027 106.502C125.954 106.462 125.875 106.414 125.79 106.36C125.704 106.302 125.605 106.239 125.492 106.171C125.379 106.103 125.248 106.042 125.1 105.988C124.951 105.93 124.777 105.882 124.579 105.846C124.385 105.806 124.159 105.785 123.902 105.785C123.465 105.785 123.063 105.864 122.698 106.022C122.337 106.175 122.026 106.401 121.764 106.699C121.503 106.992 121.3 107.353 121.155 107.781C121.011 108.205 120.939 108.69 120.939 109.236C120.939 109.786 121.015 110.275 121.169 110.704C121.327 111.132 121.539 111.493 121.805 111.786C122.071 112.08 122.384 112.305 122.745 112.463C123.106 112.616 123.494 112.693 123.909 112.693C124.157 112.693 124.38 112.68 124.579 112.652C124.782 112.625 124.967 112.583 125.133 112.524C125.305 112.465 125.465 112.391 125.614 112.301C125.767 112.206 125.918 112.091 126.067 111.956C126.112 111.915 126.16 111.883 126.209 111.861C126.259 111.834 126.311 111.82 126.365 111.82Z" fill="white"/>
<rect x="2.1571" y="111.913" width="60.3998" height="1.07857" fill="white"/>
<path d="M73.9173 3.00491C73.8353 3.02542 73.7533 3.04593 73.6712 3.06643C67.6731 4.88125 61.9211 5.06582 56.2305 2.11289C50.5707 -0.778515 42.1118 -1.3322 38.3899 4.85049C37.0365 7.09594 36.4828 9.74128 36.1752 12.3559C35.0679 21.4915 36.2367 31.8267 38.2976 40.7778C39.7126 46.7759 42.4809 54.7119 48.0792 58.0647C49.4634 58.8952 51.2475 59.3874 52.6932 58.6799C53.7082 58.157 54.3542 57.1419 54.8156 56.0961C56.4458 52.3126 58.0146 38.5015 64.9047 41.5468C66.535 42.2542 67.6423 43.823 68.2268 45.484C69.4264 49.0521 68.9035 52.9586 70.5953 56.4037C71.1182 57.4495 71.8257 58.5261 72.933 58.926C73.7635 59.2336 74.6863 59.0798 75.5168 58.8029C79.208 57.4803 82.0994 53.3585 83.7912 50.0057C89.574 38.5015 91.6656 25.1519 89.7585 12.4174C89.1433 8.32634 87.6054 4.26606 83.5451 2.54352C80.5306 1.25161 77.0548 2.05136 73.9173 3.00491Z" fill="#F9FFF9"/>
<path d="M50.6015 50.4978C50.4169 51.2361 49.4634 51.4821 49.002 50.867C47.0334 48.4369 45.3416 44.4689 44.1727 39.4244C41.958 29.9196 41.2506 20.5687 42.1426 13.0941C42.3579 11.4638 42.6963 9.40294 43.5575 7.95723C43.8344 7.49584 44.6956 6.05013 47.8331 6.05013C49.6479 6.05013 51.7088 6.57304 53.4314 7.46507C57.2148 9.43369 61.3058 10.418 65.5507 10.418C68.6882 10.418 71.9179 9.92584 75.4245 8.84925L75.6398 8.78773C77.0548 8.3571 78.6851 7.89571 80.0077 7.89571C80.4999 7.89571 80.8998 7.95723 81.2074 8.11103C81.6687 8.29559 83.1452 8.91077 83.7912 13.3094C85.6367 25.5517 83.4528 38.5631 77.3009 49.329C77.0548 49.7596 76.8087 50.1902 76.3781 50.4363C74.5017 51.6052 74.6248 48.56 74.5633 47.6372C74.5222 46.94 74.43 46.2427 74.2864 45.5455C74.0404 44.1921 73.6405 42.8694 73.0253 41.6083C71.8256 39.1475 69.857 37.1174 67.3347 36.01C65.9198 35.3948 64.4741 35.0872 63.0284 35.0872C54.3849 35.0872 52.201 44.5612 50.6015 50.4978Z" fill="#F0F5F0"/>
<path d="M101.909 17.8003C101.17 16.4161 99.6016 15.3088 97.7252 14.8474C95.2644 14.263 92.7114 14.5398 90.0968 14.9397C90.1583 15.5959 90.2096 16.2623 90.2506 16.939C92.7422 16.5699 95.1106 16.2931 97.2331 16.816C98.5557 17.1236 99.6631 17.8618 100.124 18.7539C100.401 19.246 100.432 19.7382 100.248 20.2611C99.9707 21.0916 99.2017 21.9221 97.9713 22.7219C95.6028 24.3214 92.9575 25.521 90.2506 26.5668C88.8049 27.1513 87.3285 27.6742 85.852 28.1663C79.1772 30.4425 71.6718 32.1035 62.9668 33.2417C55.1231 34.2875 46.2336 35.4256 37.4978 34.8104C37.3748 34.7899 37.2415 34.7796 37.0979 34.7796C35.4369 34.6258 33.5913 34.4105 31.9611 33.7953C30.2078 33.1494 28.8851 32.1343 28.3314 30.9655C27.9623 30.1965 27.9316 29.489 28.2392 28.7815C28.7621 27.5511 30.5461 25.7363 35.8368 23.7677C35.8163 23.0705 35.7958 22.3733 35.7753 21.676C30.4846 23.5216 27.4087 25.5825 26.3936 27.9818C25.8707 29.2429 25.9014 30.5348 26.5166 31.8575C27.3164 33.4877 28.9774 34.8412 31.2536 35.7024C33.2838 36.4407 35.4677 36.6867 37.3748 36.8098C37.3953 36.8098 37.4261 36.8098 37.4671 36.8098C39.2101 36.9328 40.9429 36.9943 42.6654 36.9943C49.8017 36.9943 56.8764 36.0715 63.2437 35.241C72.0717 34.1029 79.7001 32.4111 86.5287 30.0734C87.6668 29.6735 88.8664 29.2429 90.0353 28.8123C93.1728 27.6434 96.3103 26.2592 99.0787 24.4136C100.709 23.3371 101.693 22.1989 102.155 20.9378C102.524 19.892 102.431 18.7846 101.909 17.8003Z" fill="#4378FB"/>
<path d="M101.847 12.1098C101.109 10.7256 99.54 9.61825 97.6637 9.15685C95.0799 8.54166 91.8809 8.91079 89.0818 9.34142L89.5739 11.31C92.1577 10.9102 94.9569 10.5718 97.2023 11.1255C98.4942 11.4331 99.6016 12.1713 100.094 13.0633C100.34 13.5555 100.401 14.0476 100.217 14.5706C99.9092 15.4011 99.1402 16.2316 97.9098 17.0621C95.6028 18.6001 93.019 19.7997 90.3737 20.8148C88.8664 21.43 87.3285 21.9529 85.8212 22.4758C79.1156 24.752 71.6103 26.413 62.936 27.5511C55.0616 28.5969 46.172 29.7351 37.4671 29.1199C37.0569 29.0789 36.6365 29.0378 36.2059 28.9968C34.791 28.8738 33.2837 28.6277 31.8996 28.1048C30.1463 27.4589 28.8236 26.4438 28.2699 25.2749C27.9316 24.5059 27.9008 23.7984 28.1776 23.091C28.7006 21.8606 30.4846 20.0458 35.7138 18.1079C35.7343 17.3902 35.765 16.6725 35.806 15.9547C30.4539 17.8003 27.3779 19.892 26.3321 22.2912C25.8091 23.5524 25.8399 24.8443 26.4551 26.1669C27.2549 27.7972 28.9466 29.1506 31.1921 30.0119C32.9454 30.6271 34.791 30.9039 36.4827 31.0577C36.7698 31.0782 37.0467 31.0987 37.3133 31.1192C39.0768 31.2423 40.8404 31.3038 42.6039 31.3038C49.7709 31.3038 56.8149 30.381 63.1821 29.5505C72.0101 28.4124 79.6385 26.7206 86.4672 24.3829C87.7591 23.9215 89.051 23.4601 90.3737 22.9679C93.3881 21.8298 96.3718 20.5072 99.0171 18.7231C100.647 17.6465 101.662 16.5084 102.093 15.2473C102.462 14.2014 102.401 13.0941 101.847 12.1098Z" fill="#00ADEF"/>
<path d="M97.6945 11.8329L101.416 12.5404L97.5099 13.2171L96.9255 17.0313L96.1565 13.2787L92.4346 12.5404L96.095 11.6484L96.9255 8.04951L97.6945 11.8329Z" fill="#F9FFF9"/>
<path d="M101.386 18.5385L104 19.0615L101.263 19.5229L100.863 22.1989L100.309 19.5536L97.6945 19.0307L100.278 18.4155L100.863 15.8932L101.386 18.5385Z" fill="#F9FFF9"/>
</svg>
