<svg width="24" height="25" viewBox="0 0 24 25" fill="none" xmlns="http://www.w3.org/2000/svg">
<g clip-path="url(#clip0_51_16630)">
<path d="M11.7708 0.00012207C7.26623 0.00012207 3.60156 3.7433 3.60156 8.34383C3.60156 12.7722 11.0136 23.1185 11.3292 23.5567L11.6238 23.966C11.6407 23.9897 11.6628 24.0089 11.6884 24.0221C11.7139 24.0354 11.7421 24.0423 11.7708 24.0423C11.7996 24.0423 11.828 24.0355 11.8537 24.0222C11.8794 24.009 11.9016 23.9897 11.9187 23.966L12.213 23.5567C12.5288 23.1185 19.9407 12.7722 19.9407 8.34383C19.9407 3.7433 16.2755 0.00012207 11.7708 0.00012207ZM11.7708 5.35513C13.3848 5.35513 14.6972 6.69555 14.6972 8.34383C14.6972 9.99126 13.3847 11.3325 11.7708 11.3325C10.1577 11.3325 8.84435 9.99126 8.84435 8.34383C8.84435 6.69555 10.1577 5.35513 11.7708 5.35513Z" fill="white"/>
</g>
<defs>
<clipPath id="clip0_51_16630">
<rect width="23.5413" height="24.0422" fill="white"/>
</clipPath>
</defs>
</svg>
