<svg width="181" height="45" viewBox="0 0 181 45" fill="none" xmlns="http://www.w3.org/2000/svg">
<path d="M70.556 20.2109C70.3593 20.2109 70.1937 20.1592 70.0591 20.0557C69.9349 19.9418 69.8728 19.7917 69.8728 19.6054V8.6897C69.8728 8.51372 69.9297 8.3688 70.0436 8.25493C70.1575 8.14106 70.3024 8.08413 70.4784 8.08413H74.2515C74.8726 8.08413 75.4316 8.2187 75.9284 8.48784C76.4357 8.74663 76.8342 9.10376 77.124 9.55922C77.4242 10.0147 77.5743 10.5426 77.5743 11.143C77.5743 11.702 77.4242 12.1989 77.124 12.6336C76.8238 13.0684 76.4305 13.3996 75.944 13.6274C76.6375 13.8137 77.1965 14.1656 77.6209 14.6832C78.0453 15.1905 78.2575 15.8374 78.2575 16.6241C78.2575 17.328 78.0971 17.9491 77.7762 18.4874C77.4553 19.0257 77.0102 19.4501 76.4408 19.7606C75.8819 20.0608 75.2401 20.2109 74.5155 20.2109H70.556ZM71.0839 19.0464H74.5155C75.0123 19.0464 75.4523 18.9481 75.8353 18.7514C76.2183 18.5547 76.5185 18.2752 76.7359 17.9129C76.9532 17.5506 77.0619 17.121 77.0619 16.6241C77.0619 16.1583 76.9532 15.7546 76.7359 15.413C76.5185 15.0611 76.2183 14.7919 75.8353 14.6056C75.4523 14.4089 75.0123 14.3106 74.5155 14.3106H71.0839V19.0464ZM71.0839 13.146H74.2515C74.8726 13.146 75.385 12.97 75.7887 12.6181C76.1924 12.2661 76.3943 11.7744 76.3943 11.143C76.3943 10.5219 76.1924 10.0509 75.7887 9.73002C75.385 9.40913 74.8726 9.24868 74.2515 9.24868H71.0839V13.146ZM81.7871 14.9782C81.8181 14.3364 81.9838 13.7619 82.2839 13.2547C82.5945 12.7475 82.993 12.349 83.4795 12.0591C83.9764 11.7693 84.525 11.6244 85.1254 11.6244C85.6016 11.6244 85.9691 11.6916 86.2279 11.8262C86.4867 11.9608 86.585 12.1575 86.5229 12.4162C86.4815 12.5715 86.409 12.675 86.3055 12.7268C86.2123 12.7785 86.0933 12.7992 85.9484 12.7889C85.8138 12.7785 85.6585 12.7682 85.4826 12.7578C84.9029 12.7061 84.3853 12.7682 83.9298 12.9442C83.4847 13.1098 83.1276 13.3686 82.8585 13.7205C82.5997 14.0725 82.4703 14.4917 82.4703 14.9782H81.7871ZM81.8802 20.2109C81.6939 20.2109 81.549 20.1592 81.4455 20.0557C81.342 19.9521 81.2902 19.8072 81.2902 19.6209V12.3076C81.2902 12.1212 81.342 11.9763 81.4455 11.8728C81.549 11.7693 81.6939 11.7175 81.8802 11.7175C82.0666 11.7175 82.2115 11.7693 82.315 11.8728C82.4185 11.9763 82.4703 12.1212 82.4703 12.3076V19.6209C82.4703 19.8072 82.4185 19.9521 82.315 20.0557C82.2115 20.1592 82.0666 20.2109 81.8802 20.2109ZM90.0322 20.2109C89.8459 20.2109 89.6958 20.1592 89.5819 20.0557C89.4784 19.9418 89.4266 19.7917 89.4266 19.6054V12.3231C89.4266 12.1368 89.4784 11.9918 89.5819 11.8883C89.6958 11.7744 89.8459 11.7175 90.0322 11.7175C90.2082 11.7175 90.3479 11.7744 90.4514 11.8883C90.5653 11.9918 90.6222 12.1368 90.6222 12.3231V19.6054C90.6222 19.7917 90.5653 19.9418 90.4514 20.0557C90.3479 20.1592 90.2082 20.2109 90.0322 20.2109ZM90.0167 10.1027C89.7889 10.1027 89.5922 10.0199 89.4266 9.85424C89.261 9.68862 89.1782 9.48676 89.1782 9.24868C89.1782 8.98989 89.261 8.78803 89.4266 8.64311C89.6026 8.48784 89.8044 8.4102 90.0322 8.4102C90.2496 8.4102 90.4411 8.48784 90.6067 8.64311C90.7827 8.78803 90.8707 8.98989 90.8707 9.24868C90.8707 9.48676 90.7878 9.68862 90.6222 9.85424C90.4566 10.0199 90.2547 10.1027 90.0167 10.1027ZM98.185 20.2886C97.3672 20.2886 96.6426 20.1074 96.0112 19.7451C95.3797 19.3725 94.8828 18.8601 94.5205 18.2079C94.1686 17.5558 93.9926 16.8105 93.9926 15.972C93.9926 15.1232 94.1789 14.3727 94.5516 13.7205C94.9242 13.0684 95.4366 12.5612 96.0888 12.1989C96.7409 11.8262 97.4811 11.6399 98.3092 11.6399C99.1477 11.6399 99.8878 11.8262 100.53 12.1989C101.182 12.5612 101.689 13.0684 102.051 13.7205C102.424 14.3727 102.615 15.1232 102.626 15.972L101.927 16.3446C101.927 17.1107 101.767 17.7939 101.446 18.3942C101.125 18.9843 100.68 19.4501 100.11 19.7917C99.5514 20.1229 98.9096 20.2886 98.185 20.2886ZM98.3402 23.5648C97.5225 23.5648 96.803 23.4096 96.182 23.099C95.5609 22.7988 95.0485 22.3848 94.6448 21.8568C94.5309 21.7326 94.4791 21.598 94.4895 21.4531C94.5102 21.3082 94.5878 21.1892 94.7224 21.096C94.857 21.0028 95.0071 20.9718 95.1727 21.0028C95.3383 21.0339 95.4677 21.1115 95.5609 21.2357C95.8611 21.6084 96.2441 21.9086 96.7099 22.1363C97.186 22.3641 97.7347 22.4779 98.3558 22.4779C98.9355 22.4779 99.4582 22.3382 99.924 22.0587C100.39 21.7792 100.757 21.3858 101.026 20.8786C101.306 20.3714 101.446 19.7762 101.446 19.093V16.7328L101.896 15.8322L102.626 15.972V19.1396C102.626 19.978 102.439 20.7285 102.067 21.391C101.694 22.0639 101.187 22.5918 100.545 22.9748C99.9033 23.3682 99.1684 23.5648 98.3402 23.5648ZM98.3092 19.2017C98.9199 19.2017 99.4582 19.0671 99.924 18.798C100.4 18.5185 100.773 18.1355 101.042 17.6489C101.311 17.1624 101.446 16.6034 101.446 15.972C101.446 15.3405 101.311 14.7816 101.042 14.295C100.773 13.7982 100.4 13.4152 99.924 13.146C99.4582 12.8665 98.9199 12.7268 98.3092 12.7268C97.6984 12.7268 97.155 12.8665 96.6788 13.146C96.2027 13.4152 95.83 13.7982 95.5609 14.295C95.2917 14.7816 95.1572 15.3405 95.1572 15.972C95.1572 16.6034 95.2917 17.1624 95.5609 17.6489C95.83 18.1355 96.2027 18.5185 96.6788 18.798C97.155 19.0671 97.6984 19.2017 98.3092 19.2017ZM106.333 16.7484C106.147 16.7484 105.997 16.6914 105.883 16.5776C105.779 16.4637 105.727 16.3188 105.727 16.1428V8.6897C105.727 8.50337 105.779 8.35845 105.883 8.25493C105.997 8.14106 106.147 8.08413 106.333 8.08413C106.509 8.08413 106.649 8.14106 106.752 8.25493C106.866 8.35845 106.923 8.50337 106.923 8.6897V16.1428C106.923 16.3188 106.866 16.4637 106.752 16.5776C106.649 16.6914 106.509 16.7484 106.333 16.7484ZM113.01 20.2109C112.834 20.2109 112.689 20.154 112.575 20.0401C112.461 19.9263 112.404 19.7865 112.404 19.6209V15.5838C112.404 14.942 112.28 14.4141 112.032 14C111.793 13.586 111.462 13.2754 111.038 13.0684C110.624 12.8614 110.153 12.7578 109.625 12.7578C109.118 12.7578 108.657 12.8562 108.243 13.0529C107.839 13.2495 107.518 13.5187 107.28 13.8603C107.042 14.2019 106.923 14.5901 106.923 15.0248H106.069C106.09 14.3727 106.266 13.793 106.597 13.2858C106.928 12.7682 107.368 12.3645 107.917 12.0746C108.465 11.7744 109.076 11.6244 109.749 11.6244C110.484 11.6244 111.141 11.7796 111.721 12.0902C112.301 12.3904 112.756 12.8355 113.087 13.4255C113.429 14.0156 113.6 14.735 113.6 15.5838V19.6209C113.6 19.7865 113.543 19.9263 113.429 20.0401C113.315 20.154 113.175 20.2109 113.01 20.2109ZM106.333 20.2109C106.147 20.2109 105.997 20.1592 105.883 20.0557C105.779 19.9418 105.727 19.7969 105.727 19.6209V12.3231C105.727 12.1368 105.779 11.9918 105.883 11.8883C105.997 11.7744 106.147 11.7175 106.333 11.7175C106.509 11.7175 106.649 11.7744 106.752 11.8883C106.866 11.9918 106.923 12.1368 106.923 12.3231V19.6209C106.923 19.7969 106.866 19.9418 106.752 20.0557C106.649 20.1592 106.509 20.2109 106.333 20.2109ZM120.335 20.2109C119.786 20.2109 119.295 20.0815 118.86 19.8228C118.435 19.564 118.099 19.212 117.851 18.7669C117.602 18.3114 117.478 17.7939 117.478 17.2142V9.62133C117.478 9.44536 117.53 9.30043 117.633 9.18657C117.747 9.0727 117.892 9.01577 118.068 9.01577C118.244 9.01577 118.389 9.0727 118.503 9.18657C118.617 9.30043 118.673 9.44536 118.673 9.62133V17.2142C118.673 17.7421 118.829 18.1769 119.139 18.5185C119.45 18.8497 119.848 19.0153 120.335 19.0153H120.754C120.92 19.0153 121.054 19.0723 121.158 19.1861C121.261 19.3 121.313 19.4449 121.313 19.6209C121.313 19.7969 121.251 19.9418 121.127 20.0557C121.003 20.1592 120.847 20.2109 120.661 20.2109H120.335ZM116.469 13.0684C116.313 13.0684 116.184 13.0218 116.08 12.9286C115.977 12.8251 115.925 12.7009 115.925 12.556C115.925 12.4007 115.977 12.2765 116.08 12.1833C116.184 12.0798 116.313 12.0281 116.469 12.0281H120.428C120.583 12.0281 120.713 12.0798 120.816 12.1833C120.92 12.2765 120.971 12.4007 120.971 12.556C120.971 12.7009 120.92 12.8251 120.816 12.9286C120.713 13.0218 120.583 13.0684 120.428 13.0684H116.469ZM138.568 20.3662C137.906 20.3662 137.29 20.273 136.721 20.0867C136.162 19.89 135.675 19.6157 135.261 19.2638C134.847 18.9118 134.531 18.5029 134.314 18.0371C134.231 17.8715 134.226 17.7214 134.298 17.5868C134.381 17.4419 134.516 17.3436 134.702 17.2918C134.847 17.2504 134.987 17.2659 135.121 17.3384C135.266 17.4109 135.375 17.5195 135.447 17.6645C135.603 17.9647 135.83 18.2338 136.13 18.4719C136.431 18.71 136.788 18.8963 137.202 19.0309C137.616 19.1551 138.071 19.2172 138.568 19.2172C139.117 19.2172 139.603 19.1292 140.028 18.9532C140.452 18.7669 140.784 18.5029 141.022 18.1613C141.27 17.8094 141.394 17.385 141.394 16.8881C141.394 16.2567 141.161 15.7132 140.696 15.2577C140.23 14.8023 139.5 14.5124 138.506 14.3882C137.295 14.2433 136.348 13.8706 135.665 13.2702C134.981 12.6595 134.64 11.9142 134.64 11.0343C134.64 10.4029 134.805 9.85424 135.137 9.38842C135.478 8.9226 135.944 8.56548 136.534 8.31704C137.124 8.05825 137.802 7.92886 138.568 7.92886C139.138 7.92886 139.655 8.02202 140.121 8.20835C140.587 8.38433 140.991 8.62241 141.332 8.9226C141.684 9.21245 141.969 9.53334 142.186 9.8853C142.29 10.0509 142.321 10.2114 142.279 10.3666C142.248 10.5219 142.16 10.641 142.015 10.7238C141.86 10.7962 141.7 10.8066 141.534 10.7548C141.379 10.7031 141.26 10.6047 141.177 10.4598C141.022 10.2217 140.825 9.99916 140.587 9.79213C140.359 9.57475 140.08 9.40395 139.748 9.27973C139.417 9.15551 139.019 9.08823 138.553 9.07788C137.735 9.07788 137.078 9.25385 136.581 9.6058C136.084 9.94741 135.835 10.4495 135.835 11.112C135.835 11.4639 135.929 11.79 136.115 12.0902C136.301 12.38 136.607 12.6336 137.031 12.851C137.466 13.058 138.046 13.2133 138.77 13.3168C140.064 13.5032 141.022 13.9017 141.643 14.5124C142.274 15.1128 142.59 15.8995 142.59 16.8726C142.59 17.4316 142.486 17.9284 142.279 18.3632C142.083 18.798 141.798 19.1654 141.425 19.4656C141.063 19.7555 140.633 19.978 140.137 20.1333C139.65 20.2886 139.127 20.3662 138.568 20.3662ZM157.218 20.2109C157.042 20.2109 156.897 20.1592 156.783 20.0557C156.67 19.9418 156.613 19.7969 156.613 19.6209V15.149C156.613 14.4141 156.421 13.8344 156.038 13.41C155.655 12.9752 155.163 12.7578 154.563 12.7578C153.921 12.7578 153.393 12.9752 152.979 13.41C152.576 13.8344 152.379 14.4037 152.389 15.118H151.318C151.328 14.4244 151.478 13.8137 151.768 13.2858C152.058 12.7578 152.457 12.349 152.964 12.0591C153.471 11.7693 154.045 11.6244 154.687 11.6244C155.298 11.6244 155.836 11.7693 156.302 12.0591C156.778 12.349 157.146 12.7578 157.405 13.2858C157.674 13.8137 157.808 14.4348 157.808 15.149V19.6209C157.808 19.7969 157.751 19.9418 157.637 20.0557C157.534 20.1592 157.394 20.2109 157.218 20.2109ZM146.349 20.2109C146.163 20.2109 146.013 20.1592 145.899 20.0557C145.795 19.9418 145.744 19.7969 145.744 19.6209V12.3231C145.744 12.1471 145.795 12.0022 145.899 11.8883C146.013 11.7744 146.163 11.7175 146.349 11.7175C146.525 11.7175 146.665 11.7744 146.768 11.8883C146.882 12.0022 146.939 12.1471 146.939 12.3231V19.6209C146.939 19.7969 146.882 19.9418 146.768 20.0557C146.665 20.1592 146.525 20.2109 146.349 20.2109ZM151.799 20.2109C151.623 20.2109 151.478 20.1592 151.364 20.0557C151.251 19.9418 151.194 19.7969 151.194 19.6209V15.149C151.194 14.4141 151.002 13.8344 150.619 13.41C150.236 12.9752 149.744 12.7578 149.144 12.7578C148.502 12.7578 147.974 12.97 147.56 13.3945C147.146 13.8085 146.939 14.352 146.939 15.0248H146.085C146.106 14.3623 146.251 13.7775 146.52 13.2702C146.799 12.7527 147.177 12.349 147.653 12.0591C148.13 11.7693 148.668 11.6244 149.268 11.6244C149.879 11.6244 150.417 11.7693 150.883 12.0591C151.359 12.349 151.727 12.7578 151.986 13.2858C152.255 13.8137 152.389 14.4348 152.389 15.149V19.6209C152.389 19.7969 152.332 19.9418 152.218 20.0557C152.115 20.1592 151.975 20.2109 151.799 20.2109ZM162.082 20.2109C161.896 20.2109 161.746 20.1592 161.632 20.0557C161.529 19.9418 161.477 19.7917 161.477 19.6054V12.3231C161.477 12.1368 161.529 11.9918 161.632 11.8883C161.746 11.7744 161.896 11.7175 162.082 11.7175C162.258 11.7175 162.398 11.7744 162.502 11.8883C162.615 11.9918 162.672 12.1368 162.672 12.3231V19.6054C162.672 19.7917 162.615 19.9418 162.502 20.0557C162.398 20.1592 162.258 20.2109 162.082 20.2109ZM162.067 10.1027C161.839 10.1027 161.642 10.0199 161.477 9.85424C161.311 9.68862 161.228 9.48676 161.228 9.24868C161.228 8.98989 161.311 8.78803 161.477 8.64311C161.653 8.48784 161.855 8.4102 162.082 8.4102C162.3 8.4102 162.491 8.48784 162.657 8.64311C162.833 8.78803 162.921 8.98989 162.921 9.24868C162.921 9.48676 162.838 9.68862 162.672 9.85424C162.507 10.0199 162.305 10.1027 162.067 10.1027ZM168.325 20.2109C167.911 20.2109 167.539 20.0971 167.207 19.8693C166.886 19.6416 166.633 19.3259 166.447 18.9222C166.271 18.5185 166.183 18.0526 166.183 17.5247V8.67417C166.183 8.49819 166.234 8.35845 166.338 8.25493C166.452 8.14106 166.597 8.08413 166.773 8.08413C166.949 8.08413 167.088 8.14106 167.192 8.25493C167.306 8.35845 167.363 8.49819 167.363 8.67417V17.5247C167.363 17.9698 167.451 18.3321 167.627 18.6116C167.813 18.8911 168.046 19.0309 168.325 19.0309H168.714C168.869 19.0309 168.993 19.0878 169.086 19.2017C169.179 19.3052 169.226 19.4449 169.226 19.6209C169.226 19.7969 169.159 19.9418 169.024 20.0557C168.9 20.1592 168.734 20.2109 168.527 20.2109H168.325ZM175.032 20.2886C174.194 20.2886 173.449 20.1074 172.796 19.7451C172.155 19.3725 171.647 18.8601 171.275 18.2079C170.912 17.5558 170.731 16.8105 170.731 15.972C170.731 15.1232 170.902 14.3779 171.244 13.7361C171.596 13.0839 172.077 12.5715 172.688 12.1989C173.299 11.8262 174.002 11.6399 174.799 11.6399C175.586 11.6399 176.269 11.821 176.849 12.1833C177.439 12.5353 177.895 13.027 178.215 13.6584C178.536 14.2899 178.697 15.0093 178.697 15.8167C178.697 15.9823 178.645 16.1169 178.542 16.2204C178.438 16.3136 178.303 16.3602 178.138 16.3602H171.539V15.3664H178.262L177.594 15.8478C177.605 15.2474 177.496 14.7091 177.268 14.2329C177.041 13.7568 176.715 13.3841 176.29 13.115C175.876 12.8458 175.379 12.7113 174.799 12.7113C174.209 12.7113 173.692 12.851 173.247 13.1305C172.802 13.41 172.455 13.7982 172.206 14.295C171.968 14.7816 171.849 15.3405 171.849 15.972C171.849 16.6034 171.984 17.1624 172.253 17.6489C172.533 18.1355 172.91 18.5185 173.387 18.798C173.863 19.0774 174.411 19.2172 175.032 19.2172C175.405 19.2172 175.778 19.1551 176.15 19.0309C176.533 18.8963 176.839 18.7307 177.066 18.534C177.18 18.4408 177.31 18.3942 177.455 18.3942C177.6 18.3839 177.724 18.4201 177.827 18.5029C177.962 18.6272 178.029 18.7617 178.029 18.9066C178.04 19.0516 177.983 19.1758 177.858 19.2793C177.517 19.5691 177.082 19.8124 176.554 20.0091C176.026 20.1954 175.519 20.2886 175.032 20.2886Z" fill="white"/>
<path d="M136.372 37.8504C136.458 37.8504 136.533 37.8834 136.599 37.9494L137.216 38.619C136.875 39.0421 136.454 39.3662 135.953 39.5914C135.456 39.8165 134.858 39.9291 134.16 39.9291C133.535 39.9291 132.972 39.8224 132.471 39.6089C131.974 39.3954 131.549 39.0984 131.196 38.718C130.842 38.3376 130.571 37.8834 130.381 37.3555C130.194 36.8275 130.101 36.2511 130.101 35.6261C130.101 34.9934 130.202 34.415 130.404 33.8909C130.606 33.363 130.889 32.9088 131.254 32.5284C131.623 32.148 132.061 31.853 132.57 31.6434C133.078 31.4299 133.641 31.3231 134.258 31.3231C134.872 31.3231 135.415 31.424 135.889 31.6259C136.366 31.8277 136.772 32.0917 137.106 32.4178L136.582 33.1456C136.551 33.1922 136.51 33.233 136.459 33.2679C136.413 33.3028 136.347 33.3203 136.262 33.3203C136.203 33.3203 136.143 33.3048 136.081 33.2737C136.019 33.2388 135.951 33.198 135.877 33.1514C135.803 33.101 135.718 33.0466 135.621 32.9884C135.524 32.9302 135.411 32.8778 135.283 32.8312C135.155 32.7807 135.006 32.74 134.835 32.7089C134.668 32.674 134.474 32.6565 134.253 32.6565C133.876 32.6565 133.531 32.7244 133.216 32.8603C132.906 32.9923 132.638 33.1864 132.413 33.4426C132.188 33.6949 132.013 34.0054 131.889 34.3742C131.764 34.7391 131.702 35.1564 131.702 35.6261C131.702 36.0997 131.768 36.5209 131.9 36.8896C132.036 37.2584 132.219 37.569 132.448 37.8213C132.677 38.0736 132.946 38.2677 133.257 38.4035C133.568 38.5355 133.901 38.6015 134.258 38.6015C134.472 38.6015 134.664 38.5899 134.835 38.5666C135.01 38.5433 135.169 38.5064 135.312 38.456C135.46 38.4055 135.598 38.3414 135.726 38.2638C135.858 38.1823 135.988 38.0833 136.116 37.9668C136.155 37.9319 136.196 37.9047 136.238 37.8853C136.281 37.862 136.326 37.8504 136.372 37.8504ZM145.434 38.5433V39.8359H140.502V31.4163H142.068V38.5433H145.434ZM150.337 39.8359H148.765V31.4163H150.337V39.8359ZM161.533 31.4163V39.8359H160.729C160.605 39.8359 160.5 39.8165 160.415 39.7777C160.333 39.735 160.254 39.6651 160.176 39.5681L155.78 33.955C155.803 34.2112 155.815 34.448 155.815 34.6654V39.8359H154.435V31.4163H155.256C155.322 31.4163 155.378 31.4202 155.425 31.4279C155.475 31.4318 155.518 31.4434 155.553 31.4629C155.591 31.4784 155.628 31.5036 155.663 31.5385C155.698 31.5696 155.737 31.6123 155.78 31.6666L160.193 37.303C160.182 37.1672 160.172 37.0333 160.164 36.9013C160.157 36.7693 160.153 36.647 160.153 36.5344V31.4163H161.533ZM167.192 39.8359H165.62V31.4163H167.192V39.8359ZM177.072 37.8504C177.158 37.8504 177.233 37.8834 177.299 37.9494L177.916 38.619C177.575 39.0421 177.154 39.3662 176.653 39.5914C176.156 39.8165 175.558 39.9291 174.859 39.9291C174.235 39.9291 173.672 39.8224 173.171 39.6089C172.674 39.3954 172.249 39.0984 171.896 38.718C171.542 38.3376 171.271 37.8834 171.081 37.3555C170.894 36.8275 170.801 36.2511 170.801 35.6261C170.801 34.9934 170.902 34.415 171.104 33.8909C171.306 33.363 171.589 32.9088 171.954 32.5284C172.323 32.148 172.761 31.853 173.27 31.6434C173.778 31.4299 174.341 31.3231 174.958 31.3231C175.572 31.3231 176.115 31.424 176.589 31.6259C177.066 31.8277 177.472 32.0917 177.806 32.4178L177.282 33.1456C177.251 33.1922 177.21 33.233 177.159 33.2679C177.113 33.3028 177.047 33.3203 176.961 33.3203C176.903 33.3203 176.843 33.3048 176.781 33.2737C176.719 33.2388 176.651 33.198 176.577 33.1514C176.503 33.101 176.418 33.0466 176.321 32.9884C176.224 32.9302 176.111 32.8778 175.983 32.8312C175.855 32.7807 175.706 32.74 175.535 32.7089C175.368 32.674 175.174 32.6565 174.953 32.6565C174.576 32.6565 174.231 32.7244 173.916 32.8603C173.606 32.9923 173.338 33.1864 173.113 33.4426C172.888 33.6949 172.713 34.0054 172.589 34.3742C172.464 34.7391 172.402 35.1564 172.402 35.6261C172.402 36.0997 172.468 36.5209 172.6 36.8896C172.736 37.2584 172.919 37.569 173.148 37.8213C173.377 38.0736 173.646 38.2677 173.957 38.4035C174.267 38.5355 174.601 38.6015 174.958 38.6015C175.172 38.6015 175.364 38.5899 175.535 38.5666C175.71 38.5433 175.869 38.5064 176.012 38.456C176.16 38.4055 176.298 38.3414 176.426 38.2638C176.558 38.1823 176.688 38.0833 176.816 37.9668C176.855 37.9319 176.895 37.9047 176.938 37.8853C176.981 37.862 177.026 37.8504 177.072 37.8504Z" fill="white"/>
<rect x="70.1763" y="37.1191" width="51.9814" height="0.928239" fill="white"/>
<path d="M35.9257 2.22983C35.8643 2.24519 35.8028 2.26056 35.7414 2.27592C31.2476 3.63558 26.9382 3.77386 22.6748 1.56153C18.4345 -0.604709 12.0971 -1.01953 9.30866 3.61254C8.29468 5.29483 7.87986 7.27671 7.64941 9.23554C6.81979 16.0799 7.69551 23.8231 9.23953 30.5292C10.2996 35.023 12.3737 40.9686 16.5679 43.4806C17.6049 44.1028 18.9415 44.4715 20.0246 43.9415C20.7851 43.5497 21.2691 42.7892 21.6147 42.0057C22.8361 39.1711 24.0114 28.8239 29.1735 31.1053C30.3949 31.6354 31.2245 32.8107 31.6624 34.0551C32.5612 36.7283 32.1694 39.6551 33.4369 42.2361C33.8286 43.0197 34.3587 43.8262 35.1883 44.1258C35.8105 44.3563 36.5019 44.241 37.1241 44.0336C39.8895 43.0427 42.0557 39.9547 43.3232 37.4427C47.6557 28.8239 49.2228 18.8223 47.794 9.28164C47.3331 6.21664 46.1808 3.17468 43.1389 1.88415C40.8804 0.916259 38.2763 1.51543 35.9257 2.22983Z" fill="#F9FFF9"/>
<path d="M18.4577 37.8119C18.3194 38.365 17.605 38.5493 17.2593 38.0884C15.7845 36.2679 14.517 33.295 13.6413 29.5156C11.982 22.3947 11.452 15.389 12.1203 9.78904C12.2816 8.56765 12.5351 7.02364 13.1804 5.94052C13.3878 5.59484 14.033 4.51172 16.3836 4.51172C17.7433 4.51172 19.2873 4.90348 20.5778 5.57179C23.4124 7.04667 26.4774 7.78413 29.6576 7.78413C32.0082 7.78413 34.4279 7.4154 37.0551 6.60882L37.2164 6.56272C38.2765 6.24009 39.4979 5.89442 40.4888 5.89442C40.8575 5.89442 41.1571 5.94052 41.3876 6.05574C41.7332 6.19401 42.8394 6.65491 43.3233 9.95036C44.706 19.1223 43.0698 28.8704 38.4608 36.9362C38.2765 37.2588 38.0921 37.5814 37.7695 37.7658C36.3637 38.6415 36.4559 36.36 36.4098 35.6687C36.3791 35.1463 36.31 34.624 36.2024 34.1016C36.018 33.0876 35.7185 32.0967 35.2576 31.1518C34.3588 29.3082 32.8839 27.7873 30.9942 26.9576C29.9341 26.4967 28.851 26.2663 27.7679 26.2663C21.2922 26.2663 19.656 33.3642 18.4577 37.8119Z" fill="#F0F5F0"/>
<path d="M56.897 13.3142C56.3439 12.2772 55.1686 11.4475 53.7628 11.1019C51.9192 10.664 50.0065 10.8714 48.0477 11.171C48.0937 11.6626 48.1322 12.1619 48.1629 12.6689C50.0295 12.3924 51.804 12.185 53.3941 12.5768C54.3851 12.8072 55.2147 13.3603 55.5604 14.0286C55.7678 14.3973 55.7908 14.766 55.6525 15.1578C55.4451 15.78 54.869 16.4022 53.9472 17.0014C52.1727 18.1998 50.1908 19.0985 48.1629 19.8821C47.0798 20.3199 45.9736 20.7117 44.8674 21.0804C39.8666 22.7857 34.2436 24.0302 27.7219 24.8828C21.8454 25.6664 15.1853 26.519 8.64054 26.0581C8.54836 26.0428 8.4485 26.0351 8.34096 26.0351C7.09652 25.9199 5.71381 25.7586 4.49242 25.2977C3.17885 24.8137 2.18792 24.0532 1.77311 23.1775C1.49656 22.6014 1.47352 22.0713 1.70397 21.5413C2.09574 20.6195 3.43236 19.2598 7.39612 17.7849C7.38075 17.2626 7.36539 16.7402 7.35002 16.2179C3.38627 17.6006 1.08176 19.1446 0.321268 20.9421C-0.0704991 21.887 -0.0474624 22.8549 0.41344 23.8458C1.01261 25.0672 2.25705 26.0812 3.96239 26.7264C5.48337 27.2795 7.11957 27.4639 8.54837 27.5561C8.56373 27.5561 8.58678 27.5561 8.6175 27.5561C9.92339 27.6483 11.2216 27.6943 12.5121 27.6943C17.8586 27.6943 23.159 27.003 27.9293 26.3808C34.5432 25.5281 40.2584 24.2606 45.3744 22.5092C46.2271 22.2096 47.1259 21.887 48.0016 21.5643C50.3522 20.6886 52.7028 19.6516 54.7768 18.2689C55.9982 17.4623 56.7357 16.6096 57.0813 15.6648C57.3579 14.8813 57.2887 14.0516 56.897 13.3142Z" fill="#4378FB"/>
<path d="M56.8508 9.05194C56.2977 8.01491 55.1224 7.18528 53.7167 6.8396C51.7809 6.3787 49.3842 6.65525 47.2871 6.97788L47.6558 8.45276C49.5916 8.15317 51.6887 7.89968 53.371 8.3145C54.3389 8.54495 55.1685 9.09803 55.5373 9.76633C55.7216 10.1351 55.7677 10.5038 55.6294 10.8955C55.399 11.5178 54.8229 12.14 53.9011 12.7622C52.1727 13.9145 50.2369 14.8132 48.255 15.5737C47.1258 16.0346 45.9735 16.4264 44.8443 16.8181C39.8205 18.5235 34.1975 19.7679 27.6988 20.6206C21.7992 21.4041 15.1392 22.2568 8.61745 21.7959C8.31018 21.7652 7.99522 21.7344 7.67259 21.7037C6.61251 21.6115 5.4833 21.4272 4.44627 21.0354C3.1327 20.5514 2.14177 19.791 1.72696 18.9152C1.47346 18.3391 1.45042 17.8091 1.65782 17.279C2.04959 16.3572 3.38621 14.9976 7.30387 13.5457C7.31924 13.008 7.34228 12.4703 7.373 11.9326C3.36316 13.3153 1.05865 14.8823 0.275119 16.6799C-0.116648 17.6247 -0.0935972 18.5926 0.367305 19.5835C0.966477 20.8049 2.23395 21.8189 3.91624 22.4642C5.22981 22.9251 6.61252 23.1325 7.88 23.2477C8.09509 23.2631 8.3025 23.2784 8.50222 23.2938C9.82347 23.386 11.1447 23.4321 12.466 23.4321C17.8355 23.4321 23.1128 22.7407 27.8831 22.1185C34.4971 21.2658 40.2123 19.9984 45.3283 18.2469C46.2962 17.9012 47.2641 17.5556 48.255 17.1869C50.5134 16.3342 52.7488 15.3433 54.7307 14.0066C55.9521 13.2001 56.7126 12.3474 57.0352 11.4025C57.3117 10.619 57.2656 9.78939 56.8508 9.05194Z" fill="#00ADEF"/>
<path d="M53.7397 8.84333L56.5281 9.37337L53.6014 9.88036L53.1635 12.738L52.5874 9.92646L49.799 9.37337L52.5413 8.70507L53.1635 6.00879L53.7397 8.84333Z" fill="#F9FFF9"/>
<path d="M56.505 13.8676L58.4639 14.2594L56.4128 14.6051L56.1133 16.61L55.6985 14.6281L53.7396 14.2363L55.6754 13.7754L56.1133 11.8857L56.505 13.8676Z" fill="#F9FFF9"/>
</svg>
