<svg width="47" height="47" viewBox="0 0 47 47" fill="none" xmlns="http://www.w3.org/2000/svg">
<g clip-path="url(#clip0_14_516)">
<path d="M45.1993 42.3636L34.3191 31.0477C37.1166 27.7221 38.6494 23.5379 38.6494 19.182C38.6494 9.00475 30.3692 0.724609 20.192 0.724609C10.0148 0.724609 1.73462 9.00475 1.73462 19.182C1.73462 29.3592 10.0148 37.6394 20.192 37.6394C24.0127 37.6394 27.6536 36.487 30.7665 34.2994L41.7293 45.7012C42.1876 46.1771 42.8039 46.4395 43.4643 46.4395C44.0895 46.4395 44.6825 46.2012 45.1327 45.7678C46.0893 44.8474 46.1198 43.321 45.1993 42.3636ZM20.192 5.53958C27.7146 5.53958 33.8344 11.6594 33.8344 19.182C33.8344 26.7046 27.7146 32.8244 20.192 32.8244C12.6694 32.8244 6.54959 26.7046 6.54959 19.182C6.54959 11.6594 12.6694 5.53958 20.192 5.53958Z" fill="white"/>
</g>
<defs>
<clipPath id="clip0_14_516">
<rect width="45.7149" height="45.7149" fill="white" transform="translate(0.94458 0.722656)"/>
</clipPath>
</defs>
</svg>
