<svg width="121" height="124" viewBox="0 0 121 124" fill="none" xmlns="http://www.w3.org/2000/svg">
<g clip-path="url(#clip0_106_11251)">
<path d="M18.6544 106.139H16.3339L16.3485 104.426H18.6544C19.2302 104.426 19.7158 104.296 20.1111 104.038C20.5064 103.774 20.8041 103.391 21.0042 102.889C21.2091 102.386 21.3116 101.778 21.3116 101.066V100.546C21.3116 99.9995 21.253 99.5188 21.1359 99.104C21.0237 98.6892 20.8553 98.3403 20.6308 98.0572C20.4063 97.7742 20.1306 97.5619 19.8037 97.4204C19.4767 97.274 19.1009 97.2008 18.6764 97.2008H16.29V95.4805H18.6764C19.3888 95.4805 20.0403 95.6025 20.6308 95.8465C21.2262 96.0857 21.7411 96.4297 22.1754 96.8787C22.6097 97.3277 22.944 97.8645 23.1782 98.4891C23.4174 99.1089 23.5369 99.7994 23.5369 100.561V101.066C23.5369 101.822 23.4174 102.513 23.1782 103.137C22.944 103.762 22.6097 104.299 22.1754 104.748C21.7459 105.192 21.2311 105.536 20.6308 105.78C20.0355 106.019 19.3766 106.139 18.6544 106.139ZM17.5783 95.4805V106.139H15.3823V95.4805H17.5783ZM32.2845 104.426V106.139H26.6114V104.426H32.2845ZM27.3288 95.4805V106.139H25.1327V95.4805H27.3288ZM31.5452 99.8214V101.49H26.6114V99.8214H31.5452ZM32.2772 95.4805V97.2008H26.6114V95.4805H32.2772ZM42.2399 95.4805V106.139H40.0439L35.7616 98.9942V106.139H33.5655V95.4805H35.7616L40.0512 102.632V95.4805H42.2399ZM48.6963 95.4805V106.139H46.5076V95.4805H48.6963ZM51.9757 95.4805V97.2008H43.2794V95.4805H51.9757ZM56.7704 97.3033L53.8716 106.139H51.5365L55.4967 95.4805H56.9827L56.7704 97.3033ZM59.1787 106.139L56.2726 97.3033L56.0384 95.4805H57.539L61.5212 106.139H59.1787ZM59.047 102.171V103.891H53.4178V102.171H59.047ZM69.3611 104.426V106.139H63.9954V104.426H69.3611ZM64.7055 95.4805V106.139H62.5094V95.4805H64.7055ZM80.5316 102.603H82.7203C82.6764 103.32 82.4788 103.957 82.1274 104.514C81.7809 105.07 81.2954 105.504 80.6707 105.817C80.0509 106.129 79.3043 106.285 78.4307 106.285C77.7475 106.285 77.1351 106.168 76.5934 105.934C76.0517 105.695 75.5881 105.353 75.2025 104.909C74.8219 104.465 74.5315 103.928 74.3314 103.298C74.1314 102.669 74.0313 101.964 74.0313 101.183V100.444C74.0313 99.6628 74.1338 98.9576 74.3388 98.3281C74.5486 97.6937 74.8463 97.1544 75.2318 96.7103C75.6222 96.2662 76.0883 95.9246 76.63 95.6855C77.1717 95.4464 77.7768 95.3268 78.4454 95.3268C79.3336 95.3268 80.0826 95.4879 80.6927 95.8099C81.3076 96.132 81.7834 96.5761 82.1201 97.1422C82.4617 97.7083 82.6667 98.3525 82.735 99.0747H80.5389C80.5145 98.6453 80.4291 98.2817 80.2827 97.984C80.1363 97.6815 79.9143 97.4545 79.6166 97.3033C79.3238 97.1471 78.9334 97.069 78.4454 97.069C78.0794 97.069 77.7597 97.1373 77.4864 97.274C77.2131 97.4106 76.9838 97.618 76.7983 97.8962C76.6129 98.1743 76.4738 98.5257 76.3811 98.9503C76.2932 99.37 76.2493 99.8629 76.2493 100.429V101.183C76.2493 101.734 76.2908 102.22 76.3738 102.64C76.4567 103.054 76.5836 103.406 76.7544 103.694C76.9301 103.977 77.1546 104.192 77.4279 104.338C77.706 104.479 78.0403 104.55 78.4307 104.55C78.8895 104.55 79.2677 104.477 79.5654 104.331C79.863 104.184 80.09 103.967 80.2461 103.679C80.4072 103.391 80.5023 103.032 80.5316 102.603ZM88.4959 97.3033L85.5972 106.139H83.262L87.2222 95.4805H88.7082L88.4959 97.3033ZM90.9043 106.139L87.9982 97.3033L87.7639 95.4805H89.2646L93.2467 106.139H90.9043ZM90.7725 102.171V103.891H85.1433V102.171H90.7725ZM94.2349 95.4805H98.2098C99.0248 95.4805 99.725 95.6025 100.311 95.8465C100.901 96.0905 101.355 96.4517 101.672 96.9299C101.989 97.4082 102.148 97.9962 102.148 98.6941C102.148 99.2651 102.05 99.7555 101.855 100.165C101.665 100.57 101.394 100.91 101.043 101.183C100.696 101.451 100.289 101.666 99.8202 101.827L99.1248 102.193H95.6697L95.655 100.48H98.2244C98.6099 100.48 98.9296 100.412 99.1834 100.275C99.4371 100.139 99.6274 99.9483 99.7543 99.7043C99.8861 99.4603 99.952 99.1772 99.952 98.8551C99.952 98.5135 99.8885 98.2183 99.7617 97.9694C99.6348 97.7205 99.442 97.5302 99.1834 97.3984C98.9247 97.2667 98.6002 97.2008 98.2098 97.2008H96.431V106.139H94.2349V95.4805ZM100.194 106.139L97.7632 101.388L100.084 101.373L102.543 106.036V106.139H100.194ZM110.991 104.426V106.139H105.318V104.426H110.991ZM106.035 95.4805V106.139H103.839V95.4805H106.035ZM110.251 99.8214V101.49H105.318V99.8214H110.251ZM110.983 95.4805V97.2008H105.318V95.4805H110.983Z" fill="white"/>
<path d="M46.8967 118.688H48.2632C48.2195 119.209 48.0738 119.674 47.826 120.082C47.5782 120.487 47.2302 120.806 46.782 121.039C46.3337 121.272 45.789 121.389 45.1476 121.389C44.6557 121.389 44.2129 121.301 43.8194 121.126C43.4258 120.948 43.0887 120.696 42.8081 120.372C42.5276 120.044 42.3126 119.649 42.1632 119.186C42.0174 118.723 41.9445 118.206 41.9445 117.633V116.972C41.9445 116.4 42.0192 115.882 42.1686 115.42C42.3217 114.957 42.5403 114.562 42.8245 114.234C43.1088 113.902 43.4495 113.649 43.8467 113.474C44.2475 113.299 44.6976 113.211 45.1968 113.211C45.8309 113.211 46.3665 113.328 46.8038 113.561C47.2411 113.794 47.58 114.117 47.8205 114.529C48.0647 114.941 48.2141 115.412 48.2687 115.944H46.9022C46.8658 115.602 46.7856 115.309 46.6617 115.064C46.5414 114.82 46.3629 114.634 46.126 114.507C45.8892 114.376 45.5794 114.31 45.1968 114.31C44.8834 114.31 44.6101 114.368 44.3769 114.485C44.1437 114.602 43.9487 114.773 43.792 114.999C43.6353 115.225 43.5169 115.504 43.4367 115.835C43.3602 116.163 43.322 116.538 43.322 116.961V117.633C43.322 118.034 43.3566 118.399 43.4258 118.727C43.4987 119.051 43.608 119.33 43.7538 119.563C43.9032 119.796 44.0927 119.977 44.3222 120.104C44.5518 120.232 44.8269 120.295 45.1476 120.295C45.5375 120.295 45.8527 120.233 46.0932 120.11C46.3374 119.986 46.5214 119.805 46.6453 119.568C46.7728 119.328 46.8567 119.035 46.8967 118.688ZM56.3976 120.192V121.279H52.4019V120.192H56.3976ZM52.7845 113.321V121.279H51.4126V113.321H52.7845ZM60.826 113.321V121.279H59.454V113.321H60.826ZM70.7477 113.321V121.279H69.3757L65.8064 115.578V121.279H64.4344V113.321H65.8064L69.3866 119.033V113.321H70.7477ZM75.75 113.321V121.279H74.378V113.321H75.75ZM84.0592 118.688H85.4257C85.382 119.209 85.2363 119.674 84.9885 120.082C84.7407 120.487 84.3927 120.806 83.9444 121.039C83.4962 121.272 82.9515 121.389 82.3101 121.389C81.8182 121.389 81.3754 121.301 80.9819 121.126C80.5883 120.948 80.2512 120.696 79.9706 120.372C79.69 120.044 79.4751 119.649 79.3256 119.186C79.1799 118.723 79.107 118.206 79.107 117.633V116.972C79.107 116.4 79.1817 115.882 79.3311 115.42C79.4842 114.957 79.7028 114.562 79.987 114.234C80.2713 113.902 80.612 113.649 81.0092 113.474C81.41 113.299 81.8601 113.211 82.3593 113.211C82.9934 113.211 83.529 113.328 83.9663 113.561C84.4036 113.794 84.7425 114.117 84.983 114.529C85.2271 114.941 85.3765 115.412 85.4312 115.944H84.0647C84.0283 115.602 83.9481 115.309 83.8242 115.064C83.7039 114.82 83.5254 114.634 83.2885 114.507C83.0517 114.376 82.7419 114.31 82.3593 114.31C82.0459 114.31 81.7726 114.368 81.5394 114.485C81.3062 114.602 81.1112 114.773 80.9545 114.999C80.7978 115.225 80.6794 115.504 80.5992 115.835C80.5227 116.163 80.4844 116.538 80.4844 116.961V117.633C80.4844 118.034 80.5191 118.399 80.5883 118.727C80.6612 119.051 80.7705 119.33 80.9163 119.563C81.0657 119.796 81.2552 119.977 81.4847 120.104C81.7143 120.232 81.9894 120.295 82.3101 120.295C82.7 120.295 83.0152 120.233 83.2557 120.11C83.4999 119.986 83.6839 119.805 83.8078 119.568C83.9353 119.328 84.0192 119.035 84.0592 118.688Z" fill="white"/>
<path d="M94.4538 2.67667C88.5804 0.209809 80.9057 2.95077 74.9931 6.08328C69.2371 9.13749 62.2672 9.13749 56.5112 6.08328C50.5986 2.95077 42.9239 0.209809 37.0505 2.67667C25.93 7.37544 23.5806 20.6495 30.0415 32.1615C36.4631 43.6735 37.2463 55.5771 38.6167 67.4806C38.8908 69.9083 39.2041 72.571 40.0655 74.8812C41.436 78.5228 45.6257 80.4806 49.1498 78.327C52.7522 76.1342 55.1799 71.9053 57.2161 68.3421C59.0564 65.1704 61.4058 60.0801 65.7522 60.0801C70.0985 60.0801 72.4479 65.1704 74.2883 68.3421C76.3244 71.9053 78.7521 76.1342 82.3545 78.327C85.8786 80.4806 90.0683 78.5228 91.4388 74.8812C92.3002 72.571 92.6135 69.9083 92.8876 67.4806C94.2581 55.5771 95.0412 43.6735 101.463 32.1615C107.924 20.6495 105.574 7.37544 94.4538 2.67667Z" fill="#4269F0"/>
<path d="M91.8706 0.95401C85.9971 -1.51285 78.3225 1.22811 72.4098 4.36063C66.6538 7.41483 59.684 7.41483 53.928 4.36063C48.0154 1.22811 40.3407 -1.51285 34.4672 0.95401C23.3468 5.65279 20.9974 18.9268 27.4582 30.4388C33.8799 41.9508 34.663 53.8544 36.0335 65.758C36.3076 68.1857 36.6208 70.8483 37.4823 73.1585C38.8527 76.8001 43.0425 78.7579 46.5666 76.6043C50.169 74.4115 52.5967 70.1826 54.6328 66.6194C56.4732 63.4477 58.8225 58.3574 63.1689 58.3574C67.5153 58.3574 69.8647 63.4477 71.705 66.6194C73.7412 70.1826 76.1689 74.4115 79.7713 76.6043C83.2953 78.7579 87.4851 76.8001 88.8555 73.1585C89.717 70.8483 90.0302 68.1857 90.3043 65.758C91.6748 53.8544 92.4579 41.9508 98.8796 30.4388C105.34 18.9268 102.991 5.65279 91.8706 0.95401Z" fill="#25EFFC"/>
<path d="M61.1327 47.8626C59.3706 47.8626 57.9219 46.4138 57.9219 44.6517V39.8355H53.1056C51.3436 39.8355 49.8948 38.3867 49.8948 36.6246V32.5524C49.8948 30.7903 51.3436 29.3415 53.1056 29.3415H57.9219V24.5253C57.9219 22.7632 59.3706 21.3145 61.1327 21.3145H65.205C66.967 21.3145 68.4158 22.7632 68.4158 24.5253V29.3415H73.232C74.9941 29.3415 76.4429 30.7903 76.4429 32.5524V36.6246C76.4429 38.3867 74.9941 39.8355 73.232 39.8355H68.4158V44.6517C68.4158 46.4138 66.967 47.8626 65.205 47.8626H61.1327Z" fill="#184CFF"/>
<path d="M73.2323 30.8689H66.8889V24.5255C66.8889 23.5858 66.1449 22.8418 65.2052 22.8418H61.1329C60.1932 22.8418 59.4492 23.5858 59.4492 24.5255V30.8689H53.1058C52.1661 30.8689 51.4221 31.6128 51.4221 32.5526V36.6249C51.4221 37.5646 52.1661 38.3086 53.1058 38.3086H59.4492V44.652C59.4492 45.5917 60.1932 46.3357 61.1329 46.3357H65.2052C66.1449 46.3357 66.8889 45.5917 66.8889 44.652V38.3086H73.2323C74.172 38.3086 74.916 37.5646 74.916 36.6249V32.5526C74.916 31.6128 74.172 30.8689 73.2323 30.8689Z" fill="#4269F0"/>
<path d="M41.4765 12.3486C44.9614 13.2884 48.6421 13.5624 52.2054 13.0926C55.7686 12.6227 59.1752 11.3697 62.4252 9.76427C64.0306 8.98114 65.5969 8.08055 67.2023 7.17995C67.9854 6.74923 68.7686 6.27934 69.5908 5.84862C70.374 5.4179 71.1963 4.9872 72.0185 4.59564C73.6631 3.77335 75.2685 2.95105 76.9523 2.20708C78.636 1.4631 80.398 0.836595 82.2384 0.5625L82.2775 0.679989C78.8709 2.01131 75.895 4.0866 72.7234 5.88779C69.5908 7.7673 66.3409 9.49017 62.9734 10.939C59.5668 12.3878 56.0035 13.5624 52.2837 13.8757C48.603 14.1498 44.8831 13.6408 41.3982 12.5052L41.4765 12.3486Z" fill="#E3F9FE"/>
</g>
<defs>
<clipPath id="clip0_106_11251">
<rect width="119.694" height="124" fill="white" transform="translate(0.652832)"/>
</clipPath>
</defs>
</svg>
