<svg width="119" height="128" viewBox="0 0 119 128" fill="none" xmlns="http://www.w3.org/2000/svg">
<g clip-path="url(#clip0_106_11263)">
<path d="M18.0323 110.427H15.7327L15.7472 108.729H18.0323C18.6029 108.729 19.0841 108.601 19.4758 108.345C19.8675 108.084 20.1625 107.704 20.3608 107.206C20.5639 106.708 20.6655 106.106 20.6655 105.4V104.885C20.6655 104.343 20.6074 103.867 20.4914 103.456C20.3801 103.045 20.2133 102.699 19.9908 102.418C19.7684 102.138 19.4952 101.927 19.1711 101.787C18.8471 101.642 18.4748 101.57 18.054 101.57H15.6892V99.8649H18.054C18.7601 99.8649 19.4057 99.9858 19.9908 100.228C20.5808 100.465 21.091 100.805 21.5214 101.25C21.9519 101.695 22.2831 102.227 22.5152 102.846C22.7522 103.46 22.8707 104.145 22.8707 104.899V105.4C22.8707 106.149 22.7522 106.834 22.5152 107.453C22.2831 108.072 21.9519 108.604 21.5214 109.048C21.0959 109.489 20.5857 109.83 19.9908 110.071C19.4009 110.308 18.748 110.427 18.0323 110.427ZM16.9659 99.8649V110.427H14.7897V99.8649H16.9659ZM31.5393 108.729V110.427H25.9174V108.729H31.5393ZM26.6283 99.8649V110.427H24.4521V99.8649H26.6283ZM30.8066 104.167V105.82H25.9174V104.167H30.8066ZM31.532 99.8649V101.57H25.9174V99.8649H31.532ZM41.4047 99.8649V110.427H39.2285L34.9849 103.347V110.427H32.8087V99.8649H34.9849L39.2358 106.952V99.8649H41.4047ZM47.8028 99.8649V110.427H45.6338V99.8649H47.8028ZM51.0526 99.8649V101.57H42.4348V99.8649H51.0526ZM55.804 101.671L52.9314 110.427H50.6174L54.5418 99.8649H56.0144L55.804 101.671ZM58.1906 110.427L55.3107 101.671L55.0786 99.8649H56.5657L60.5119 110.427H58.1906ZM58.06 106.495V108.2H52.4817V106.495H58.06ZM68.2809 108.729V110.427H62.9637V108.729H68.2809ZM63.6674 99.8649V110.427H61.4912V99.8649H63.6674ZM79.3506 106.923H81.5195C81.476 107.634 81.2802 108.265 80.932 108.816C80.5886 109.368 80.1074 109.798 79.4884 110.108C78.8742 110.417 78.1343 110.572 77.2687 110.572C76.5916 110.572 75.9847 110.456 75.4479 110.224C74.9111 109.987 74.4517 109.648 74.0697 109.208C73.6924 108.768 73.4047 108.236 73.2064 107.612C73.0081 106.988 72.909 106.29 72.909 105.516V104.783C72.909 104.009 73.0106 103.311 73.2137 102.687C73.4216 102.058 73.7166 101.524 74.0987 101.084C74.4856 100.643 74.9474 100.305 75.4842 100.068C76.021 99.831 76.6207 99.7126 77.2832 99.7126C78.1633 99.7126 78.9057 99.8721 79.5102 100.191C80.1195 100.51 80.591 100.951 80.9247 101.512C81.2632 102.073 81.4664 102.711 81.5341 103.427H79.3578C79.3337 103.001 79.249 102.641 79.104 102.346C78.9589 102.046 78.7388 101.821 78.4438 101.671C78.1537 101.516 77.7668 101.439 77.2832 101.439C76.9205 101.439 76.6037 101.507 76.3329 101.642C76.0621 101.778 75.8348 101.983 75.651 102.259C75.4673 102.534 75.3294 102.883 75.2376 103.303C75.1505 103.719 75.107 104.208 75.107 104.769V105.516C75.107 106.062 75.1481 106.543 75.2303 106.959C75.3125 107.37 75.4382 107.719 75.6075 108.004C75.7816 108.284 76.0041 108.497 76.2749 108.642C76.5505 108.783 76.8818 108.853 77.2687 108.853C77.7233 108.853 78.0981 108.78 78.3931 108.635C78.6881 108.49 78.9129 108.275 79.0677 107.989C79.2273 107.704 79.3216 107.349 79.3506 106.923ZM87.243 101.671L84.3704 110.427H82.0563L85.9808 99.8649H87.4533L87.243 101.671ZM89.6296 110.427L86.7497 101.671L86.5176 99.8649H88.0047L91.9508 110.427H89.6296ZM89.499 106.495V108.2H83.9206V106.495H89.499ZM92.9301 99.8649H96.8691C97.6767 99.8649 98.3707 99.9858 98.951 100.228C99.5361 100.469 99.9859 100.827 100.3 101.301C100.615 101.775 100.772 102.358 100.772 103.049C100.772 103.615 100.675 104.101 100.482 104.507C100.293 104.909 100.025 105.245 99.6764 105.516C99.333 105.782 98.9292 105.995 98.465 106.154L97.7758 106.517H94.3519L94.3374 104.819H96.8836C97.2656 104.819 97.5824 104.752 97.8339 104.616C98.0853 104.481 98.2739 104.292 98.3997 104.05C98.5303 103.809 98.5955 103.528 98.5955 103.209C98.5955 102.87 98.5327 102.578 98.4069 102.331C98.2812 102.085 98.0902 101.896 97.8339 101.765C97.5776 101.635 97.256 101.57 96.8691 101.57H95.1063V110.427H92.9301V99.8649ZM98.8349 110.427L96.4266 105.719L98.7261 105.704L101.163 110.325V110.427H98.8349ZM109.535 108.729V110.427H103.913V108.729H109.535ZM104.624 99.8649V110.427H102.447V99.8649H104.624ZM108.802 104.167V105.82H103.913V104.167H108.802ZM109.527 99.8649V101.57H103.913V99.8649H109.527Z" fill="white"/>
<path d="M46.2229 122.827H47.577C47.5337 123.343 47.3893 123.804 47.1437 124.208C46.8982 124.609 46.5533 124.925 46.1091 125.156C45.665 125.387 45.1251 125.503 44.4895 125.503C44.002 125.503 43.5633 125.416 43.1733 125.243C42.7833 125.066 42.4493 124.817 42.1712 124.495C41.8932 124.17 41.6801 123.779 41.532 123.32C41.3876 122.861 41.3154 122.349 41.3154 121.782V121.126C41.3154 120.559 41.3894 120.046 41.5375 119.588C41.6891 119.129 41.9058 118.737 42.1875 118.412C42.4691 118.084 42.8068 117.833 43.2004 117.66C43.5976 117.486 44.0436 117.4 44.5383 117.4C45.1666 117.4 45.6975 117.515 46.1308 117.746C46.5641 117.977 46.9 118.297 47.1383 118.705C47.3802 119.113 47.5283 119.581 47.5825 120.108H46.2283C46.1922 119.768 46.1127 119.478 45.99 119.236C45.8708 118.994 45.6939 118.81 45.4591 118.683C45.2244 118.553 44.9175 118.488 44.5383 118.488C44.2277 118.488 43.9569 118.546 43.7258 118.662C43.4947 118.777 43.3015 118.947 43.1462 119.171C42.9909 119.395 42.8736 119.671 42.7941 120C42.7183 120.325 42.6804 120.696 42.6804 121.115V121.782C42.6804 122.179 42.7147 122.54 42.7833 122.865C42.8555 123.186 42.9639 123.463 43.1083 123.694C43.2564 123.925 43.4441 124.104 43.6716 124.23C43.8991 124.356 44.1718 124.42 44.4895 124.42C44.8759 124.42 45.1883 124.358 45.4266 124.235C45.6686 124.113 45.8509 123.934 45.9737 123.699C46.1001 123.461 46.1832 123.17 46.2229 122.827ZM55.6379 124.317V125.395H51.6783V124.317H55.6379ZM52.0575 117.508V125.395H50.6979V117.508H52.0575ZM60.0263 117.508V125.395H58.6667V117.508H60.0263ZM69.8584 117.508V125.395H68.4988L64.9617 119.745V125.395H63.6021V117.508H64.9617L68.5096 123.168V117.508H69.8584ZM74.8155 117.508V125.395H73.4559V117.508H74.8155ZM83.0497 122.827H84.4039C84.3605 123.343 84.2161 123.804 83.9705 124.208C83.725 124.609 83.3801 124.925 82.936 125.156C82.4918 125.387 81.9519 125.503 81.3164 125.503C80.8289 125.503 80.3901 125.416 80.0001 125.243C79.6101 125.066 79.2761 124.817 78.998 124.495C78.72 124.17 78.5069 123.779 78.3589 123.32C78.2144 122.861 78.1422 122.349 78.1422 121.782V121.126C78.1422 120.559 78.2162 120.046 78.3643 119.588C78.516 119.129 78.7326 118.737 79.0143 118.412C79.296 118.084 79.6336 117.833 80.0272 117.66C80.4244 117.486 80.8704 117.4 81.3651 117.4C81.9935 117.4 82.5243 117.515 82.9576 117.746C83.391 117.977 83.7268 118.297 83.9651 118.705C84.2071 119.113 84.3551 119.581 84.4093 120.108H83.0551C83.019 119.768 82.9396 119.478 82.8168 119.236C82.6976 118.994 82.5207 118.81 82.286 118.683C82.0512 118.553 81.7443 118.488 81.3651 118.488C81.0546 118.488 80.7837 118.546 80.5526 118.662C80.3215 118.777 80.1283 118.947 79.973 119.171C79.8178 119.395 79.7004 119.671 79.621 120C79.5451 120.325 79.5072 120.696 79.5072 121.115V121.782C79.5072 122.179 79.5415 122.54 79.6101 122.865C79.6824 123.186 79.7907 123.463 79.9351 123.694C80.0832 123.925 80.271 124.104 80.4985 124.23C80.726 124.356 80.9986 124.42 81.3164 124.42C81.7028 124.42 82.0151 124.358 82.2535 124.235C82.4954 124.113 82.6778 123.934 82.8005 123.699C82.9269 123.461 83.01 123.17 83.0497 122.827Z" fill="white"/>
<path d="M60.1264 46.8747C58.3803 46.8747 56.9446 45.439 56.9446 43.6929V38.9201H52.1718C50.4257 38.9201 48.99 37.4844 48.99 35.7383V31.7028C48.99 29.9567 50.4257 28.521 52.1718 28.521H56.9446V23.7482C56.9446 22.0021 58.3803 20.5664 60.1264 20.5664H64.1619C65.908 20.5664 67.3437 22.0021 67.3437 23.7482V28.521H72.1165C73.8626 28.521 75.2983 29.9567 75.2983 31.7028V35.7383C75.2983 37.4844 73.8626 38.9201 72.1165 38.9201H67.3437V43.6929C67.3437 45.439 65.908 46.8747 64.1619 46.8747H60.1264Z" fill="#184CFF"/>
<path d="M72.1166 30.0347H65.8305V23.7486C65.8305 22.8173 65.0933 22.0801 64.162 22.0801H60.1265C59.1952 22.0801 58.458 22.8173 58.458 23.7486V30.0347H52.1719C51.2407 30.0347 50.5034 30.7719 50.5034 31.7032V35.7387C50.5034 36.6699 51.2407 37.4072 52.1719 37.4072H58.458V43.6932C58.458 44.6245 59.1952 45.3618 60.1265 45.3618H64.162C65.0933 45.3618 65.8305 44.6245 65.8305 43.6932V37.4072H72.1166C73.0478 37.4072 73.7851 36.6699 73.7851 35.7387V31.7032C73.7851 30.7719 73.0478 30.0347 72.1166 30.0347Z" fill="#4269F0"/>
<path d="M40.6484 11.6797C44.1019 12.6109 47.7493 12.8825 51.2804 12.4169C54.8114 11.9513 58.1873 10.7096 61.4079 9.11866C62.9988 8.3426 64.5509 7.45015 66.1418 6.55768C66.9179 6.13085 67.694 5.66521 68.5088 5.23838C69.2849 4.81155 70.0997 4.38473 70.9146 3.99671C72.5443 3.18185 74.1352 2.36698 75.8037 1.62972C77.4723 0.892469 79.2184 0.27162 81.0421 0L81.0809 0.116427C77.7051 1.43572 74.7561 3.49227 71.613 5.27719C68.5088 7.13973 65.2882 8.84704 61.9511 10.2827C58.5753 11.7184 55.0442 12.8825 51.358 13.193C47.7105 13.4646 44.0242 12.9601 40.5708 11.8349L40.6484 11.6797Z" fill="#E3F9FE"/>
<path d="M98.8236 20.432C98.8236 18.4012 98.5335 16.6606 97.6632 14.92C95.3424 10.2784 90.4107 7.6675 85.1889 7.08729C79.967 6.21699 74.4551 7.66748 70.3937 9.40809C66.6223 11.1487 62.2708 11.1487 58.4995 9.40809C54.4381 7.66748 48.9262 6.21699 43.4142 7.08729C36.1617 7.9576 29.7795 13.1794 30.0696 21.3023C30.3597 27.1043 33.5508 32.9063 35.2914 38.4182C37.3221 43.6401 39.3528 49.4421 38.4825 54.954C36.7419 65.6878 31.5201 86.5751 39.6429 89.7662C47.7658 92.9573 53.2777 81.3533 54.4381 69.7492C55.5985 58.1451 64.3015 59.0155 64.3015 59.0155C64.3015 59.0155 73.2947 58.1451 74.4551 69.7492C75.6155 81.3533 81.1274 92.9573 89.2503 89.7662C97.3731 86.5751 92.1513 65.6878 90.4107 54.954C89.2503 47.4114 93.0216 39.5786 95.9226 32.6162C97.3731 28.8449 98.8236 24.4934 98.8236 20.432Z" fill="#4269F0"/>
<path d="M95.4103 17.3138C95.4103 15.2831 95.1202 13.5425 94.2499 11.8019C91.9291 7.16024 86.9974 4.54933 81.7755 3.96913C76.5537 3.09882 71.0418 4.54932 66.9803 6.28993C63.209 8.03054 58.8575 8.03054 55.0862 6.28993C51.0248 4.54932 45.5128 3.09882 40.0009 3.96913C32.7484 4.83943 26.3661 10.0613 26.6562 18.1841C26.9464 23.9861 30.1375 29.7881 31.8781 35.3001C33.9088 40.5219 35.9395 46.3239 35.0692 51.8359C33.3286 62.5696 28.1067 83.4569 36.2296 86.648C44.3524 89.8391 49.8643 78.2351 51.0248 66.631C52.1852 55.027 60.8882 55.8973 60.8882 55.8973C60.8882 55.8973 69.8814 55.027 71.0418 66.631C72.2022 78.2351 77.7141 89.8391 85.8369 86.648C93.9598 83.4569 88.738 62.5696 86.9973 51.8359C85.8369 44.2932 89.6083 36.4605 92.5093 29.498C93.9598 25.7267 95.4103 21.3752 95.4103 17.3138Z" fill="#25EFFC"/>
<path d="M70.4613 26.8871C70.0744 26.6937 69.6876 26.597 69.3008 26.597C68.1404 26.3069 67.2701 26.597 66.1097 27.1772C66.1097 27.1772 64.079 23.1158 63.7889 22.8257C63.2087 22.2455 62.3384 21.9554 61.7582 22.2455C60.8879 22.2455 60.3077 23.1158 60.5978 23.9861C59.7275 22.8257 58.8572 21.6653 57.6968 20.795C56.5364 20.2148 55.0859 21.0851 55.0859 22.2455L53.6354 21.3752C53.3453 21.3752 52.7651 21.0851 52.7651 21.0851C51.8948 20.5049 50.1541 19.0544 47.8333 21.3752C45.8026 23.696 47.5432 25.4366 47.8333 26.0168C48.0267 26.4036 48.2201 26.6937 48.4135 26.8871L49.5739 28.3376C48.1234 28.6277 47.5432 30.0782 48.1234 30.9485C49.2838 32.399 51.3146 33.5594 51.3146 33.5594C51.3146 33.5594 48.9937 33.8496 49.864 36.1704C50.7344 37.6209 55.376 39.0714 55.376 39.0714C55.376 39.0714 53.3452 40.5219 55.376 43.4229C56.8265 45.7437 61.178 46.0338 63.7889 46.0338C69.0107 45.4536 73.0722 41.6823 73.3623 36.1704C73.6524 33.8496 73.3623 30.6584 71.9118 28.3376C71.525 27.7574 71.0415 27.2739 70.4613 26.8871Z" fill="#4269F0"/>
<path d="M73.3619 45.1631C71.6213 42.8422 69.5906 41.1016 67.5599 39.0709C65.4325 36.9435 63.4018 35.0095 61.4678 33.2689C59.9206 31.9151 58.3733 30.658 56.8261 29.4976L48.9934 22.5352C53.3449 24.856 57.6964 28.0471 62.6282 32.1085C66.6896 35.8798 70.751 39.9412 73.652 44.873C73.652 45.0664 73.5553 45.1631 73.3619 45.1631Z" fill="white"/>
<path fill-rule="evenodd" clip-rule="evenodd" d="M49.2843 22.2452C53.3457 24.566 57.6972 27.7571 62.629 32.1086C66.6904 35.88 70.7518 39.9414 73.6528 44.8731C73.6528 45.0665 73.6528 45.1632 73.6528 45.1632C73.4594 45.3566 73.3627 45.4533 73.3627 45.4533C73.3627 45.4533 73.266 45.3566 73.0726 45.1632C71.6221 43.1325 69.5914 41.1018 67.5607 39.0711C65.4333 37.1371 63.4026 35.2997 61.4686 33.5591C59.9214 32.2053 58.3741 30.8515 56.8269 29.4977C56.2467 28.9175 55.6665 28.434 55.0863 28.0472L48.7041 22.5353C48.7041 22.5353 48.7041 22.4386 48.7041 22.2452C48.8975 22.0518 48.9942 21.9551 48.9942 21.9551C48.9942 21.9551 49.0909 22.0518 49.2843 22.2452ZM55.3764 27.7571C57.4071 29.4977 59.728 31.5284 61.7587 33.269C63.6927 35.0097 65.7234 36.847 67.8508 38.781C69.5914 40.8117 71.6221 42.8424 73.3627 45.1632C70.7518 40.2315 66.6904 36.17 62.3389 32.3987C58.2774 28.6274 53.9259 25.1462 48.9942 22.2452L55.3764 27.7571Z" fill="#3EC1CB"/>
</g>
<defs>
<clipPath id="clip0_106_11263">
<rect width="118.613" height="128" fill="white" transform="translate(0.193359)"/>
</clipPath>
</defs>
</svg>
