<svg width="129" height="134" viewBox="0 0 129 134" fill="none" xmlns="http://www.w3.org/2000/svg">
<g clip-path="url(#clip0_106_11239)">
<path d="M19.401 114.303H16.9001L16.9159 112.457H19.401C20.0216 112.457 20.5449 112.317 20.9709 112.039C21.397 111.755 21.7178 111.342 21.9334 110.8C22.1543 110.258 22.2648 109.603 22.2648 108.835V108.275C22.2648 107.686 22.2017 107.168 22.0754 106.721C21.9545 106.274 21.773 105.898 21.5311 105.593C21.2891 105.288 20.992 105.059 20.6396 104.907C20.2872 104.749 19.8822 104.67 19.4246 104.67H16.8527V102.816H19.4246C20.1925 102.816 20.8947 102.947 21.5311 103.21C22.1727 103.468 22.7276 103.839 23.1957 104.323C23.6638 104.807 24.0241 105.385 24.2765 106.058C24.5342 106.726 24.6631 107.471 24.6631 108.291V108.835C24.6631 109.651 24.5342 110.395 24.2765 111.068C24.0241 111.741 23.6638 112.32 23.1957 112.804C22.7329 113.282 22.178 113.653 21.5311 113.916C20.8894 114.174 20.1794 114.303 19.401 114.303ZM18.2413 102.816V114.303H15.8745V102.816H18.2413ZM34.0908 112.457V114.303H27.9766V112.457H34.0908ZM28.7497 102.816V114.303H26.383V102.816H28.7497ZM33.2939 107.494V109.293H27.9766V107.494H33.2939ZM34.0829 102.816V104.67H27.9766V102.816H34.0829ZM44.8201 102.816V114.303H42.4534L37.8381 106.603V114.303H35.4714V102.816H37.8381L42.4612 110.524V102.816H44.8201ZM51.7785 102.816V114.303H49.4196V102.816H51.7785ZM55.3128 102.816V104.67H45.9404V102.816H55.3128ZM60.4803 104.78L57.3562 114.303H54.8395L59.1076 102.816H60.7091L60.4803 104.78ZM63.0759 114.303L59.9438 104.78L59.6914 102.816H61.3087L65.6004 114.303H63.0759ZM62.9339 110.027V111.881H56.867V110.027H62.9339ZM74.0498 112.457V114.303H68.267V112.457H74.0498ZM69.0322 102.816V114.303H66.6655V102.816H69.0322ZM86.0888 110.492H88.4477C88.4003 111.265 88.1873 111.952 87.8087 112.551C87.4352 113.151 86.9119 113.619 86.2387 113.956C85.5707 114.292 84.766 114.461 83.8246 114.461C83.0883 114.461 82.4282 114.334 81.8444 114.082C81.2606 113.824 80.7609 113.456 80.3454 112.977C79.9352 112.499 79.6222 111.92 79.4066 111.242C79.191 110.563 79.0831 109.803 79.0831 108.962V108.165C79.0831 107.323 79.1936 106.563 79.4145 105.885C79.6407 105.201 79.9615 104.62 80.377 104.141C80.7977 103.663 81.3 103.295 81.8838 103.037C82.4676 102.779 83.1198 102.65 83.8404 102.65C84.7976 102.65 85.6049 102.824 86.2624 103.171C86.9251 103.518 87.4379 103.997 87.8008 104.607C88.1689 105.217 88.3898 105.911 88.4635 106.69H86.0967C86.0704 106.227 85.9784 105.835 85.8206 105.514C85.6628 105.188 85.4235 104.943 85.1026 104.78C84.7871 104.612 84.3663 104.528 83.8404 104.528C83.4459 104.528 83.1014 104.602 82.8069 104.749C82.5123 104.896 82.2651 105.12 82.0653 105.419C81.8654 105.719 81.7155 106.098 81.6156 106.555C81.5209 107.008 81.4736 107.539 81.4736 108.149V108.962C81.4736 109.556 81.5183 110.079 81.6077 110.532C81.6971 110.979 81.8339 111.357 82.0179 111.668C82.2073 111.973 82.4492 112.204 82.7438 112.362C83.0435 112.515 83.4038 112.591 83.8246 112.591C84.319 112.591 84.7266 112.512 85.0474 112.354C85.3682 112.196 85.6128 111.962 85.7811 111.652C85.9547 111.342 86.0572 110.955 86.0888 110.492ZM94.6723 104.78L91.5482 114.303H89.0315L93.2996 102.816H94.9011L94.6723 104.78ZM97.2679 114.303L94.1358 104.78L93.8834 102.816H95.5007L99.7924 114.303H97.2679ZM97.1259 110.027V111.881H91.059V110.027H97.1259ZM100.857 102.816H105.141C106.02 102.816 106.774 102.947 107.406 103.21C108.042 103.473 108.531 103.863 108.873 104.378C109.215 104.893 109.386 105.527 109.386 106.279C109.386 106.895 109.281 107.423 109.07 107.865C108.865 108.302 108.573 108.667 108.194 108.962C107.821 109.251 107.382 109.482 106.877 109.656L106.127 110.05H102.404L102.388 108.204H105.157C105.573 108.204 105.917 108.131 106.191 107.983C106.464 107.836 106.669 107.631 106.806 107.368C106.948 107.105 107.019 106.8 107.019 106.453C107.019 106.085 106.951 105.767 106.814 105.498C106.677 105.23 106.469 105.025 106.191 104.883C105.912 104.741 105.562 104.67 105.141 104.67H103.224V114.303H100.857V102.816ZM107.279 114.303L104.66 109.183L107.161 109.167L109.812 114.192V114.303H107.279ZM118.916 112.457V114.303H112.802V112.457H118.916ZM113.575 102.816V114.303H111.208V102.816H113.575ZM118.119 107.494V109.293H112.802V107.494H118.119ZM118.908 102.816V104.67H112.802V102.816H118.908Z" fill="white"/>
<path d="M49.5899 128.139H51.0626C51.0155 128.701 50.8584 129.202 50.5913 129.642C50.3243 130.077 49.9492 130.421 49.4662 130.672C48.9831 130.924 48.396 131.049 47.7047 131.049C47.1746 131.049 46.6974 130.955 46.2732 130.767C45.8491 130.574 45.4858 130.303 45.1834 129.954C44.881 129.6 44.6493 129.174 44.4883 128.675C44.3312 128.177 44.2526 127.619 44.2526 127.002V126.29C44.2526 125.673 44.3331 125.115 44.4942 124.616C44.6591 124.118 44.8947 123.692 45.2011 123.338C45.5074 122.981 45.8746 122.708 46.3027 122.519C46.7347 122.331 47.2197 122.237 47.7578 122.237C48.4411 122.237 49.0184 122.362 49.4897 122.614C49.961 122.865 50.3262 123.212 50.5854 123.656C50.8486 124.1 51.0096 124.609 51.0685 125.182H49.5958C49.5565 124.813 49.4701 124.497 49.3366 124.234C49.207 123.97 49.0145 123.77 48.7592 123.633C48.504 123.491 48.1701 123.421 47.7578 123.421C47.42 123.421 47.1255 123.483 46.8741 123.609C46.6228 123.735 46.4127 123.919 46.2438 124.163C46.0749 124.406 45.9473 124.707 45.8609 125.064C45.7784 125.418 45.7372 125.822 45.7372 126.278V127.002C45.7372 127.434 45.7745 127.827 45.8491 128.181C45.9276 128.53 46.0455 128.831 46.2025 129.082C46.3636 129.333 46.5678 129.528 46.8152 129.665C47.0626 129.803 47.3591 129.871 47.7047 129.871C48.125 129.871 48.4647 129.804 48.7239 129.671C48.987 129.537 49.1854 129.343 49.3189 129.088C49.4563 128.829 49.5467 128.512 49.5899 128.139ZM59.8294 129.759V130.932H55.523V129.759H59.8294ZM55.9354 122.354V130.932H54.4568V122.354H55.9354ZM64.602 122.354V130.932H63.1234V122.354H64.602ZM75.2951 122.354V130.932H73.8164L69.9696 124.787V130.932H68.491V122.354H69.9696L73.8282 128.51V122.354H75.2951ZM80.6863 122.354V130.932H79.2076V122.354H80.6863ZM89.6415 128.139H91.1143C91.0671 128.701 90.9101 129.202 90.643 129.642C90.3759 130.077 90.0009 130.421 89.5178 130.672C89.0348 130.924 88.4476 131.049 87.7564 131.049C87.2262 131.049 86.7491 130.955 86.3249 130.767C85.9008 130.574 85.5375 130.303 85.2351 129.954C84.9327 129.6 84.701 129.174 84.5399 128.675C84.3828 128.177 84.3043 127.619 84.3043 127.002V126.29C84.3043 125.673 84.3848 125.115 84.5458 124.616C84.7108 124.118 84.9464 123.692 85.2527 123.338C85.5591 122.981 85.9263 122.708 86.3544 122.519C86.7864 122.331 87.2714 122.237 87.8094 122.237C88.4928 122.237 89.0701 122.362 89.5414 122.614C90.0127 122.865 90.3779 123.212 90.6371 123.656C90.9002 124.1 91.0613 124.609 91.1202 125.182H89.6474C89.6081 124.813 89.5217 124.497 89.3882 124.234C89.2586 123.97 89.0662 123.77 88.8109 123.633C88.5556 123.491 88.2218 123.421 87.8094 123.421C87.4717 123.421 87.1771 123.483 86.9258 123.609C86.6744 123.735 86.4643 123.919 86.2954 124.163C86.1266 124.406 85.9989 124.707 85.9125 125.064C85.8301 125.418 85.7888 125.822 85.7888 126.278V127.002C85.7888 127.434 85.8261 127.827 85.9008 128.181C85.9793 128.53 86.0971 128.831 86.2542 129.082C86.4152 129.333 86.6195 129.528 86.8669 129.665C87.1143 129.803 87.4108 129.871 87.7564 129.871C88.1766 129.871 88.5164 129.804 88.7756 129.671C89.0387 129.537 89.237 129.343 89.3705 129.088C89.508 128.829 89.5983 128.512 89.6415 128.139Z" fill="white"/>
<path d="M97.1223 9.32938C91.2131 6.8081 83.531 9.60515 77.543 12.7568C71.7519 15.8296 64.7789 15.8296 58.9879 12.7568C53.0392 9.60515 45.3178 6.8081 39.4086 9.32938C28.2204 14.0174 25.8567 27.3723 32.3174 38.9545C38.8176 50.5366 39.6055 62.5127 40.9844 74.5282C41.2601 76.9707 41.5359 79.6102 42.4026 81.9345C43.8208 85.6376 48.0361 87.568 51.5422 85.4012C55.1666 83.1951 57.6485 78.9405 59.697 75.3949C61.5092 72.1645 63.9123 67.0431 68.2851 67.0431C72.6186 67.0431 75.0217 72.1645 76.8339 75.3949C78.8824 78.9405 81.3643 83.1951 84.9886 85.4012C88.5342 87.568 92.71 85.6376 94.1283 81.9345C94.995 79.6102 95.2707 76.9707 95.5859 74.5282C96.9253 62.5127 97.7132 50.5366 104.213 38.9545C110.674 27.3723 108.35 14.0174 97.1223 9.32938Z" fill="#25EFFC"/>
<path d="M104.253 14.8057C104.883 19.73 103.741 25.2454 100.865 30.4061C94.365 41.9883 93.5771 53.9644 92.1982 65.9405C91.9225 68.3829 91.6467 71.0618 90.78 73.3467C89.3618 77.0499 85.1859 79.0196 81.6404 76.8529C78.016 74.6468 75.5341 70.3921 73.4856 66.8071C71.6734 63.6161 69.2703 58.4948 64.9369 58.4948C60.564 58.4948 58.1609 63.6161 56.3487 66.8071C54.3002 70.3921 51.8183 74.6468 48.194 76.8529C45.8303 78.3105 43.112 77.8772 41.1816 76.3013C41.418 78.2317 41.7726 80.2015 42.4029 81.9349C43.8211 85.638 48.0364 87.5683 51.5425 85.4016C55.1669 83.1955 57.6488 78.9408 59.6973 75.3953C61.5095 72.1649 63.9126 67.0435 68.2854 67.0435C72.6189 67.0435 75.022 72.1649 76.8342 75.3953C78.8827 78.9408 81.3646 83.1955 84.9889 85.4016C88.5345 87.5683 92.7104 85.638 94.1286 81.9349C94.9953 79.6105 95.271 76.9711 95.5862 74.5286C96.9256 62.5131 97.7136 50.537 104.214 38.9548C108.941 30.4849 108.941 21.1089 104.253 14.8057Z" fill="#4269F0"/>
<path d="M46.4215 20.7938C49.967 21.7393 53.6702 21.9756 57.2551 21.5029C60.8401 21.0696 64.2675 19.7695 67.4978 18.1937C69.1524 17.3664 70.7282 16.4603 72.304 15.5542C73.0919 15.1209 73.8798 14.6876 74.7071 14.2542C75.5344 13.8209 76.3223 13.3875 77.1496 12.9542C78.8042 12.1663 80.4194 11.339 82.1134 10.5905C83.8468 9.84197 85.6196 9.17225 87.4317 8.89648L87.4711 9.05406C84.0438 10.3541 81.0891 12.4814 77.8587 14.2936C74.7465 16.1452 71.4767 17.8786 68.0494 19.3362C64.6614 20.8332 61.0765 22.015 57.3339 22.3302C53.6308 22.606 49.8882 22.0938 46.3821 20.912L46.4215 20.7938Z" fill="#E3F9FE"/>
<path d="M78.2917 27.5304C75.4947 26.3091 71.3976 29.1062 68.2854 34.0699C65.1338 29.1062 61.0761 26.3091 58.2396 27.5304C54.7335 29.0668 54.4577 36.1973 57.6093 43.5247C60.1306 49.3158 64.0701 53.4523 67.3793 54.1614C67.4318 54.1877 67.4843 54.2008 67.5369 54.2008C67.6157 54.2008 67.6945 54.2139 67.7733 54.2402C67.9308 54.2665 68.1015 54.2796 68.2854 54.2796C68.443 54.2796 68.6137 54.2665 68.7975 54.2402C68.85 54.2139 68.9157 54.2008 68.9945 54.2008C69.047 54.2008 69.1127 54.1877 69.1915 54.1614C72.4613 53.4523 76.4008 49.3158 78.922 43.5247C82.113 36.1973 81.8373 29.0668 78.2917 27.5304Z" fill="#184CFF"/>
<path d="M76.5981 29.7759C74.2344 28.7517 70.8858 31.076 68.2857 35.2125C65.6857 31.076 62.2977 28.7517 59.934 29.7759C57.0187 31.0366 56.7824 36.9852 59.4218 43.0521C61.5098 47.8583 64.7796 51.325 67.4978 51.8766C67.5504 51.9028 67.6029 51.916 67.6554 51.916C67.7342 51.916 67.7998 51.9291 67.8524 51.9554C67.9837 51.9554 68.1282 51.9554 68.2857 51.9554C68.4171 51.9554 68.5484 51.9554 68.6797 51.9554C68.7585 51.9291 68.8241 51.916 68.8767 51.916C68.9292 51.916 68.9817 51.9028 69.0342 51.8766C71.7525 51.325 75.0223 47.8583 77.1102 43.0521C79.7497 36.9852 79.5133 31.0366 76.5981 29.7759Z" fill="#4269F0"/>
</g>
<defs>
<clipPath id="clip0_106_11239">
<rect width="129" height="133.64" fill="white"/>
</clipPath>
</defs>
</svg>
