<svg width="130" height="129" viewBox="0 0 130 129" fill="none" xmlns="http://www.w3.org/2000/svg">
<path d="M13.905 102H11.2102L11.2272 100.011H13.905C14.5737 100.011 15.1376 99.8606 15.5966 99.5603C16.0557 99.2542 16.4014 98.8094 16.6337 98.2256C16.8718 97.6419 16.9908 96.9363 16.9908 96.1089V95.5054C16.9908 94.8706 16.9228 94.3124 16.7868 93.8307C16.6564 93.349 16.4609 92.9438 16.2002 92.6151C15.9395 92.2864 15.6193 92.0399 15.2396 91.8755C14.8599 91.7055 14.4235 91.6205 13.9305 91.6205H11.1592V89.6228H13.9305C14.7579 89.6228 15.5145 89.7645 16.2002 90.0478C16.8916 90.3255 17.4895 90.7251 17.9939 91.2465C18.4982 91.7678 18.8865 92.3912 19.1585 93.1166C19.4362 93.8364 19.575 94.6383 19.575 95.5224V96.1089C19.575 96.9874 19.4362 97.7893 19.1585 98.5147C18.8865 99.2401 18.4982 99.8635 17.9939 100.385C17.4952 100.901 16.8973 101.3 16.2002 101.583C15.5088 101.861 14.7437 102 13.905 102ZM12.6554 89.6228V102H10.1051V89.6228H12.6554ZM29.7335 100.011V102H23.1454V100.011H29.7335ZM23.9784 89.6228V102H21.4282V89.6228H23.9784ZM28.8749 94.6638V96.602H23.1454V94.6638H28.8749ZM29.725 89.6228V91.6205H23.1454V89.6228H29.725ZM41.2946 89.6228V102H38.7444L33.7714 93.7032V102H31.2211V89.6228H33.7714L38.7529 97.9281V89.6228H41.2946ZM48.7923 89.6228V102H46.2506V89.6228H48.7923ZM52.6007 89.6228V91.6205H42.5017V89.6228H52.6007ZM58.1687 91.7395L54.8024 102H52.0907L56.6896 89.6228H58.4153L58.1687 91.7395ZM60.9655 102L57.5907 91.7395L57.3187 89.6228H59.0613L63.6858 102H60.9655ZM60.8125 97.3926V99.3902H54.2754V97.3926H60.8125ZM72.7901 100.011V102H66.559V100.011H72.7901ZM67.3836 89.6228V102H64.8334V89.6228H67.3836ZM85.7624 97.8941H88.3041C88.2531 98.7272 88.0236 99.4668 87.6156 100.113C87.2132 100.759 86.6493 101.263 85.9239 101.626C85.2042 101.989 84.3371 102.17 83.3227 102.17C82.5293 102.17 81.818 102.034 81.189 101.762C80.5599 101.484 80.0215 101.088 79.5738 100.572C79.1318 100.056 78.7946 99.4328 78.5622 98.7017C78.3298 97.9706 78.2137 97.1517 78.2137 96.2449V95.3864C78.2137 94.4796 78.3327 93.6607 78.5707 92.9296C78.8144 92.1929 79.1601 91.5667 79.6078 91.0509C80.0612 90.5352 80.6024 90.1385 81.2315 89.8608C81.8605 89.5831 82.5633 89.4443 83.3397 89.4443C84.3711 89.4443 85.241 89.6313 85.9494 90.0053C86.6635 90.3794 87.216 90.8951 87.6071 91.5525C88.0038 92.2099 88.2418 92.958 88.3211 93.7967H85.7709C85.7426 93.298 85.6434 92.8758 85.4734 92.5301C85.3034 92.1787 85.0455 91.9152 84.6998 91.7395C84.3598 91.5582 83.9064 91.4675 83.3397 91.4675C82.9146 91.4675 82.5434 91.5468 82.2261 91.7055C81.9087 91.8642 81.6423 92.105 81.427 92.4281C81.2116 92.7511 81.0501 93.1591 80.9424 93.6522C80.8404 94.1396 80.7894 94.712 80.7894 95.3694V96.2449C80.7894 96.8853 80.8376 97.4492 80.9339 97.9366C81.0303 98.4183 81.1776 98.8264 81.376 99.1607C81.58 99.4894 81.8407 99.7388 82.158 99.9088C82.4811 100.073 82.8693 100.155 83.3227 100.155C83.8554 100.155 84.2946 100.07 84.6403 99.9003C84.986 99.7303 85.2495 99.4781 85.4309 99.1437C85.6179 98.8094 85.7284 98.3928 85.7624 97.8941ZM95.0113 91.7395L91.645 102H88.9332L93.5321 89.6228H95.2578L95.0113 91.7395ZM97.8081 102L94.4332 91.7395L94.1612 89.6228H95.9039L100.528 102H97.8081ZM97.655 97.3926V99.3902H91.1179V97.3926H97.655ZM101.676 89.6228H106.292C107.238 89.6228 108.052 89.7645 108.732 90.0478C109.417 90.3312 109.944 90.7506 110.313 91.306C110.681 91.8614 110.865 92.5443 110.865 93.3547C110.865 94.0177 110.752 94.5873 110.525 95.0633C110.304 95.5337 109.99 95.9276 109.582 96.2449C109.179 96.5566 108.706 96.806 108.162 96.993L107.354 97.4181H103.342L103.325 95.4289H106.309C106.757 95.4289 107.128 95.3495 107.422 95.1908C107.717 95.0322 107.938 94.8111 108.086 94.5278C108.239 94.2444 108.315 93.9157 108.315 93.5417C108.315 93.145 108.241 92.8021 108.094 92.5131C107.947 92.2241 107.723 92.003 107.422 91.85C107.122 91.697 106.745 91.6205 106.292 91.6205H104.226V102H101.676V89.6228ZM108.596 102L105.773 96.483L108.468 96.466L111.324 101.881V102H108.596ZM121.134 100.011V102H114.546V100.011H121.134ZM115.379 89.6228V102H112.829V89.6228H115.379ZM120.276 94.6638V96.602H114.546V94.6638H120.276ZM121.126 89.6228V91.6205H114.546V89.6228H121.126Z" fill="white"/>
<path d="M46.5736 117.219H48.1605C48.1098 117.824 47.9405 118.363 47.6527 118.837C47.365 119.307 46.9608 119.677 46.4403 119.948C45.9198 120.219 45.2872 120.354 44.5424 120.354C43.9711 120.354 43.4569 120.253 42.9999 120.05C42.5429 119.842 42.1514 119.55 41.8256 119.174C41.4997 118.793 41.2501 118.334 41.0766 117.796C40.9073 117.259 40.8227 116.658 40.8227 115.994V115.226C40.8227 114.561 40.9094 113.96 41.0829 113.423C41.2606 112.885 41.5146 112.426 41.8446 112.045C42.1747 111.66 42.5704 111.366 43.0316 111.163C43.4971 110.96 44.0198 110.858 44.5995 110.858C45.3358 110.858 45.9579 110.994 46.4657 111.265C46.9735 111.535 47.3671 111.91 47.6464 112.388C47.9299 112.866 48.1034 113.414 48.1669 114.032H46.58C46.5377 113.634 46.4446 113.294 46.3007 113.01C46.161 112.727 45.9537 112.511 45.6786 112.363C45.4035 112.21 45.0438 112.134 44.5995 112.134C44.2356 112.134 43.9182 112.202 43.6474 112.337C43.3765 112.473 43.1501 112.672 42.9682 112.934C42.7862 113.196 42.6487 113.52 42.5556 113.905C42.4667 114.286 42.4223 114.722 42.4223 115.213V115.994C42.4223 116.459 42.4625 116.882 42.5429 117.263C42.6275 117.64 42.7545 117.964 42.9237 118.234C43.0972 118.505 43.3173 118.715 43.5839 118.863C43.8505 119.011 44.17 119.085 44.5424 119.085C44.9952 119.085 45.3612 119.013 45.6405 118.869C45.9241 118.725 46.1378 118.516 46.2816 118.241C46.4298 117.961 46.5271 117.621 46.5736 117.219ZM57.6069 118.964V120.228H52.9667V118.964H57.6069ZM53.4111 110.985V120.228H51.8178V110.985H53.4111ZM62.7495 110.985V120.228H61.1562V110.985H62.7495ZM74.2715 110.985V120.228H72.6782L68.5332 113.607V120.228H66.94V110.985H68.5332L72.6909 117.619V110.985H74.2715ZM80.0806 110.985V120.228H78.4874V110.985H80.0806ZM89.7301 117.219H91.317C91.2662 117.824 91.0969 118.363 90.8092 118.837C90.5214 119.307 90.1173 119.677 89.5968 119.948C89.0763 120.219 88.4436 120.354 87.6988 120.354C87.1275 120.354 86.6134 120.253 86.1563 120.05C85.6993 119.842 85.3079 119.55 84.982 119.174C84.6562 118.793 84.4065 118.334 84.233 117.796C84.0637 117.259 83.9791 116.658 83.9791 115.994V115.226C83.9791 114.561 84.0659 113.96 84.2394 113.423C84.4171 112.885 84.671 112.426 85.0011 112.045C85.3312 111.66 85.7268 111.366 86.1881 111.163C86.6536 110.96 87.1762 110.858 87.756 110.858C88.4923 110.858 89.1144 110.994 89.6222 111.265C90.13 111.535 90.5235 111.91 90.8028 112.388C91.0864 112.866 91.2599 113.414 91.3233 114.032H89.7364C89.6941 113.634 89.601 113.294 89.4571 113.01C89.3175 112.727 89.1101 112.511 88.8351 112.363C88.56 112.21 88.2003 112.134 87.756 112.134C87.392 112.134 87.0746 112.202 86.8038 112.337C86.533 112.473 86.3066 112.672 86.1246 112.934C85.9426 113.196 85.8051 113.52 85.712 113.905C85.6231 114.286 85.5787 114.722 85.5787 115.213V115.994C85.5787 116.459 85.6189 116.882 85.6993 117.263C85.784 117.64 85.9109 117.964 86.0802 118.234C86.2537 118.505 86.4737 118.715 86.7403 118.863C87.0069 119.011 87.3264 119.085 87.6988 119.085C88.1516 119.085 88.5177 119.013 88.797 118.869C89.0805 118.725 89.2942 118.516 89.4381 118.241C89.5862 117.961 89.6835 117.621 89.7301 117.219Z" fill="white"/>
<path fill-rule="evenodd" clip-rule="evenodd" d="M91.6327 23.8877C90.9157 26.5494 89.3486 28.4384 87.1492 29.0224C87.1211 29.0385 87.0867 29.0429 87.0551 29.0527C87.0024 29.066 86.9477 29.0751 86.8945 29.0868C86.9472 29.0754 87.001 29.0663 87.0529 29.0532C77.9818 31.3353 61.8548 15.2636 61.8174 15.3011C62.3179 15.467 62.8007 15.5535 63.2915 15.5577C64.2599 15.5655 65.2582 15.2611 66.4874 14.6315C69.2628 13.2101 72.1909 12.0903 75.2113 11.3136C79.886 10.1117 86.7499 9.95546 90.1724 14.5738C92.2209 17.3385 92.1765 20.1517 91.6327 23.8877ZM80.7889 27.849C81.1088 28.0205 81.4237 28.1725 81.7348 28.3116C81.424 28.1725 81.1088 28.0205 80.7889 27.849Z" fill="url(#paint0_linear_106_10997)"/>
<path opacity="0.412" fill-rule="evenodd" clip-rule="evenodd" d="M70.9108 22.8793C72.6399 24.0762 74.4357 25.2571 76.2064 26.3337C80.0595 28.5004 84.0522 29.9851 87.0535 29.0536C86.8188 29.1122 86.5755 29.1538 86.3271 29.1835C86.576 29.1538 86.8205 29.1122 87.0558 29.0531C87.0874 29.0434 87.1218 29.0389 87.1534 29.0284C87.1523 29.0264 87.1509 29.0248 87.1498 29.0228C89.3493 28.4388 90.9164 26.5498 91.6333 23.8881C91.7388 23.162 91.8162 22.4472 91.8648 21.7461C86.7514 30.2997 73.444 24.0457 70.9108 22.8793Z" fill="url(#paint1_linear_106_10997)"/>
<path opacity="0.478" fill-rule="evenodd" clip-rule="evenodd" d="M62.8587 15.9176C63.8606 16.0094 64.9205 15.7805 66.2476 15.235C69.2442 14.0028 72.3729 13.0963 75.5673 12.5531C80.5117 11.7121 87.632 12.1432 90.777 17.2211C91.3622 18.1659 91.7367 19.0981 91.9496 20.0493C91.9182 18.0613 91.4573 16.308 90.1724 14.5738C86.7499 9.95546 79.886 10.1117 75.2113 11.3136C72.1909 12.0903 69.2628 13.2101 66.4874 14.6315C65.2579 15.2611 64.2599 15.5655 63.2915 15.5577C62.8007 15.5533 62.3179 15.467 61.8174 15.3011C61.8215 15.2969 62.0294 15.4961 62.3909 15.8349C62.5463 15.8657 62.7011 15.9031 62.8587 15.9176Z" fill="url(#paint2_linear_106_10997)"/>
<path fill-rule="evenodd" clip-rule="evenodd" d="M65.4818 54.8776C65.769 56.7219 68.5025 67.4037 72.7294 66.9392C76.9646 66.2317 80.6959 61.7301 85.5823 47.8573C85.6492 47.6694 85.7141 47.4938 85.7788 47.3223C88.0659 40.2997 91.3735 30.7106 91.9659 22.2277C91.9026 22.581 91.8258 22.922 91.7378 23.2532C91.7109 23.3542 91.6765 23.4483 91.6479 23.5471C91.5813 23.774 91.5128 23.9988 91.4337 24.2133C91.3952 24.3181 91.3502 24.4172 91.3089 24.519C91.2281 24.7177 91.1449 24.9133 91.0536 25.1C91.007 25.1949 90.9562 25.2854 90.9068 25.3769C90.8086 25.5601 90.7062 25.7374 90.5972 25.9063C90.5453 25.9863 90.4923 26.0631 90.4382 26.1394C90.3186 26.3098 90.1935 26.4713 90.0625 26.6252C90.0095 26.6871 89.9568 26.7484 89.9021 26.8078C89.7565 26.9654 89.6039 27.1119 89.4457 27.2498C89.3963 27.2925 89.3486 27.3367 89.2986 27.3774C89.1191 27.5234 88.9299 27.6544 88.7357 27.7751C88.6999 27.7973 88.6658 27.8222 88.6288 27.8436C88.3936 27.9809 88.1497 28.1013 87.8975 28.2062C87.8672 28.2204 87.8336 28.2279 87.8028 28.2415C87.7693 28.254 87.7324 28.2601 87.6982 28.2717C87.7318 28.2603 87.7679 28.2542 87.8009 28.242C79.0098 31.482 62.0066 15.2801 61.9727 15.3242C61.493 15.1913 60.9933 14.9818 60.4511 14.6935C57.5372 13.145 54.2643 12.1417 50.7979 11.7846C46.376 11.3482 41.097 11.647 37.9084 15.3769C31.0798 23.3481 37.0338 38.1821 39.2594 46.8503C43.1355 62.2573 46.0231 67.42 50.2377 67.9866C50.5673 68.0277 50.8678 67.9705 51.1459 67.8834C52.6738 67.4087 53.4718 65.9936 54.0764 65.0316C55.0842 63.434 55.8089 61.7315 56.4562 60.0104C57.053 58.4211 57.5611 56.8024 58.0427 55.1709C58.4107 53.9243 58.6973 51.643 60.5391 51.3025C61.5854 51.1108 63.3681 51.3058 64.1802 52.0275C64.9541 52.7148 65.2718 53.843 65.4818 54.8776Z" fill="url(#paint3_linear_106_10997)"/>
<path fill-rule="evenodd" clip-rule="evenodd" d="M80.6459 58.706C74.9354 62.762 71.3548 55.2674 68.311 50.0869C64.9351 44.291 60.0401 41.5938 54.0988 42.0202C51.1602 42.2325 48.2838 43.3021 45.5871 44.7175C45.0954 44.9652 39.5933 48.0145 39.7079 48.532C43.3244 62.6249 46.2006 67.4458 50.2385 67.9863C50.5687 68.0274 50.8689 67.9699 51.1466 67.8831C52.6743 67.4086 53.4723 65.9933 54.0772 65.0313C55.0849 63.4337 55.8097 61.7312 56.457 60.0101C57.0538 58.4208 57.5618 56.8021 58.0435 55.1706C58.4114 53.9239 58.698 51.6429 60.5398 51.3022C61.5862 51.1108 63.3689 51.3052 64.181 52.0272C64.9548 52.7145 65.2731 53.8426 65.4826 54.8773C65.7697 56.7219 68.5033 67.4034 72.7302 66.9389C75.6014 66.4752 78.3652 64.1415 81.3043 58.254C81.0929 58.3869 80.8751 58.5359 80.6459 58.706Z" fill="url(#paint4_linear_106_10997)"/>
<path fill-rule="evenodd" clip-rule="evenodd" d="M52.7268 20.0033C55.4032 22.0715 57.6112 24.6444 59.4608 27.5414C61.4083 30.5866 62.7828 33.8845 65.4573 36.6783C70.2702 41.6257 78.0566 45.4164 84.5556 40.7423C86.5728 39.2556 88.2284 37.1447 89.6526 34.7885C90.7708 30.6199 91.6897 26.2565 91.9672 22.2277C91.904 22.581 91.8271 22.922 91.7391 23.2532C91.7122 23.3542 91.6778 23.4483 91.6492 23.5471C91.5827 23.774 91.5141 23.9988 91.435 24.2133C91.3965 24.3181 91.3515 24.4172 91.3102 24.519C91.2294 24.7177 91.1462 24.9133 91.0549 25.1C91.0083 25.1949 90.9575 25.2854 90.9081 25.3769C90.8099 25.5601 90.7075 25.7374 90.5985 25.9063C90.5466 25.9863 90.4936 26.0631 90.4395 26.1394C90.3199 26.3098 90.1948 26.4713 90.0638 26.6252C90.0108 26.6871 89.9581 26.7484 89.9034 26.8078C89.7578 26.9654 89.6052 27.1119 89.447 27.2498C89.3976 27.2925 89.3499 27.3367 89.3 27.3775C89.1204 27.5234 88.9312 27.6544 88.737 27.7751C88.7012 27.7973 88.6671 27.8222 88.6302 27.8436C88.3954 27.9809 88.1504 28.1014 87.8952 28.2007C87.8963 28.2026 87.8974 28.2043 87.8988 28.2062C87.868 28.2204 87.8355 28.2279 87.8042 28.2415C87.7706 28.254 87.7337 28.2601 87.6996 28.2717C87.7331 28.2603 87.7692 28.2542 87.8022 28.242C79.0108 31.4817 62.0087 15.2801 61.9738 15.3239C61.494 15.191 60.9946 14.9818 60.4524 14.6935C57.5385 13.145 54.2656 12.1417 50.7992 11.7846C46.3773 11.3482 41.0983 11.647 37.9097 15.3769C37.6833 15.6419 37.4733 15.9135 37.2751 16.1902C38.0151 15.1713 42.6094 15.5367 43.6948 15.6474C46.7178 16.0034 49.4216 17.3017 51.701 19.1168C52.0584 19.4018 52.3969 19.6995 52.7268 20.0033Z" fill="url(#paint5_linear_106_10997)"/>
<path fill-rule="evenodd" clip-rule="evenodd" d="M45.9492 12.8282C40.0592 13.4936 37.6492 16.8958 36.5676 19.9421C35.8576 21.9515 35.6697 24.1068 35.927 26.2222C36.3087 29.3794 36.6941 31.0142 36.698 31.0131C44.3879 26.299 51.5256 21.399 58.5699 15.6137C52.8669 12.0752 45.9536 12.8651 45.9492 12.8282Z" fill="url(#paint6_linear_106_10997)"/>
<path fill-rule="evenodd" clip-rule="evenodd" d="M61.5194 15.166C63.8215 17.2803 79.759 32.2017 87.8811 29.2595C87.8481 29.2714 87.8115 29.2772 87.7782 29.2883C87.8123 29.2769 87.849 29.2708 87.8831 29.2589C87.9136 29.2459 87.9475 29.2381 87.978 29.2242C87.9769 29.2223 87.9755 29.2206 87.9744 29.2187C88.231 29.121 88.4755 29.002 88.711 28.866C88.7474 28.8449 88.7818 28.82 88.8181 28.7978C89.0137 28.6787 89.2021 28.5483 89.3822 28.4032C89.4327 28.3627 89.4802 28.3186 89.5295 28.2761C89.6883 28.1391 89.8409 27.9931 89.9863 27.8358C90.0412 27.7767 90.0942 27.7157 90.1469 27.6538C90.2781 27.5001 90.4027 27.3386 90.5226 27.1688C90.577 27.0925 90.6297 27.0153 90.6813 26.9357C90.7906 26.7667 90.8922 26.5892 90.9904 26.4063C91.0398 26.3145 91.0906 26.2243 91.1369 26.1288C91.2282 25.9424 91.3106 25.7462 91.3913 25.547C91.4327 25.4449 91.4771 25.3461 91.5156 25.241C91.5936 25.0257 91.6618 24.8006 91.7282 24.5728C91.7309 24.5645 91.7332 24.5559 91.7362 24.5473C91.8314 23.7654 91.9146 22.9888 91.9668 22.2277C91.9035 22.5809 91.8267 22.9219 91.7387 23.2532C91.7118 23.3542 91.6774 23.4483 91.6488 23.5471C91.5822 23.774 91.5137 23.9988 91.4346 24.2132C91.396 24.3181 91.3511 24.4172 91.3097 24.519C91.229 24.7177 91.1458 24.9133 91.0545 25.1C91.0079 25.1949 90.9571 25.2854 90.9077 25.3769C90.8095 25.56 90.7071 25.7373 90.5981 25.9063C90.5462 25.9862 90.4932 26.0631 90.4391 26.1394C90.3195 26.3098 90.1943 26.4712 90.0634 26.6252C90.0104 26.6871 89.9577 26.7484 89.903 26.8078C89.7573 26.9654 89.6047 27.1119 89.4466 27.2498C89.3972 27.2925 89.3495 27.3366 89.2995 27.3774C89.12 27.5234 88.9308 27.6543 88.7366 27.775C88.7008 27.7972 88.6666 27.8222 88.6297 27.8436C88.395 27.9809 88.15 28.1013 87.8947 28.2007C87.8958 28.2026 87.897 28.2043 87.8983 28.2062C87.8675 28.2204 87.8351 28.2278 87.8037 28.2414C87.8032 28.2414 87.804 28.2414 87.8037 28.2414C87.7702 28.2539 87.7333 28.26 87.6991 28.2717C87.7327 28.2603 87.7688 28.2542 87.8018 28.242C79.0104 31.4817 62.0083 15.2801 61.9733 15.3239C61.9733 15.3239 61.9733 15.3242 61.9736 15.3242C61.8257 15.2831 61.6717 15.2215 61.5194 15.166Z" fill="url(#paint7_linear_106_10997)"/>
<path fill-rule="evenodd" clip-rule="evenodd" d="M61.5194 15.166C63.8215 17.2803 79.759 32.2017 87.8811 29.2595C87.8481 29.2714 87.8115 29.2772 87.7782 29.2883C87.8123 29.2769 87.849 29.2708 87.8831 29.2589C87.9136 29.2459 87.9475 29.2381 87.978 29.2242C87.9769 29.2223 87.9755 29.2206 87.9744 29.2187C88.231 29.121 88.4755 29.002 88.711 28.866C88.7474 28.8449 88.7818 28.82 88.8181 28.7978C89.0137 28.6787 89.2021 28.5483 89.3822 28.4032C89.4327 28.3627 89.4802 28.3186 89.5295 28.2761C89.6883 28.1391 89.8409 27.9931 89.9863 27.8358C90.0412 27.7767 90.0942 27.7157 90.1469 27.6538C90.2781 27.5001 90.4027 27.3386 90.5226 27.1688C90.577 27.0925 90.6297 27.0153 90.6813 26.9357C90.7906 26.7667 90.8922 26.5892 90.9904 26.4063C91.0398 26.3145 91.0906 26.2243 91.1369 26.1288C91.2282 25.9424 91.3106 25.7462 91.3913 25.547C91.4327 25.4449 91.4771 25.3461 91.5156 25.241C91.5936 25.0257 91.6618 24.8006 91.7282 24.5728C91.7309 24.5645 91.7332 24.5559 91.7362 24.5473C91.8314 23.7654 91.9146 22.9888 91.9668 22.2277C91.9035 22.5809 91.8267 22.9219 91.7387 23.2532C91.7118 23.3542 91.6774 23.4483 91.6488 23.5471C91.5822 23.774 91.5137 23.9988 91.4346 24.2132C91.396 24.3181 91.3511 24.4172 91.3097 24.519C91.229 24.7177 91.1458 24.9133 91.0545 25.1C91.0079 25.1949 90.9571 25.2854 90.9077 25.3769C90.8095 25.56 90.7071 25.7373 90.5981 25.9063C90.5462 25.9862 90.4932 26.0631 90.4391 26.1394C90.3195 26.3098 90.1943 26.4712 90.0634 26.6252C90.0104 26.6871 89.9577 26.7484 89.903 26.8078C89.7573 26.9654 89.6047 27.1119 89.4466 27.2498C89.3972 27.2925 89.3495 27.3366 89.2995 27.3774C89.12 27.5234 88.9308 27.6543 88.7366 27.775C88.7008 27.7972 88.6666 27.8222 88.6297 27.8436C88.395 27.9809 88.15 28.1013 87.8947 28.2007C87.8958 28.2026 87.897 28.2043 87.8983 28.2062C87.8675 28.2204 87.8351 28.2279 87.8037 28.2414C87.804 28.2414 87.8032 28.2414 87.8037 28.2414C87.7702 28.2539 87.7333 28.26 87.6991 28.2717C87.7327 28.2603 87.7688 28.2542 87.8018 28.242C79.5434 31.3451 63.8543 16.9828 62.1645 15.5009C62.0519 15.3974 61.9869 15.3364 61.9733 15.3239C61.8255 15.2828 61.6717 15.2215 61.5194 15.166Z" fill="url(#paint8_linear_106_10997)"/>
<path fill-rule="evenodd" clip-rule="evenodd" d="M65.1724 53.6956C64.8741 52.29 63.34 48.1578 58.7078 47.91C51.736 47.5166 48.4577 52.123 43.5963 60.8106C45.6631 65.644 47.7277 67.6717 50.2379 67.9864C50.5676 68.0274 50.8681 67.9703 51.1461 67.8832C52.6741 67.4084 53.472 65.9934 54.0766 65.0314C55.0844 63.4338 55.8091 61.7312 56.4564 60.0101C57.0533 58.4208 57.5613 56.8021 58.043 55.1706C58.4109 53.924 58.6975 51.6427 60.5393 51.3023C61.5856 51.1105 63.3683 51.3056 64.1804 52.0273C64.661 52.4543 64.9607 53.0553 65.1724 53.6956Z" fill="url(#paint9_linear_106_10997)"/>
<path fill-rule="evenodd" clip-rule="evenodd" d="M38.3966 6.91853C32.6043 7.5406 32.1002 8.04503 31.4781 13.8371C30.856 8.04503 30.3519 7.5406 24.5596 6.91853C30.3519 6.29674 30.856 5.79231 31.4781 0C32.1002 5.79231 32.6043 6.29674 38.3966 6.91853Z" fill="url(#paint10_linear_106_10997)"/>
<path fill-rule="evenodd" clip-rule="evenodd" d="M47.6123 21.7572C43.8377 22.1626 43.5092 22.4911 43.1038 26.2657C42.6985 22.4911 42.3699 22.1626 38.5953 21.7572C42.3699 21.3519 42.6985 21.0233 43.1038 17.249C43.5092 21.0233 43.8377 21.3519 47.6123 21.7572Z" fill="white"/>
<path fill-rule="evenodd" clip-rule="evenodd" d="M31.1663 18.7335C27.7479 19.1006 27.4502 19.3981 27.0831 22.8164C26.7161 19.3981 26.4183 19.1006 23 18.7335C26.4183 18.3664 26.7161 18.0687 27.0831 14.6504C27.4502 18.0687 27.7479 18.3664 31.1663 18.7335Z" fill="url(#paint11_linear_106_10997)"/>
<defs>
<linearGradient id="paint0_linear_106_10997" x1="61.8174" y1="10.5957" x2="541.235" y2="1906.74" gradientUnits="userSpaceOnUse">
<stop stop-color="#426AF0"/>
<stop offset="0.99" stop-color="#7613CE"/>
</linearGradient>
<linearGradient id="paint1_linear_106_10997" x1="70.9108" y1="21.7461" x2="144.516" y2="799.344" gradientUnits="userSpaceOnUse">
<stop stop-color="#426AF0"/>
<stop offset="0.99" stop-color="#7613CE"/>
</linearGradient>
<linearGradient id="paint2_linear_106_10997" x1="61.8174" y1="10.5957" x2="190.366" y2="1015.12" gradientUnits="userSpaceOnUse">
<stop stop-color="#426AF0"/>
<stop offset="0.99" stop-color="#7613CE"/>
</linearGradient>
<linearGradient id="paint3_linear_106_10997" x1="34.7271" y1="11.6318" x2="1657.04" y2="5417.53" gradientUnits="userSpaceOnUse">
<stop stop-color="#25F1FC"/>
<stop offset="1" stop-color="#426AF0"/>
</linearGradient>
<linearGradient id="paint4_linear_106_10997" x1="1083.07" y1="41.9766" x2="658.482" y2="2661.41" gradientUnits="userSpaceOnUse">
<stop stop-color="#25F1FC"/>
<stop offset="1" stop-color="#426AF0"/>
</linearGradient>
<linearGradient id="paint5_linear_106_10997" x1="37.2751" y1="11.6318" x2="601.346" y2="3182.94" gradientUnits="userSpaceOnUse">
<stop stop-color="#25F1FC"/>
<stop offset="1" stop-color="#426AF0"/>
</linearGradient>
<linearGradient id="paint6_linear_106_10997" x1="1263.57" y1="1548.08" x2="383.223" y2="-165.682" gradientUnits="userSpaceOnUse">
<stop stop-color="white" stop-opacity="0"/>
<stop offset="0.99" stop-color="white"/>
</linearGradient>
<linearGradient id="paint7_linear_106_10997" x1="61.5194" y1="15.166" x2="1196.08" y2="1740.03" gradientUnits="userSpaceOnUse">
<stop stop-color="white" stop-opacity="0"/>
<stop offset="0.52" stop-color="white"/>
<stop offset="1" stop-color="white" stop-opacity="0"/>
</linearGradient>
<linearGradient id="paint8_linear_106_10997" x1="61.5194" y1="15.166" x2="1196.08" y2="1740.03" gradientUnits="userSpaceOnUse">
<stop stop-color="white" stop-opacity="0"/>
<stop offset="0.52" stop-color="white"/>
<stop offset="1" stop-color="white" stop-opacity="0"/>
</linearGradient>
<linearGradient id="paint9_linear_106_10997" x1="591.952" y1="47.8867" x2="111.365" y2="2009.78" gradientUnits="userSpaceOnUse">
<stop offset="0.01" stop-color="#7613CE"/>
<stop offset="1" stop-color="#426AF0"/>
</linearGradient>
<linearGradient id="paint10_linear_106_10997" x1="24.5596" y1="0" x2="305.231" y2="1354.94" gradientUnits="userSpaceOnUse">
<stop stop-color="#25F1FC"/>
<stop offset="1" stop-color="#426AF0"/>
</linearGradient>
<linearGradient id="paint11_linear_106_10997" x1="23" y1="14.6504" x2="188.634" y2="814.276" gradientUnits="userSpaceOnUse">
<stop stop-color="#25F1FC"/>
<stop offset="1" stop-color="#426AF0"/>
</linearGradient>
</defs>
</svg>
