<svg width="131" height="135" viewBox="0 0 131 135" fill="none" xmlns="http://www.w3.org/2000/svg">
<g clip-path="url(#clip0_106_11230)">
<path d="M19.5777 115.206H17.054L17.0699 113.343H19.5777C20.2039 113.343 20.732 113.203 21.1619 112.921C21.5918 112.635 21.9155 112.218 22.1331 111.671C22.3561 111.125 22.4675 110.464 22.4675 109.689V109.124C22.4675 108.529 22.4038 108.007 22.2764 107.555C22.1544 107.104 21.9713 106.725 21.7271 106.417C21.483 106.109 21.1831 105.878 20.8275 105.724C20.4719 105.565 20.0633 105.486 19.6015 105.486H17.0062V103.615H19.6015C20.3764 103.615 21.0849 103.747 21.7271 104.013C22.3746 104.273 22.9346 104.647 23.4069 105.135C23.8793 105.624 24.2428 106.207 24.4976 106.887C24.7576 107.561 24.8877 108.312 24.8877 109.14V109.689C24.8877 110.512 24.7576 111.263 24.4976 111.942C24.2428 112.621 23.8793 113.205 23.4069 113.693C22.9399 114.176 22.3799 114.551 21.7271 114.816C21.0796 115.076 20.3631 115.206 19.5777 115.206ZM18.4074 103.615V115.206H16.0191V103.615H18.4074ZM34.4011 113.343V115.206H28.2313V113.343H34.4011ZM29.0115 103.615V115.206H26.6232V103.615H29.0115ZM33.5971 108.336V110.151H28.2313V108.336H33.5971ZM34.3932 103.615V105.486H28.2313V103.615H34.3932ZM45.2281 103.615V115.206H42.8398L38.1826 107.436V115.206H35.7943V103.615H38.1826L42.8478 111.393V103.615H45.2281ZM52.2498 103.615V115.206H49.8694V103.615H52.2498ZM55.8163 103.615V105.486H46.3586V103.615H55.8163ZM61.0308 105.597L57.8782 115.206H55.3387L59.6456 103.615H61.2617L61.0308 105.597ZM63.65 115.206L60.4895 105.597L60.2347 103.615H61.8667L66.1975 115.206H63.65ZM63.5067 110.891V112.762H57.3846V110.891H63.5067ZM74.7238 113.343V115.206H68.8884V113.343H74.7238ZM69.6606 103.615V115.206H67.2723V103.615H69.6606ZM86.8723 111.361H89.2527C89.2049 112.141 88.99 112.834 88.6079 113.439C88.231 114.044 87.703 114.516 87.0236 114.856C86.3496 115.195 85.5375 115.365 84.5875 115.365C83.8445 115.365 83.1784 115.238 82.5893 114.983C82.0002 114.723 81.496 114.352 81.0767 113.869C80.6627 113.386 80.3469 112.802 80.1293 112.117C79.9117 111.433 79.8029 110.666 79.8029 109.816V109.012C79.8029 108.163 79.9144 107.396 80.1373 106.712C80.3655 106.022 80.6893 105.435 81.1086 104.952C81.5331 104.469 82.04 104.098 82.6291 103.838C83.2182 103.578 83.8763 103.448 84.6035 103.448C85.5694 103.448 86.3841 103.623 87.0475 103.973C87.7162 104.323 88.2337 104.806 88.5999 105.422C88.9714 106.038 89.1943 106.738 89.2686 107.524H86.8803C86.8538 107.057 86.7609 106.661 86.6017 106.337C86.4425 106.008 86.201 105.762 85.8772 105.597C85.5588 105.427 85.1342 105.342 84.6035 105.342C84.2054 105.342 83.8578 105.417 83.5606 105.565C83.2633 105.714 83.0139 105.939 82.8122 106.242C82.6105 106.544 82.4593 106.927 82.3584 107.388C82.2629 107.845 82.2151 108.381 82.2151 108.996V109.816C82.2151 110.416 82.2603 110.944 82.3505 111.401C82.4407 111.852 82.5787 112.234 82.7645 112.547C82.9555 112.855 83.1997 113.088 83.4969 113.248C83.7994 113.402 84.1629 113.479 84.5875 113.479C85.0864 113.479 85.4977 113.399 85.8215 113.24C86.1452 113.08 86.392 112.844 86.5619 112.531C86.737 112.218 86.8405 111.828 86.8723 111.361ZM95.534 105.597L92.3814 115.206H89.8418L94.1487 103.615H95.7648L95.534 105.597ZM98.1532 115.206L94.9926 105.597L94.7379 103.615H96.3699L100.701 115.206H98.1532ZM98.0099 110.891V112.762H91.8878V110.891H98.0099ZM101.775 103.615H106.098C106.985 103.615 107.746 103.747 108.383 104.013C109.025 104.278 109.519 104.671 109.864 105.191C110.209 105.711 110.381 106.351 110.381 107.11C110.381 107.731 110.275 108.264 110.063 108.71C109.856 109.15 109.561 109.519 109.179 109.816C108.802 110.108 108.359 110.342 107.85 110.517L107.093 110.915H103.336L103.32 109.052H106.114C106.533 109.052 106.881 108.978 107.157 108.829C107.433 108.681 107.64 108.474 107.778 108.208C107.921 107.943 107.993 107.635 107.993 107.285C107.993 106.913 107.924 106.592 107.786 106.322C107.648 106.051 107.438 105.844 107.157 105.701C106.876 105.557 106.523 105.486 106.098 105.486H104.164V115.206H101.775V103.615ZM108.256 115.206L105.613 110.039L108.136 110.023L110.811 115.095V115.206H108.256ZM119.998 113.343V115.206H113.828V113.343H119.998ZM114.609 103.615V115.206H112.22V103.615H114.609ZM119.194 108.336V110.151H113.828V108.336H119.194ZM119.99 103.615V105.486H113.828V103.615H119.99Z" fill="white"/>
<path d="M50.3228 129.205H51.8089C51.7614 129.771 51.6028 130.277 51.3334 130.721C51.0639 131.16 50.6854 131.507 50.1979 131.761C49.7105 132.015 49.118 132.141 48.4205 132.141C47.8855 132.141 47.404 132.046 46.976 131.856C46.548 131.662 46.1814 131.388 45.8762 131.036C45.5711 130.679 45.3372 130.249 45.1747 129.746C45.0162 129.242 44.937 128.68 44.937 128.057V127.338C44.937 126.716 45.0182 126.153 45.1807 125.65C45.3471 125.147 45.5849 124.717 45.894 124.36C46.2032 123.999 46.5737 123.724 47.0057 123.534C47.4416 123.343 47.9311 123.248 48.474 123.248C49.1636 123.248 49.7461 123.375 50.2217 123.629C50.6973 123.882 51.0658 124.233 51.3274 124.681C51.5929 125.129 51.7554 125.642 51.8149 126.221H50.3287C50.2891 125.848 50.2019 125.529 50.0672 125.263C49.9364 124.998 49.7422 124.796 49.4846 124.657C49.227 124.514 48.8901 124.443 48.474 124.443C48.1332 124.443 47.8359 124.507 47.5823 124.633C47.3287 124.76 47.1167 124.946 46.9462 125.192C46.7758 125.438 46.647 125.741 46.5598 126.102C46.4766 126.458 46.435 126.867 46.435 127.326V128.057C46.435 128.493 46.4727 128.89 46.548 129.246C46.6272 129.599 46.7461 129.902 46.9046 130.156C47.0671 130.409 47.2732 130.606 47.5229 130.744C47.7725 130.883 48.0718 130.952 48.4205 130.952C48.8445 130.952 49.1874 130.885 49.4489 130.75C49.7144 130.616 49.9146 130.419 50.0493 130.162C50.188 129.9 50.2792 129.581 50.3228 129.205ZM60.6554 130.839V132.022H56.3099V130.839H60.6554ZM56.7261 123.367V132.022H55.234V123.367H56.7261ZM65.4715 123.367V132.022H63.9794V123.367H65.4715ZM76.2619 123.367V132.022H74.7698L70.888 125.822V132.022H69.3959V123.367H70.888L74.7817 129.579V123.367H76.2619ZM81.7022 123.367V132.022H80.2101V123.367H81.7022ZM90.7389 129.205H92.2251C92.1775 129.771 92.019 130.277 91.7495 130.721C91.48 131.16 91.1015 131.507 90.6141 131.761C90.1266 132.015 89.5341 132.141 88.8366 132.141C88.3016 132.141 87.8201 132.046 87.3921 131.856C86.9641 131.662 86.5975 131.388 86.2924 131.036C85.9872 130.679 85.7534 130.249 85.5909 129.746C85.4324 129.242 85.3531 128.68 85.3531 128.057V127.338C85.3531 126.716 85.4343 126.153 85.5968 125.65C85.7633 125.147 86.0011 124.717 86.3102 124.36C86.6193 123.999 86.9899 123.724 87.4218 123.534C87.8578 123.343 88.3472 123.248 88.8901 123.248C89.5797 123.248 90.1623 123.375 90.6379 123.629C91.1134 123.882 91.482 124.233 91.7436 124.681C92.0091 125.129 92.1716 125.642 92.231 126.221H90.7449C90.7052 125.848 90.618 125.529 90.4833 125.263C90.3525 124.998 90.1583 124.796 89.9007 124.657C89.6431 124.514 89.3063 124.443 88.8901 124.443C88.5493 124.443 88.2521 124.507 87.9985 124.633C87.7448 124.76 87.5328 124.946 87.3624 125.192C87.192 125.438 87.0632 125.741 86.976 126.102C86.8928 126.458 86.8511 126.867 86.8511 127.326V128.057C86.8511 128.493 86.8888 128.89 86.9641 129.246C87.0434 129.599 87.1622 129.902 87.3208 130.156C87.4833 130.409 87.6893 130.606 87.939 130.744C88.1887 130.883 88.4879 130.952 88.8366 130.952C89.2607 130.952 89.6035 130.885 89.8651 130.75C90.1306 130.616 90.3307 130.419 90.4655 130.162C90.6042 129.9 90.6953 129.581 90.7389 129.205Z" fill="white"/>
<path d="M82.6289 12.4055C82.5197 12.4328 82.4106 12.4601 82.3015 12.4874C74.3213 14.9019 66.6685 15.1474 59.0566 11.2187C51.5674 7.33091 40.3133 6.6352 35.3615 14.861C33.5199 17.8484 32.8242 21.3679 32.4149 24.8465C30.9417 36.96 32.4559 50.7514 35.2387 62.6604C37.0803 70.6406 40.8044 81.199 48.2526 85.6597C50.0942 86.7647 52.4678 87.4195 54.3912 86.4373C55.7417 85.7825 56.6011 84.432 57.215 83.0406C59.343 78.0069 61.4711 59.632 70.6381 63.6835C72.8071 64.6247 74.2803 66.7119 75.017 68.9218C76.6539 73.628 75.9582 78.8254 78.2091 83.4498C78.9048 84.8413 79.846 86.2736 81.2784 86.8056C82.3833 87.2149 83.652 87.0102 84.7569 86.6419C89.6269 84.8822 93.5147 79.3983 95.7655 74.9376C103.459 59.632 106.242 41.8709 103.705 24.9283C102.886 19.4854 100.84 14.0834 95.4381 11.7916C91.3867 10.0728 86.8031 11.1369 82.6289 12.4055Z" fill="#25EFFC"/>
<path d="M68.387 59.1822C59.22 55.1716 57.1329 73.5056 54.9639 78.5393C54.35 79.9307 53.4906 81.3221 52.1401 81.9769C50.2167 82.9591 47.884 82.2634 46.0015 81.1584C42.9322 79.3169 40.5177 76.4522 38.5942 73.1373C40.7632 78.2528 43.8325 83 48.2523 85.6601C50.0939 86.7651 52.4675 87.4198 54.391 86.4377C55.7415 85.7829 56.6009 84.4324 57.2147 83.041C59.3428 78.0073 61.4708 59.6323 70.6378 63.6838C71.62 64.0931 72.4385 64.7479 73.1342 65.5663C73.0251 65.1844 72.916 64.8161 72.8068 64.4614C72.0293 62.2106 70.556 60.1644 68.387 59.1822Z" fill="#4269F0"/>
<path d="M103.705 24.9286C103.214 21.6138 102.232 18.3398 100.349 15.7207C100.881 17.2758 101.209 18.8719 101.454 20.4679C104.033 37.4105 101.25 55.1307 93.515 70.4363C91.3051 74.897 87.4174 80.4218 82.5065 82.1406C81.4015 82.5498 80.1738 82.7135 79.0688 82.3452C78.3731 82.0588 77.8002 81.6086 77.3091 81.0766C77.5546 81.8541 77.8411 82.6726 78.2094 83.4502C78.9051 84.8416 79.8464 86.2739 81.2787 86.8059C82.3837 87.2152 83.6523 87.0106 84.7573 86.6423C89.6273 84.8825 93.515 79.3987 95.7659 74.9379C103.46 59.6323 106.242 41.8712 103.705 24.9286Z" fill="#4269F0"/>
<path d="M49.0713 23.5372C49.0713 23.5372 54.0231 35.8553 70.9657 31.8448C87.9083 27.8751 90.9367 10.8916 90.9367 10.8916C90.9367 10.8916 83.6931 11.4236 79.4779 13.7972C76.3677 15.1477 73.9122 17.0302 71.2113 18.9946C66.4641 22.4731 61.1848 26.1563 55.1281 25.9517C53 25.8698 50.9129 25.256 49.0713 24.2738" fill="#4269F0"/>
</g>
<defs>
<clipPath id="clip0_106_11230">
<rect width="130.174" height="134.856" fill="white"/>
</clipPath>
</defs>
</svg>
