<svg width="98" height="109" viewBox="0 0 98 109" fill="none" xmlns="http://www.w3.org/2000/svg">
<path d="M4.18558 91H1.88605L1.90056 89.3026H4.18558C4.75623 89.3026 5.23741 89.1744 5.62913 88.9181C6.02085 88.6569 6.31584 88.2773 6.51412 87.7792C6.71723 87.2811 6.81879 86.679 6.81879 85.973V85.4579C6.81879 84.9163 6.76076 84.4399 6.64469 84.0289C6.53347 83.6178 6.36662 83.272 6.14417 82.9915C5.92171 82.7111 5.64847 82.5007 5.32446 82.3604C5.00045 82.2154 4.62807 82.1428 4.20734 82.1428H1.84252V80.4381H4.20734C4.9134 80.4381 5.55901 80.559 6.14417 80.8008C6.73416 81.0378 7.24436 81.3787 7.67477 81.8236C8.10517 82.2686 8.43644 82.8005 8.66857 83.4195C8.90553 84.0337 9.02402 84.718 9.02402 85.4724V85.973C9.02402 86.7225 8.90553 87.4068 8.66857 88.0258C8.43644 88.6449 8.10517 89.1768 7.67477 89.6217C7.2492 90.0618 6.739 90.4028 6.14417 90.6446C5.55417 90.8815 4.90131 91 4.18558 91ZM3.11923 80.4381V91H0.943024V80.4381H3.11923ZM17.6926 89.3026V91H12.0707V89.3026H17.6926ZM12.7816 80.4381V91H10.6054V80.4381H12.7816ZM16.9599 84.7398V86.3937H12.0707V84.7398H16.9599ZM17.6853 80.4381V82.1428H12.0707V80.4381H17.6853ZM27.5581 80.4381V91H25.3819L21.1383 83.9201V91H18.962V80.4381H21.1383L25.3891 87.5253V80.4381H27.5581ZM33.9561 80.4381V91H31.7872V80.4381H33.9561ZM37.2059 80.4381V82.1428H28.5881V80.4381H37.2059ZM41.9573 82.2444L39.0847 91H36.7707L40.6951 80.4381H42.1677L41.9573 82.2444ZM44.3439 91L41.4641 82.2444L41.2319 80.4381H42.719L46.6652 91H44.3439ZM44.2133 87.0683V88.773H38.635V87.0683H44.2133ZM54.4343 89.3026V91H49.1171V89.3026H54.4343ZM49.8207 80.4381V91H47.6445V80.4381H49.8207ZM65.5039 87.4963H67.6729C67.6293 88.2072 67.4335 88.8383 67.0853 89.3896C66.7419 89.9409 66.2607 90.3713 65.6417 90.6808C65.0276 90.9903 64.2877 91.1451 63.422 91.1451C62.745 91.1451 62.138 91.029 61.6012 90.7969C61.0644 90.5599 60.605 90.2214 60.223 89.7813C59.8458 89.3412 59.558 88.8093 59.3597 88.1854C59.1615 87.5616 59.0623 86.8628 59.0623 86.089V85.3564C59.0623 84.5826 59.1639 83.8838 59.367 83.2599C59.5749 82.6313 59.8699 82.0969 60.252 81.6568C60.6389 81.2167 61.1007 80.8782 61.6375 80.6412C62.1743 80.4043 62.774 80.2858 63.4365 80.2858C64.3167 80.2858 65.059 80.4454 65.6635 80.7646C66.2728 81.0837 66.7444 81.5238 67.078 82.0848C67.4166 82.6458 67.6197 83.2841 67.6874 83.9999H65.5112C65.487 83.5743 65.4024 83.214 65.2573 82.919C65.1122 82.6192 64.8922 82.3943 64.5972 82.2444C64.307 82.0896 63.9201 82.0123 63.4365 82.0123C63.0738 82.0123 62.7571 82.08 62.4862 82.2154C62.2154 82.3508 61.9881 82.5563 61.8044 82.832C61.6206 83.1076 61.4828 83.4558 61.3909 83.8765C61.3038 84.2924 61.2603 84.7809 61.2603 85.3419V86.089C61.2603 86.6355 61.3014 87.1167 61.3836 87.5326C61.4658 87.9436 61.5916 88.2918 61.7608 88.5772C61.9349 88.8576 62.1574 89.0704 62.4282 89.2155C62.7039 89.3558 63.0351 89.4259 63.422 89.4259C63.8766 89.4259 64.2514 89.3533 64.5464 89.2083C64.8414 89.0632 65.0663 88.848 65.221 88.5626C65.3806 88.2773 65.4749 87.9219 65.5039 87.4963ZM73.3963 82.2444L70.5237 91H68.2097L72.1341 80.4381H73.6067L73.3963 82.2444ZM75.7829 91L72.903 82.2444L72.6709 80.4381H74.158L78.1042 91H75.7829ZM75.6523 87.0683V88.773H70.074V87.0683H75.6523ZM79.0835 80.4381H83.0224C83.83 80.4381 84.524 80.559 85.1043 80.8008C85.6895 81.0426 86.1392 81.4005 86.4536 81.8744C86.7679 82.3484 86.9251 82.9311 86.9251 83.6226C86.9251 84.1885 86.8283 84.6745 86.6349 85.0807C86.4463 85.4821 86.1779 85.8182 85.8297 86.089C85.4864 86.355 85.0825 86.5678 84.6183 86.7274L83.9292 87.0901H80.5052L80.4907 85.3926H83.0369C83.419 85.3926 83.7357 85.3249 83.9872 85.1895C84.2387 85.0541 84.4273 84.8655 84.553 84.6237C84.6836 84.3819 84.7489 84.1014 84.7489 83.7822C84.7489 83.4437 84.686 83.1511 84.5603 82.9045C84.4345 82.6579 84.2435 82.4693 83.9872 82.3387C83.7309 82.2081 83.4093 82.1428 83.0224 82.1428H81.2597V91H79.0835V80.4381ZM84.9882 91L82.5799 86.2921L84.8794 86.2776L87.3168 90.8984V91H84.9882ZM95.6879 89.3026V91H90.0661V89.3026H95.6879ZM90.777 80.4381V91H88.6008V80.4381H90.777ZM94.9553 84.7398V86.3937H90.0661V84.7398H94.9553ZM95.6807 80.4381V82.1428H90.0661V80.4381H95.6807Z" fill="white"/>
<path d="M32.3762 103.4H33.7304C33.687 103.917 33.5426 104.377 33.297 104.782C33.0515 105.182 32.7066 105.498 32.2625 105.729C31.8183 105.961 31.2784 106.076 30.6429 106.076C30.1554 106.076 29.7166 105.989 29.3266 105.816C28.9366 105.639 28.6026 105.39 28.3245 105.069C28.0465 104.744 27.8334 104.352 27.6854 103.893C27.5409 103.435 27.4687 102.922 27.4687 102.355V101.699C27.4687 101.132 27.5427 100.62 27.6908 100.161C27.8425 99.7025 28.0591 99.3107 28.3408 98.9857C28.6225 98.6571 28.9601 98.4061 29.3537 98.2328C29.7509 98.0594 30.1969 97.9728 30.6916 97.9728C31.32 97.9728 31.8508 98.0883 32.2841 98.3194C32.7175 98.5506 33.0533 98.8701 33.2916 99.2782C33.5336 99.6862 33.6816 100.154 33.7358 100.681H32.3816C32.3455 100.342 32.2661 100.051 32.1433 99.809C32.0241 99.5671 31.8472 99.3829 31.6125 99.2565C31.3777 99.1265 31.0708 99.0615 30.6916 99.0615C30.3811 99.0615 30.1102 99.1193 29.8791 99.2349C29.648 99.3504 29.4548 99.5201 29.2995 99.744C29.1443 99.9679 29.0269 100.244 28.9475 100.573C28.8716 100.898 28.8337 101.27 28.8337 101.689V102.355C28.8337 102.752 28.868 103.113 28.9366 103.438C29.0088 103.76 29.1172 104.036 29.2616 104.267C29.4097 104.498 29.5975 104.677 29.825 104.803C30.0525 104.93 30.3251 104.993 30.6429 104.993C31.0293 104.993 31.3416 104.931 31.58 104.809C31.8219 104.686 32.0043 104.507 32.127 104.272C32.2534 104.034 32.3365 103.743 32.3762 103.4ZM41.7912 104.89V105.968H37.8317V104.89H41.7912ZM38.2108 98.0811V105.968H36.8512V98.0811H38.2108ZM46.1796 98.0811V105.968H44.82V98.0811H46.1796ZM56.0117 98.0811V105.968H54.6521L51.1151 100.318V105.968H49.7555V98.0811H51.1151L54.663 103.742V98.0811H56.0117ZM60.9688 98.0811V105.968H59.6092V98.0811H60.9688ZM69.203 103.4H70.5572C70.5139 103.917 70.3694 104.377 70.1239 104.782C69.8783 105.182 69.5335 105.498 69.0893 105.729C68.6451 105.961 68.1053 106.076 67.4697 106.076C66.9822 106.076 66.5435 105.989 66.1535 105.816C65.7635 105.639 65.4294 105.39 65.1514 105.069C64.8733 104.744 64.6603 104.352 64.5122 103.893C64.3678 103.435 64.2955 102.922 64.2955 102.355V101.699C64.2955 101.132 64.3696 100.62 64.5176 100.161C64.6693 99.7025 64.886 99.3107 65.1676 98.9857C65.4493 98.6571 65.7869 98.4061 66.1805 98.2328C66.5778 98.0594 67.0237 97.9728 67.5185 97.9728C68.1468 97.9728 68.6776 98.0883 69.111 98.3194C69.5443 98.5506 69.8801 98.8701 70.1185 99.2782C70.3604 99.6862 70.5085 100.154 70.5626 100.681H69.2085C69.1723 100.342 69.0929 100.051 68.9701 99.809C68.851 99.5671 68.674 99.3829 68.4393 99.2565C68.2046 99.1265 67.8976 99.0615 67.5185 99.0615C67.2079 99.0615 66.9371 99.1193 66.706 99.2349C66.4748 99.3504 66.2816 99.5201 66.1264 99.744C65.9711 99.9679 65.8537 100.244 65.7743 100.573C65.6985 100.898 65.6605 101.27 65.6605 101.689V102.355C65.6605 102.752 65.6948 103.113 65.7635 103.438C65.8357 103.76 65.944 104.036 66.0885 104.267C66.2365 104.498 66.4243 104.677 66.6518 104.803C66.8793 104.93 67.1519 104.993 67.4697 104.993C67.8561 104.993 68.1685 104.931 68.4068 104.809C68.6487 104.686 68.8311 104.507 68.9539 104.272C69.0803 104.034 69.1633 103.743 69.203 103.4Z" fill="white"/>
<path d="M91.5094 14.1377C66.3351 40.6522 30.1493 42.7169 16.7109 36.5954C9.24919 33.2267 11.2414 27.5761 11.2414 27.5761C11.2414 27.5761 12.7627 33.2267 23.3033 34.7843C36.7417 36.7403 65.2122 36.2331 91.5094 14.1377Z" fill="#25EFFC"/>
<path d="M49.4556 40.4705C49.4556 40.4705 79.1939 35.5443 97.2687 11.2031C97.2687 11.2031 84.3736 38.8768 49.4556 40.4705Z" fill="#25EFFC"/>
<path d="M21.7466 43.2969C25.7672 51.8815 30.5848 60.285 31.9612 61.1182C34.0259 62.3859 38.4449 62.3859 39.3867 60.4661C40.908 57.3873 45.2909 52.9682 48.8407 52.9682C52.3904 52.9682 56.1937 56.9888 58.3308 60.4661C59.4537 62.3135 63.6555 62.3859 65.7564 61.1182C67.6037 59.959 76.1159 44.3473 79.9916 33.7705C74.8119 37.5376 56.0851 48.7664 21.7466 43.2969Z" fill="#25EFFC"/>
<path d="M82.6352 17.796C82.4541 10.7689 79.665 4.24896 72.167 1.31497C60.7571 -3.14034 54.9253 5.15451 48.84 5.15451C42.7909 5.15451 36.9592 -3.14034 25.5492 1.31497C14.1393 5.8065 13.6322 18.5567 16.5662 28.7713C16.6869 29.1818 16.8077 29.6044 16.9284 30.0391C18.5584 30.7997 20.6593 31.4517 23.3035 31.8502C35.2568 33.5888 59.0546 33.3715 82.6352 17.796Z" fill="#25EFFC"/>
<path d="M31.9965 3.01704C23.9914 2.03905 18.7755 8.66768 18.051 16.2743C17.3266 23.8809 20.7314 29.8576 25.0056 25.8369C29.2798 21.8163 30.1492 15.6948 35.7636 14.1372C41.378 12.5434 40.0016 3.99504 31.9965 3.01704Z" fill="#4269F0"/>
</svg>
