<svg width="30" height="24" viewBox="0 0 30 24" fill="none" xmlns="http://www.w3.org/2000/svg">
<path d="M2.85936 21.8861C1.19631 20.0353 0.198486 18.0161 0.198486 14.6509C0.198486 8.76178 4.3561 3.54569 10.1767 0.853516L11.6735 3.04091C6.18544 6.0696 5.02131 9.9396 4.6887 12.4635C5.52023 11.9587 6.68436 11.7905 7.84849 11.9587C10.842 12.2953 13.1702 14.6509 13.1702 17.8479C13.1702 19.3622 12.505 20.8766 11.5072 22.0544C10.3431 23.2322 9.01262 23.737 7.34957 23.737C5.52023 23.737 3.85718 22.8957 2.85936 21.8861ZM19.4898 21.8861C17.8267 20.0353 16.8289 18.0161 16.8289 14.6509C16.8289 8.76178 20.9865 3.54569 26.8072 0.853516L28.3039 3.04091C22.8159 6.0696 21.6518 9.9396 21.3191 12.4635C22.1507 11.9587 23.3148 11.7905 24.4789 11.9587C27.4724 12.2953 29.8007 14.6509 29.8007 17.8479C29.8007 19.3622 29.1354 20.8766 28.1376 22.0544C27.1398 23.2322 25.6431 23.737 23.98 23.737C22.1507 23.737 20.4876 22.8957 19.4898 21.8861Z" fill="white"/>
</svg>
