<svg width="18" height="18" viewBox="0 0 18 18" fill="none" xmlns="http://www.w3.org/2000/svg">
<g clip-path="url(#clip0_51_15307)">
<path d="M17.2799 16.2476L12.3057 11.2735C13.2692 10.0834 13.8494 8.57107 13.8494 6.92397C13.8494 3.10645 10.7432 0.000244141 6.92564 0.000244141C3.10813 0.000244141 0.00195312 3.10642 0.00195312 6.92393C0.00195312 10.7414 3.10816 13.8477 6.92568 13.8477C8.57278 13.8477 10.0851 13.2675 11.2752 12.304L16.2494 17.2782C16.3915 17.4203 16.578 17.4917 16.7646 17.4917C16.9512 17.4917 17.1378 17.4203 17.2799 17.2782C17.5649 16.9932 17.5649 16.5326 17.2799 16.2476ZM6.92568 12.39C3.9113 12.39 1.45959 9.93831 1.45959 6.92393C1.45959 3.90956 3.9113 1.45784 6.92568 1.45784C9.94005 1.45784 12.3918 3.90956 12.3918 6.92393C12.3918 9.93831 9.94002 12.39 6.92568 12.39Z" fill="white"/>
</g>
<defs>
<clipPath id="clip0_51_15307">
<rect width="17.4917" height="17.4917" fill="white"/>
</clipPath>
</defs>
</svg>
