<svg width="21" height="21" viewBox="0 0 21 21" fill="none" xmlns="http://www.w3.org/2000/svg">
<path d="M20.4981 8.88272L16.021 13.247L17.0783 19.411C17.1243 19.6805 17.0136 19.9529 16.7922 20.1139C16.6672 20.2052 16.5184 20.2512 16.3696 20.2512C16.2553 20.2512 16.1403 20.2239 16.0354 20.1685L10.4996 17.2583L4.96447 20.1678C4.72297 20.2957 4.429 20.2749 4.20763 20.1132C3.98625 19.9522 3.87556 19.6798 3.92156 19.4102L4.97884 13.2462L0.501032 8.88272C0.305532 8.69153 0.234376 8.40547 0.319188 8.146C0.404001 7.88653 0.62897 7.69606 0.899939 7.65653L7.08766 6.75809L9.85485 1.15041C10.0971 0.6595 10.9021 0.6595 11.1443 1.15041L13.9115 6.75809L20.0992 7.65653C20.3702 7.69606 20.5951 7.88581 20.6799 8.146C20.7647 8.40619 20.6936 8.69081 20.4981 8.88272Z" fill="#00AFFF"/>
</svg>
