<svg width="1520" height="1245" viewBox="0 0 1520 1245" fill="none" xmlns="http://www.w3.org/2000/svg">
<g opacity="0.35">
<path d="M1419.4 30.9004C1422.5 30.9004 1425.1 33.4004 1425.1 36.5004C1425.1 39.7004 1422.5 42.2004 1419.4 42.2004C1416.3 42.2004 1413.7 39.7004 1413.7 36.5004C1413.7 33.4004 1416.3 30.9004 1419.4 30.9004Z" fill="#2581D9"/>
<path d="M1450.8 30.9004C1454 30.9004 1456.5 33.4004 1456.5 36.5004C1456.5 39.7004 1454 42.2004 1450.8 42.2004C1447.7 42.2004 1445.2 39.7004 1445.2 36.5004C1445.2 33.4004 1447.7 30.9004 1450.8 30.9004Z" fill="#2581D9"/>
<path d="M1482.3 30.9004C1485.4 30.9004 1487.9 33.4004 1487.9 36.5004C1487.9 39.7004 1485.4 42.2004 1482.3 42.2004C1479.1 42.2004 1476.6 39.7004 1476.6 36.5004C1476.6 33.4004 1479.1 30.9004 1482.3 30.9004Z" fill="#2581D9"/>
<path d="M1513.7 30.9004C1516.8 30.9004 1519.4 33.4004 1519.4 36.5004C1519.4 39.7004 1516.8 42.2004 1513.7 42.2004C1510.6 42.2004 1508.1 39.7004 1508.1 36.5004C1508.1 33.4004 1510.6 30.9004 1513.7 30.9004Z" fill="#2581D9"/>
<path d="M1403.7 61.0996C1406.8 61.0996 1409.3 63.5996 1409.3 66.6996C1409.3 69.8996 1406.8 72.3996 1403.7 72.3996C1400.6 72.3996 1398 69.8996 1398 66.6996C1398 63.5996 1400.6 61.0996 1403.7 61.0996Z" fill="#2581D9"/>
<path d="M1435.1 61.0996C1438.2 61.0996 1440.8 63.5996 1440.8 66.6996C1440.8 69.8996 1438.2 72.3996 1435.1 72.3996C1432 72.3996 1429.5 69.8996 1429.5 66.6996C1429.5 63.5996 1432 61.0996 1435.1 61.0996Z" fill="#2581D9"/>
<path d="M1466.6 61.0996C1469.7 61.0996 1472.2 63.5996 1472.2 66.6996C1472.2 69.8996 1469.7 72.3996 1466.6 72.3996C1463.4 72.3996 1460.9 69.8996 1460.9 66.6996C1460.9 63.5996 1463.4 61.0996 1466.6 61.0996Z" fill="#2581D9"/>
<path d="M1498 61.0996C1501.1 61.0996 1503.7 63.5996 1503.7 66.6996C1503.7 69.8996 1501.1 72.3996 1498 72.3996C1494.9 72.3996 1492.3 69.8996 1492.3 66.6996C1492.3 63.5996 1494.9 61.0996 1498 61.0996Z" fill="#2581D9"/>
<path d="M1403.7 3C1406.8 3 1409.3 5.50001 1409.3 8.60001C1409.3 11.7 1406.8 14.3 1403.7 14.3C1400.6 14.3 1398 11.7 1398 8.60001C1398 5.50001 1400.6 3 1403.7 3Z" fill="#2581D9"/>
<path d="M1435.1 3C1438.2 3 1440.8 5.50001 1440.8 8.60001C1440.8 11.7 1438.2 14.3 1435.1 14.3C1432 14.3 1429.5 11.7 1429.5 8.60001C1429.5 5.50001 1432 3 1435.1 3Z" fill="#2581D9"/>
<path d="M1466.6 3C1469.7 3 1472.2 5.50001 1472.2 8.60001C1472.2 11.7 1469.7 14.3 1466.6 14.3C1463.4 14.3 1460.9 11.7 1460.9 8.60001C1460.9 5.50001 1463.4 3 1466.6 3Z" fill="#2581D9"/>
<path d="M1498 3C1501.1 3 1503.7 5.50001 1503.7 8.60001C1503.7 11.7 1501.1 14.3 1498 14.3C1494.9 14.3 1492.3 11.7 1492.3 8.60001C1492.3 5.50001 1494.9 3 1498 3Z" fill="#2581D9"/>
<path d="M21.4 1202.9C24.5 1202.9 27.1 1205.4 27.1 1208.5C27.1 1211.7 24.5 1214.2 21.4 1214.2C18.3 1214.2 15.7001 1211.7 15.7001 1208.5C15.7001 1205.4 18.3 1202.9 21.4 1202.9Z" fill="#2581D9"/>
<path d="M52.8 1202.9C56 1202.9 58.5 1205.4 58.5 1208.5C58.5 1211.7 56 1214.2 52.8 1214.2C49.7 1214.2 47.2001 1211.7 47.2001 1208.5C47.2001 1205.4 49.7 1202.9 52.8 1202.9Z" fill="#2581D9"/>
<path d="M84.3 1202.9C87.4 1202.9 89.9 1205.4 89.9 1208.5C89.9 1211.7 87.4 1214.2 84.3 1214.2C81.1 1214.2 78.6 1211.7 78.6 1208.5C78.6 1205.4 81.1 1202.9 84.3 1202.9Z" fill="#2581D9"/>
<path d="M115.7 1202.9C118.8 1202.9 121.4 1205.4 121.4 1208.5C121.4 1211.7 118.8 1214.2 115.7 1214.2C112.6 1214.2 110.1 1211.7 110.1 1208.5C110.1 1205.4 112.6 1202.9 115.7 1202.9Z" fill="#2581D9"/>
<path d="M5.70007 1233.1C8.80007 1233.1 11.3 1235.6 11.3 1238.7C11.3 1241.9 8.80007 1244.4 5.70007 1244.4C2.60007 1244.4 0 1241.9 0 1238.7C0 1235.6 2.60007 1233.1 5.70007 1233.1Z" fill="#2581D9"/>
<path d="M37.1 1233.1C40.2 1233.1 42.8 1235.6 42.8 1238.7C42.8 1241.9 40.2 1244.4 37.1 1244.4C34 1244.4 31.5 1241.9 31.5 1238.7C31.5 1235.6 34 1233.1 37.1 1233.1Z" fill="#2581D9"/>
<path d="M68.6 1233.1C71.7 1233.1 74.2001 1235.6 74.2001 1238.7C74.2001 1241.9 71.7 1244.4 68.6 1244.4C65.4 1244.4 62.9 1241.9 62.9 1238.7C62.9 1235.6 65.4 1233.1 68.6 1233.1Z" fill="#2581D9"/>
<path d="M100 1233.1C103.1 1233.1 105.7 1235.6 105.7 1238.7C105.7 1241.9 103.1 1244.4 100 1244.4C96.9 1244.4 94.3 1241.9 94.3 1238.7C94.3 1235.6 96.9 1233.1 100 1233.1Z" fill="#2581D9"/>
<path d="M5.70007 1175C8.80007 1175 11.3 1177.5 11.3 1180.6C11.3 1183.7 8.80007 1186.3 5.70007 1186.3C2.60007 1186.3 0 1183.7 0 1180.6C0 1177.5 2.60007 1175 5.70007 1175Z" fill="#2581D9"/>
<path d="M37.1 1175C40.2 1175 42.8 1177.5 42.8 1180.6C42.8 1183.7 40.2 1186.3 37.1 1186.3C34 1186.3 31.5 1183.7 31.5 1180.6C31.5 1177.5 34 1175 37.1 1175Z" fill="#2581D9"/>
<path d="M68.6 1175C71.7 1175 74.2001 1177.5 74.2001 1180.6C74.2001 1183.7 71.7 1186.3 68.6 1186.3C65.4 1186.3 62.9 1183.7 62.9 1180.6C62.9 1177.5 65.4 1175 68.6 1175Z" fill="#2581D9"/>
<path d="M100 1175C103.1 1175 105.7 1177.5 105.7 1180.6C105.7 1183.7 103.1 1186.3 100 1186.3C96.9 1186.3 94.3 1183.7 94.3 1180.6C94.3 1177.5 96.9 1175 100 1175Z" fill="#2581D9"/>
<path opacity="0.9" d="M1398.16 1104L1403.21 1121.36L1418.52 1124.16L1403.21 1128.46L1398.16 1144.33L1394.43 1128.46L1378 1124.16L1394.43 1121.36L1398.16 1104Z" fill="#2581D9"/>
<path opacity="0.9" d="M1367.82 423.06L1371.18 435.009L1381.63 436.876L1371.18 439.676L1367.82 450.692L1365.2 439.676L1354 436.876L1365.2 435.009L1367.82 423.06Z" fill="#2581D9"/>
<path opacity="0.9" d="M86.7909 0L91.6453 17.3637L106.582 19.9776L91.6453 24.0852L86.7909 39.7685L83.0568 24.0852L67 19.9776L83.0568 17.3637L86.7909 0Z" fill="#2581D9"/>
<path opacity="0.9" d="M120.816 423L124.177 435.136L134.633 436.816L124.177 439.804L120.816 450.633L118.202 439.804L107 436.816L118.202 435.136L120.816 423Z" fill="#2581D9"/>
</g>
</svg>
